<svg xmlns="http://www.w3.org/2000/svg" viewBox="0 0 1224.79 176.33"><defs><style>.cls-1,.cls-7{fill:#203a8e;}.cls-2{fill:#fcfcfc;}.cls-3{fill:#f31c15;}.cls-4{fill:#354890;}.cls-5{fill:#fff;}.cls-6{fill:#ec3136;}.cls-7{font-size:158px;font-family:Montserrat-Bold, Montserrat;font-weight:700;}.cls-8{fill:#231f20;}</style></defs><title>Asset 1</title><g id="Layer_2" data-name="Layer 2"><g id="Layer_1-2" data-name="Layer 1"><path class="cls-1" d="M0,82.78V77.26a12.36,12.36,0,0,0,.34-3.48A75.92,75.92,0,0,1,14.11,35.65Q35,6.4,70.77,2.36c1.76-.2,3.56,0,5.28-.51H81c.32.36.76.23,1.15.25,16.14.75,30.8,5.81,43.51,15.75,23,18,33.21,41.73,30.67,70.75a72.81,72.81,0,0,1-17.89,42c-18.13,21-41.21,30.11-68.78,27.46a74.13,74.13,0,0,1-41.11-17.46A76.94,76.94,0,0,1,.86,91.14C.46,88.37.28,85.57,0,82.78Zm32.51,25.41c0,.7-.69.75-1.1,1-2.55,1.65-5.14,3.25-7.71,4.87A4.25,4.25,0,0,0,25,115.89l9.92-6.22c-.53-.83-.6-1.86-1.8-1.74,0-.28.22-.51,0-.85-1.07-2-1.93-4-3.1-5.9h-.93c.1-.36.6-.41.64-1a9.82,9.82,0,0,0-.88-2.53l-12,1a4.91,4.91,0,0,0,.67,2.13c1,.21,2-.4,3-.05a6,6,0,0,1,.69,2.29c-.75.67-1.76.89-2.45,1.62a3.91,3.91,0,0,0,.81,2l9-5.2c0,1,.86,1.67,1,2.71l-8.93,4.62c.46.73.51,1.46,1.18,1.83l8.74-4.41a3.43,3.43,0,0,1,.94,1.43A.84.84,0,0,0,32.51,108.19ZM69,17.2,67.51,16c-2.85.62-5.72,1.21-8.58,2.07a4.7,4.7,0,0,0,1.39,1.56c1.11,0,2.13-.67,3.38-.54.13,1.15.7,2.2.67,3.45-.81,0-1.76-.65-2.13.79,1.54,2.54,4.31,3.92,6.46,6.07.37-.39.75-.58.65-1.1a18.06,18.06,0,0,1-3.61-2.77L67,23.64a3.08,3.08,0,0,0,2.32.56c.8-.23,1.56-.61,2.46-1l.33,3.3a5.42,5.42,0,0,0,2.1,1.22l-.63-10.3c.9-.5,1.8,0,2.51-.54a3.17,3.17,0,0,0-1-1.6c-.49-.21-1,.13-1.44-.3A29.2,29.2,0,0,0,70,10.18a2.54,2.54,0,0,0-3.48-.52,6.34,6.34,0,0,0,1.12,2c3-.62,3.58,2,5.29,3.64l-4.28.42c0,.58.48.84.55,1.3Zm62.47,77.33c.61-.31,1.08.15,1.58.31,2.47.8,4.92,1.63,7.52,2.49a5.9,5.9,0,0,0,.52-2.16L130,91.51a14.83,14.83,0,0,0-1.11,3.42l6.49,3.73c-2.69-.17-5.12-.63-7.69-.66-.56,3.24-2.57,5.73-3.67,8.72l10.55,5.37,2.81-5.54a4.42,4.42,0,0,0-1.51-.72L134,109.27a13.57,13.57,0,0,1-3.19-1.74l1.45-3.1a2.32,2.32,0,0,0-1.48-.72l-1.64,3.1a7.37,7.37,0,0,1-2.59-1.54l1.76-3.43,9.72,3.14a5.39,5.39,0,0,0,.52-2.16c-2.95-.93-5.89-2-8.92-2.85,3.27,0,6.49.55,9.77.68.16-.42.48-.72.27-1.28l-8.21-4.87Zm-97-60.71c-.7.29-1.4-.3-2.15,0L28,38.76c-1.2,1.38-2.74,2.61-3.53,4.2-1.46,2.91-3.36,5.56-4.58,8.61-1.44,3.56-3.23,7-4.26,10.71-.35,1.26-.89,2.46-1.18,3.91l2.1-.45,1.2-3.45c1.18.46,2.42.45,3.37,1.26-.27.78-1.42,1.22-.43,2.41a65.67,65.67,0,0,0,8.09-2.9c0-.53-.12-.83-.52-1a28.12,28.12,0,0,1-4.18,1.62c-.79-2.84-3.71-2.31-5.59-3.56a11.79,11.79,0,0,1,2.31-5.25L29,58.65l2.28-1.22-9.69-4.54a21.72,21.72,0,0,1,1.79-3.65,22.21,22.21,0,0,1,3.41,1.88,3.32,3.32,0,0,0,2.94.22,3.36,3.36,0,0,0,2.54-4.07c5.08-.43,7.19-2.27,7.08-6.09a4.4,4.4,0,0,0-2-.35,13,13,0,0,1-1.16,4,2.13,2.13,0,0,1-2,1.26,1.8,1.8,0,0,1-1.6-1.59c.21-1.78,1.62-3.08,1.86-4.79-.56-1.08-1.75-1.48-2.34-2.45a10.09,10.09,0,0,1,1.44-1.79c.39-.51,1-.89.88-1.68.42-.37.88.22,1.29-.06s.65-.67,1.31-.72l5.84,6.89a8.47,8.47,0,0,0,2.45-.32l-6.69-8c.5-.86,1.41-1.16,1.85-2.06l-1.86-.58c-.79.33-1.19,1-1.94,1.23-.57-.39-1.14-.82-1.75-1.19a4.63,4.63,0,0,0-3.49-.74,3.58,3.58,0,0,0-2.75,3.11c0,1.15.63,1.86,2.18,2.32a1.39,1.39,0,0,0,.82-.84c-.94-1.63-.88-2.47.25-3.11A3,3,0,0,1,35.72,31c-.61.73-1.54,1.16-2,1.89C33.65,33.54,34.51,33.23,34.41,33.82Zm10,12.25a48.25,48.25,0,1,0,71.7,4.13A46.32,46.32,0,0,0,85.47,32.63c-15.33-2.17-28.76,2.28-40.12,12.53a25.56,25.56,0,0,0-5.37-1,22.13,22.13,0,0,0-.68,4.3,2.16,2.16,0,0,0,1.68.22c.6-1,.22-2.24.93-3.27C42.68,45.76,43.55,45.54,44.38,46.07Zm94.44,16.24L130.16,65a7.17,7.17,0,0,0-.71,2.28c3.47-.77,6.65-2.15,9.94-2.84.66.73.46,1.7,1.14,2.33.16-.15.32-.26.45-.4.31-.34.6-.69.81-.92A64.87,64.87,0,0,0,135,47.58c-.29-.15-.41.34-.7.14-.09-.33.21-.7,0-1-1.06-1.47-1.7-3.23-2.81-4.63-2.35-3-4.91-5.73-7.41-8.57-.28-.32-.48-.78-1-.86a5.67,5.67,0,0,0-.63,1.87C125,38.1,128.6,40.86,130.63,45l-7.51,5.13v2.49l8.73-5.84c2.32,2.8,3.41,6.09,4.88,9.15a3.62,3.62,0,0,1-1.94.93c-1.06-1.72-1.58-3.73-2.73-5.38-1.83.63-2.82,2.67-2,4,.54.16.93-.46,1.65-.21a12.08,12.08,0,0,1,1.18,2.67l-4.32,2a6.2,6.2,0,0,0-.43,2.57l9.44-4.37C139,59.32,138.33,60.87,138.82,62.31ZM92.16,18.75c-.62,3-1.22,5.94-1.81,8.82a6.06,6.06,0,0,0,1.72,1.7c.75-3.43,1.49-6.78,2.23-10.19l2.65.47a5.56,5.56,0,0,0-.73-2.14,37.46,37.46,0,0,0-6.48-1.08c-.39,0-.46-.56-.88-.63L76,14.76a5,5,0,0,0,1.06,2c2.87.33,5.72.28,8.56.79a7,7,0,0,1-.39,2.77C83,18.19,80.87,17.76,79,19.05a2.94,2.94,0,0,0-.94,3.81c1.14,2.55,2.8,3.05,6.84,2.05.4.56-.16,1.19.19,1.89a5.17,5.17,0,0,0,2,1.28c.24-3.51.48-6.9.72-10.26C89.46,17.37,90.68,18.16,92.16,18.75ZM116,26.55l-11.66-6.44a8.45,8.45,0,0,0,.21,2.34c1,.73,2.21,1.09,3.11,1.9a1.71,1.71,0,0,1-.54,1.59c-1.06.38-2.07-.41-3.21-.15a6.87,6.87,0,0,0,.27,5.19c.9,1.74,2.62,1.84,4.29,2-.1.81-.77,1.22-.83,2A9.08,9.08,0,0,0,108.84,37L114,27.85c.8.16,1.25.76,2,.82ZM51.05,21.09,39.34,27.35a6.61,6.61,0,0,0,2,1.16l3.17-1.61a1.61,1.61,0,0,1,1.2,1.31c-.32,1-1.31,1.6-1.88,2.44,2.55,3.53,5.38,3.64,8.53.38.58.39.54,1.21,1.18,1.66a6.3,6.3,0,0,0,2.35,0l-4.8-9.1c.43-.73,1.27-.69,1.71-1.41Zm39.4,112.6c1.35,3,2,6.18,3.29,9.33.63-.52,1.4-.33,1.94-1-1.29-3.65-2.15-7.43-3.54-11.12l-4,1v9.49h-.22c-1-3-2-6-3-9-.87,0-1.59-.11-2.26.49L86.76,144a10.2,10.2,0,0,0,2.94-.39C90,140.29,90.21,137,90.45,133.69ZM26.15,87.54,14.78,90.15a5.06,5.06,0,0,0,.42,2.11c2.54-.46,5-1.14,7.44-1.68L16,95.18a5.35,5.35,0,0,0,.49,2.33L28,94.87a6.28,6.28,0,0,0-.58-2.07c-2.63.4-5.15,1.18-7.73,1.81,2.44-1.55,4.79-3.19,7.08-4.81A4.75,4.75,0,0,0,26.15,87.54Zm11.59,42.89L45.88,122a3.54,3.54,0,0,0-1.55-1.52c-1.91,1.71-3.46,3.69-5.27,5.47,1.1-2.53,2.09-5.07,3.11-7.59a4.91,4.91,0,0,0-1.7-1.6l-8.14,8.42a3.88,3.88,0,0,0,1.56,1.46c1.91-1.68,3.43-3.66,5.21-5.4-1,2.58-2.13,5.07-3,7.61A7.19,7.19,0,0,0,37.74,130.43Zm37.05,2.31c0,4.21.18,8.06.41,12a5.2,5.2,0,0,0,2.11-.12v-4.86a3.36,3.36,0,0,1,2.57.24c.81,1.36.23,3.07.91,4.6a6.35,6.35,0,0,0,2.27-.19c-1-1.91.33-4.43-1.86-6a3.19,3.19,0,0,0,1-4c-.54-1.53-1.9-1.66-3.29-1.65ZM39.1,115.44a3.77,3.77,0,0,0-5.43-3.29,20.42,20.42,0,0,0-5.4,4c-1.64,1.67-1.64,2.89-.15,4.85,1.35,1.77,2.78,2.15,4.66,1.1A24.49,24.49,0,0,0,38,118.12,3.75,3.75,0,0,0,39.1,115.44Zm94.26-1.65-9.63-6.74a4,4,0,0,0-1.15,1.87l3.69,2.68A17,17,0,0,1,124.4,114l-3.69-2.55a3.3,3.3,0,0,0-1.2,1.87L129,120a4.61,4.61,0,0,0,1.24-1.74c-1.34-1.2-3-2-4.28-3.26.58-.81,1.1-1.55,1.64-2.32,1.73.75,2.94,2.14,4.55,2.89A4.71,4.71,0,0,0,133.36,113.79ZM113.67,129.3c1,1.69,2,2.34,3.29,2.19a4.78,4.78,0,0,0,3.61-3A3.32,3.32,0,0,0,119.3,125a3.94,3.94,0,0,0-3-.74c-.91,0-1.83.16-2.74.22-.72,0-1.37-.16-1.58-.92a1.11,1.11,0,0,1,.74-1.48c1.12-.19,1.47.68,2.16.84.49-.42,1.08-.67,1.33-1.26-1.2-1.62-2.44-2.07-3.92-1.43-1.72.74-2.82,2.38-2.54,3.78.33,1.7,1.71,2.7,3.75,2.69.87,0,1.73-.1,2.6-.14a3,3,0,0,1,1.51.16,1.6,1.6,0,0,1,1,1.29,1.2,1.2,0,0,1-.72,1.24,1.4,1.4,0,0,1-1.57-.2c-.42-.27-.57-.86-1.13-1A5.54,5.54,0,0,0,113.67,129.3Zm-69.89,5.41a6.12,6.12,0,0,0,2,1.22c1.6-3.7,3.16-7.33,4.74-11A10.74,10.74,0,0,0,48,123.15l-9.16,7.91a8.68,8.68,0,0,0,1.83,1.34c.88-.6,1.42-1.47,2.37-1.84A7.8,7.8,0,0,1,45,132Zm22.74.47c.72-1.65.55-2.86-.5-3.75-1.26-1.06-3.47-1.37-4.58-.64a3.4,3.4,0,0,0-.82,4.52,26.59,26.59,0,0,0,2,2.69c.9,1.21.76,2-.47,2.95a1.48,1.48,0,0,1-1.36-.51c-.63-.79-.05-1.67-.09-2.41a1.34,1.34,0,0,0-.89-.45c-.33-.08-.65-.33-1-.11-.93,2.11-.69,3.48.76,4.47,1.68,1.14,3.81,1.15,5,0a3.73,3.73,0,0,0,.21-4.9c-.5-.76-1.13-1.44-1.7-2.16a1.85,1.85,0,0,1-.39-2.23,1.2,1.2,0,0,1,1.78,0c.56.72.15,1.43.37,2.09A3.5,3.5,0,0,0,66.52,135.18Zm34.65-3.54a2.23,2.23,0,0,0-.52-1.29,2.75,2.75,0,0,0-3.56-1.26c-1.8.54-2.94,1.69-2.74,3.21a16.84,16.84,0,0,0,3.23,8,2.5,2.5,0,0,0,2.75.85c3.12-.75,4-2.64,2.47-5.63a2.88,2.88,0,0,0-1.86.77c.13.9.68,1.71.12,2.61a1.28,1.28,0,0,1-2.13-.48,27.09,27.09,0,0,1-2.37-5.8c-.32-1.22.16-1.64,1.56-1.66.69.26.76,1.09,1.36,1.43Zm18.56-110c-.82.61-.78,1.49-1,2.26,1.84,1.43,2.18,3.19,1.19,6-1.06-.47-1.69-1.54-2.74-2.06a3.5,3.5,0,0,0-.41,2c.22.55.92.7,1,1.4L112.08,38a5.12,5.12,0,0,0,.63,2.4l6.91-7.86,2.19,1.72a5.78,5.78,0,0,0,.29-2.18c-.34-.58-1-.77-1.24-1.49a32,32,0,0,0,.73-5.06C121.69,24,121.49,22.55,119.73,21.66Zm-1.56,95.22c1-.48,1.63.42,2.39.52a4.37,4.37,0,0,0,1.21-1.42c-1.62-1.7-3-1.91-4.53-.69-1.87,1.54-2.2,3.28-.8,5.07a20.32,20.32,0,0,0,5,4.67c1.75,1.11,3.19.74,4.67-1,1.14-1.34,1.08-2.77-.2-4.27a2.64,2.64,0,0,0-1-.94,4,4,0,0,0-1.31,1.52c.49.82,1.48,1.32,1.17,2.42a1.64,1.64,0,0,1-1.32.82,19.61,19.61,0,0,1-5.53-4.91A1.21,1.21,0,0,1,118.17,116.88Zm-17.7,11.05c1.89,3.55,3.72,7,5.61,10.55l5.45-2.91a2.58,2.58,0,0,0-.83-1.47l-3.38,1.76a17.26,17.26,0,0,1-1.68-3.15c.88-.9,2.15-1.07,3-1.88a1.91,1.91,0,0,0-.85-1.34l-3.06,1.57a15.07,15.07,0,0,1-1.34-2.66l3.33-1.86a2.29,2.29,0,0,0-.83-1.48ZM141.64,93.2a46.52,46.52,0,0,0,.94-6.15c-.63-.1-1.09-.39-1.64,0a36.3,36.3,0,0,1-.74,3.71c-1.22-.33-2.41-.2-3.44-.78-.06-1.19.51-2.25.31-3.41a2.61,2.61,0,0,0-1.42-.19c-.53,1.12-.23,2.39-.92,3.53-.83-.39-1.8-.13-2.58-.64-.23-1.33.48-2.54.27-3.79a1.91,1.91,0,0,0-1.51-.13,34.66,34.66,0,0,0-.92,6ZM66.37,143.56a56.54,56.54,0,0,0,6.06.78,1.73,1.73,0,0,0,.09-1.6c-1.16-.35-2.42-.21-3.61-.71a11.78,11.78,0,0,1,.54-3.43c1.19-.12,2.27.45,3.5.24,0-.47.35-.89.17-1.39-1.1-.58-2.37-.21-3.49-.83a8.1,8.1,0,0,1,.44-2.68c1.32-.23,2.54.4,3.8.26a1.91,1.91,0,0,0,.09-1.63c-1.93-.19-3.87-.74-6-.76C67.43,135.79,66.91,139.6,66.37,143.56ZM52.45,126,46.9,136.46l5.54,2.92c.42-.54.75-.92.68-1.5-1-.73-2.28-1.13-3.38-2L54.37,127A4.61,4.61,0,0,0,52.45,126Zm68.3-88.47a16.47,16.47,0,0,0-1.34,3.75,4.47,4.47,0,0,0,1,4.28,1.83,1.83,0,0,0,3.27-.59c.28-.63.46-1.31.75-2.14L127.26,46a4.58,4.58,0,0,0,1.43-1.37l-4.54-5.2c-.91,1.46-.25,3.22-1.7,4.07-2.08-.43-2.16-.93-.88-5.84C121.39,37.46,121.17,37.38,120.75,37.53Z"/><path class="cls-2" d="M44.38,46.07c-.83-.53-1.7-.31-2.47-.69-.71,1-.33,2.28-.93,3.27a2.16,2.16,0,0,1-1.68-.22,22.13,22.13,0,0,1,.68-4.3,25.56,25.56,0,0,1,5.37,1c11.36-10.25,24.79-14.7,40.12-12.53A46.32,46.32,0,0,1,116.08,50.2a48.22,48.22,0,1,1-71.7-4.13ZM55.5,74.18c2.28,4.87,6.49,4.29,10.68,4a17.49,17.49,0,0,1,2.15-5.16,50.2,50.2,0,0,0-5.47-5.35,4.83,4.83,0,0,0-3-.88c-.91,0-1.78.29-2.63.3a1.14,1.14,0,0,1,0-1,5.37,5.37,0,0,0-1.51-5.84c-2.74-2.58-5.34-5.32-8-8-.42-.41-.73-1-1.56-1.15a43.35,43.35,0,0,0-11.2,27,5.38,5.38,0,0,0,.81.15c4.65,0,9.3,0,14,0a6,6,0,0,0,4.19-2A19.92,19.92,0,0,0,55.5,74.18Zm44,19.35a2.63,2.63,0,0,1,.11.57q-.06.45-.15.9a5.16,5.16,0,0,0,1.63,5.22c2.78,2.54,5.35,5.3,8,8a4.09,4.09,0,0,0,1.47,1.21c7.06-7.13,11.46-19.3,11-27a1.78,1.78,0,0,0-1.17-.22l-13.17,0a4.81,4.81,0,0,0-3.3,1.38,22.33,22.33,0,0,0-2,2.72,6.65,6.65,0,0,0-4.69-4,36.3,36.3,0,0,0-6.61-.12,18.65,18.65,0,0,1-2.18,5.35C91.74,90.53,94,94.85,99.5,93.53ZM85.84,70.32c1.67-1.74,3.13-3.46,4.8-4.94,2.3-2,3.4-4.4,2.6-7.47,0-.06.1-.16.18-.29l1.31.27a4.59,4.59,0,0,0,4.82-1.46c1.46-1.69,3.13-3.2,4.75-4.76,1.13-1.08,2.32-2.11,3.62-3.29A43.51,43.51,0,0,0,80.6,36.85a3.52,3.52,0,0,0-.24,1.79c0,3.31.12,6.63,0,9.94s1,5.84,4.14,7.45c-.54.38-1,.68-1.44,1a5.84,5.84,0,0,0-2.59,4.15c-.15,2.23,0,4.48,0,6.77A21.9,21.9,0,0,1,85.84,70.32ZM84.37,103.6c-.06.13-.06.19-.09.22a3.17,3.17,0,0,1-.36.28,6.84,6.84,0,0,0-3.59,6.59c.12,3.66,0,7.34,0,11a3.32,3.32,0,0,0,.22,1.79c6.76,1.05,22.56-5.5,27-11.28-3.07-2.94-5.93-6.11-9.13-8.94-2-1.72-4.13-2.59-6.75-1.86a.57.57,0,0,1-.57-.19c-.17-.46.13-.87.19-1.31.21-1.66.21-3.38-.88-4.69-1.42-1.71-3.11-3.2-4.78-4.87a25.11,25.11,0,0,1-5.34,2.28c0,1.7,0,3.28,0,4.86a6.51,6.51,0,0,0,1.24,3.86A8.87,8.87,0,0,0,84.37,103.6ZM65.86,59.05c-.14.74-.28,1.33-.37,1.92a5.29,5.29,0,0,0,.67,4.13,40.57,40.57,0,0,0,5.11,5.13A17.6,17.6,0,0,1,76.46,68a46.34,46.34,0,0,1,0-4.73,6.38,6.38,0,0,0-3.8-7c-.07,0-.07-.17-.12-.3a7.31,7.31,0,0,0,3.93-7.34c-.16-3.31,0-6.64,0-10,0-.58.19-1.23-.39-1.8a43.35,43.35,0,0,0-27,11.4c2.62,2.6,5.12,5,7.6,7.54S61.93,60.14,65.86,59.05ZM35.06,82.44c-.35,8.2,5.63,22.43,11.32,27a6.68,6.68,0,0,0,.69-.53c2.31-2.3,4.6-4.63,6.92-6.91a7.57,7.57,0,0,0,2.36-7.36.51.51,0,0,1,.17-.6c.45.1.94.24,1.43.32,1.56.26,3.17.3,4.38-.78,2.09-1.86,4-3.9,6-5.89a21.18,21.18,0,0,1-2.26-5.42c-1.73,0-3.41,0-5.08,0a5.11,5.11,0,0,0-4.61,2.5c-.35.49-.64,1-1,1.6a5.2,5.2,0,0,1-.41-.53,6.69,6.69,0,0,0-6.43-3.58c-3.83.06-7.66,0-11.49,0A4.13,4.13,0,0,0,35.06,82.44Zm14,29.94a43.4,43.4,0,0,0,27.35,11.31v-2c0-3.62-.17-7.25,0-10.86.2-3.27-1-5.53-3.9-6.91-.06,0-.06-.16-.11-.36,5-2.27,3.94-6.71,3.91-10.94a19.59,19.59,0,0,1-5.22-2.25,62.47,62.47,0,0,0-6.11,6.31,5.48,5.48,0,0,0-.94,4.51c.09.48.39.95.14,1.47-.44.19-.79-.13-1.17-.18-2.29-.33-4.35-.1-6,1.84-.81,1-1.79,1.8-2.69,2.7ZM90.67,78.31h5.49a6.07,6.07,0,0,0,4.55-2.19A16.57,16.57,0,0,0,102,74.29a.63.63,0,0,1,.18.11c.09.12.18.24.26.37a6.83,6.83,0,0,0,6.45,3.58c3.68-.1,7.36,0,11,0a2.62,2.62,0,0,0,1.92-.37,43.21,43.21,0,0,0-11.4-27.06c-2.45,2.5-5,4.77-7.08,7.35-1.14,1.38-2.39,2.92-2.42,5,0,1,.44,2.05.3,3.15l-.7-.14a6.9,6.9,0,0,0-7.46,2.19c-.68.76-1.47,1.41-2.18,2.15a12.34,12.34,0,0,0-2.34,2.63A15.76,15.76,0,0,1,90.67,78.31Z"/><path class="cls-2" d="M34.38,33.78c.14.79-.49,1.17-.88,1.68a10.09,10.09,0,0,0-1.44,1.79c.59,1,1.78,1.37,2.34,2.45-.24,1.71-1.65,3-1.86,4.79a1.8,1.8,0,0,0,1.6,1.59,2.13,2.13,0,0,0,2-1.26,13,13,0,0,0,1.16-4,4.4,4.4,0,0,1,2,.35c.11,3.82-2,5.66-7.08,6.09a3.36,3.36,0,0,1-2.54,4.07,3.32,3.32,0,0,1-2.94-.22,22.21,22.21,0,0,0-3.41-1.88,21.72,21.72,0,0,0-1.79,3.65l9.69,4.54L29,58.65,20.77,54.9a11.79,11.79,0,0,0-2.31,5.25c1.88,1.25,4.8.72,5.59,3.56a28.12,28.12,0,0,0,4.18-1.62c.4.14.52.44.52,1A65.67,65.67,0,0,1,20.66,66c-1-1.19.16-1.63.43-2.41-.95-.81-2.19-.8-3.37-1.26l-1.2,3.45-2.1.45c.29-1.45.83-2.65,1.18-3.91,1-3.73,2.82-7.15,4.26-10.71,1.22-3,3.12-5.7,4.58-8.61.79-1.59,2.33-2.82,3.53-4.2l4.29-4.93c.75-.31,1.45.28,2.15,0Zm-4,5.25c-2.17,2.51-4.6,4.83-5.88,8.26a50.31,50.31,0,0,0,5.79-1.91c-.84-2.11,1.06-3.41,1.38-5.08A2.53,2.53,0,0,0,30.41,39Zm-.78,11c.92-1.16.64-2.21.32-3.41L26,48A16.46,16.46,0,0,0,29.63,50.08Z"/><path class="cls-2" d="M138.82,62.31c-.49-1.44.13-3-1.25-4.2l-9.44,4.37a6.2,6.2,0,0,1,.43-2.57l4.32-2a12.08,12.08,0,0,0-1.18-2.67c-.72-.25-1.11.37-1.65.21-.81-1.32.18-3.36,2-4,1.15,1.65,1.67,3.66,2.73,5.38a3.62,3.62,0,0,0,1.94-.93c-1.47-3.06-2.56-6.35-4.88-9.15l-8.73,5.84V50.08L130.63,45c-2-4.09-5.64-6.85-8.21-10.44a5.67,5.67,0,0,1,.63-1.87c.53.08.73.54,1,.86,2.5,2.84,5.06,5.62,7.41,8.57,1.11,1.4,1.75,3.16,2.81,4.63.23.32-.07.69,0,1,.29.2.41-.29.7-.14a64.87,64.87,0,0,1,6.79,17.91c-.21.23-.5.58-.81.92-.13.14-.29.25-.45.4-.68-.63-.48-1.6-1.14-2.33-3.29.69-6.47,2.07-9.94,2.84a7.17,7.17,0,0,1,.71-2.28Z"/><path class="cls-2" d="M131.48,94.5l8.21,4.87c.21.56-.11.86-.27,1.28-3.28-.13-6.5-.71-9.77-.68,3,.84,6,1.92,8.92,2.85a5.39,5.39,0,0,1-.52,2.16l-9.72-3.14-1.76,3.43a7.37,7.37,0,0,0,2.59,1.54l1.64-3.1a2.32,2.32,0,0,1,1.48.72l-1.45,3.1a13.57,13.57,0,0,0,3.19,1.74l1.84-3.44a4.42,4.42,0,0,1,1.51.72l-2.81,5.54L124,106.72c1.1-3,3.11-5.48,3.67-8.72,2.57,0,5,.49,7.69.66l-6.49-3.73A14.83,14.83,0,0,1,130,91.51l11.07,3.66a5.9,5.9,0,0,1-.52,2.16c-2.6-.86-5-1.69-7.52-2.49-.5-.16-1-.62-1.58-.31.05-.09.2-.2,0-.26Z"/><path class="cls-2" d="M92.16,18.75c-1.48-.59-2.7-1.38-4.35-.93-.24,3.36-.48,6.75-.72,10.26a5.17,5.17,0,0,1-2-1.28c-.35-.7.21-1.33-.19-1.89-4,1-5.7.5-6.84-2.05A2.94,2.94,0,0,1,79,19.05c1.83-1.29,4-.86,6.17,1.3a7,7,0,0,0,.39-2.77c-2.84-.51-5.69-.46-8.56-.79a5,5,0,0,1-1.06-2l12.88.94c.42.07.49.6.88.63a37.46,37.46,0,0,1,6.48,1.08A5.56,5.56,0,0,1,97,19.55l-2.65-.47c-.74,3.41-1.48,6.76-2.23,10.19a6.06,6.06,0,0,1-1.72-1.7C90.94,24.69,91.54,21.76,92.16,18.75Zm-6.8,3.31a4.23,4.23,0,0,0-3.44-1.66A2.08,2.08,0,0,0,79.8,22c-.38,1.21.37,2.1,1.6,1.81A9.47,9.47,0,0,0,85.36,22.06Z"/><path class="cls-2" d="M69.2,17c-.07-.46-.58-.72-.55-1.3l4.28-.42c-1.71-1.65-2.32-4.26-5.29-3.64a6.34,6.34,0,0,1-1.12-2,2.54,2.54,0,0,1,3.48.52A29.2,29.2,0,0,1,73.61,15c.44.43,1,.09,1.44.3a3.17,3.17,0,0,1,1,1.6c-.71.53-1.61,0-2.51.54l.63,10.3a5.42,5.42,0,0,1-2.1-1.22l-.33-3.3c-.9.36-1.66.74-2.46,1A3.08,3.08,0,0,1,67,23.64l-1.27,1.91a18.06,18.06,0,0,0,3.61,2.77c.1.52-.28.71-.65,1.1-2.15-2.15-4.92-3.53-6.46-6.07.37-1.44,1.32-.78,2.13-.79,0-1.25-.54-2.3-.67-3.45-1.25-.13-2.27.52-3.38.54a4.7,4.7,0,0,1-1.39-1.56c2.86-.86,5.73-1.45,8.58-2.07L69,17.2c.11.5-.24.55-.59.67a7.56,7.56,0,0,0-2.53.79,27.55,27.55,0,0,0,1,3.75c2,.45,3.25-.93,4.86-1.56l-.28-3.26C70.6,17.35,69.72,17.8,69.2,17Z"/><path class="cls-2" d="M116,26.55v2.12c-.76-.06-1.21-.66-2-.82L108.84,37a9.08,9.08,0,0,1-1.22-2.09c.06-.76.73-1.17.83-2-1.67-.12-3.39-.22-4.29-2a6.87,6.87,0,0,1-.27-5.19c1.14-.26,2.15.53,3.21.15a1.71,1.71,0,0,0,.54-1.59c-.9-.81-2.11-1.17-3.11-1.9a8.45,8.45,0,0,1-.21-2.34Zm-7-1.45c-.61,1-.14,2.4-1.06,3.27-1,.35-2-.6-3-.06-.37,1-.41,1.1,0,1.48,1.48,1.22,3.2.94,4.89.82L112,26.79A12.08,12.08,0,0,0,109,25.1Z"/><path class="cls-2" d="M51.05,21.09l1.71,1.13c-.44.72-1.28.68-1.71,1.41l4.8,9.1a6.3,6.3,0,0,1-2.35,0c-.64-.45-.6-1.27-1.18-1.66-3.15,3.26-6,3.15-8.53-.38.57-.84,1.56-1.43,1.88-2.44a1.61,1.61,0,0,0-1.2-1.31L41.3,28.51a6.61,6.61,0,0,1-2-1.16Zm-2.92,7.47a1.92,1.92,0,0,1-.73,1.35c-.36.41-.88.72-.89,1.36.67,1,1.21,1.13,2.18.38a7.78,7.78,0,0,0,2.37-3.25l-2-3.87a21.59,21.59,0,0,0-3.18,1.66C46.61,27.15,47.68,27.59,48.13,28.56Z"/><path class="cls-2" d="M90.45,133.69c-.24,3.3-.49,6.6-.75,9.95a10.2,10.2,0,0,1-2.94.39l-4.17-11.1c.67-.6,1.39-.47,2.26-.49,1,3,2,6,3,9h.22V132l4-1c1.39,3.69,2.25,7.47,3.54,11.12-.54.63-1.31.44-1.94,1C92.42,139.87,91.8,136.67,90.45,133.69Z"/><path class="cls-2" d="M26.15,87.54a4.75,4.75,0,0,1,.59,2.26c-2.29,1.62-4.64,3.26-7.08,4.81,2.58-.63,5.1-1.41,7.73-1.81A6.28,6.28,0,0,1,28,94.87L16.46,97.51A5.35,5.35,0,0,1,16,95.18l6.67-4.6c-2.47.54-4.9,1.22-7.44,1.68a5.06,5.06,0,0,1-.42-2.11Z"/><path class="cls-2" d="M37.74,130.43a7.19,7.19,0,0,1-1.61-1.6c.84-2.54,1.95-5,3-7.61-1.78,1.74-3.3,3.72-5.21,5.4a3.88,3.88,0,0,1-1.56-1.46l8.14-8.42a4.91,4.91,0,0,1,1.7,1.6c-1,2.52-2,5.06-3.11,7.59,1.81-1.78,3.36-3.76,5.27-5.47A3.54,3.54,0,0,1,45.88,122Z"/><path class="cls-2" d="M74.79,132.74h4.14c1.39,0,2.75.12,3.29,1.65a3.19,3.19,0,0,1-1,4c2.19,1.59.85,4.11,1.86,6a6.35,6.35,0,0,1-2.27.19c-.68-1.53-.1-3.24-.91-4.6a3.36,3.36,0,0,0-2.57-.24v4.86a5.2,5.2,0,0,1-2.11.12C75,140.8,74.76,137,74.79,132.74Zm4.9,2a4.06,4.06,0,0,0-2.71,0l.14,2.95c1,.15,2,.36,2.63-.43S80.2,135.68,79.69,134.74Z"/><path class="cls-2" d="M39.1,115.44a3.75,3.75,0,0,1-1.1,2.68,24.49,24.49,0,0,1-5.22,3.95c-1.88,1.05-3.31.67-4.66-1.1-1.49-2-1.49-3.18.15-4.85a20.42,20.42,0,0,1,5.4-4A3.77,3.77,0,0,1,39.1,115.44Zm-2.14,0a1.58,1.58,0,0,0-.67-1.31,1.54,1.54,0,0,0-1.87.1c-1.49,1.07-3,2.17-4.39,3.32a1.56,1.56,0,0,0-.47,2.28,1.5,1.5,0,0,0,2.3.24c1.42-1,2.8-2,4.16-3.11A2.34,2.34,0,0,0,37,115.39Z"/><path class="cls-2" d="M133.36,113.79a4.71,4.71,0,0,1-1.18,1.78c-1.61-.75-2.82-2.14-4.55-2.89-.54.77-1.06,1.51-1.64,2.32,1.32,1.27,2.94,2.06,4.28,3.26A4.61,4.61,0,0,1,129,120l-9.52-6.65a3.3,3.3,0,0,1,1.2-1.87L124.4,114a17,17,0,0,0,1.87-2.43l-3.69-2.68a4,4,0,0,1,1.15-1.87Z"/><path class="cls-2" d="M34.41,33.82c.1-.59-.76-.28-.72-.89.49-.73,1.42-1.16,2-1.89a3,3,0,0,0-3.83-1.36c-1.13.64-1.19,1.48-.25,3.11a1.39,1.39,0,0,1-.82.84c-1.55-.46-2.21-1.17-2.18-2.32a3.58,3.58,0,0,1,2.75-3.11,4.63,4.63,0,0,1,3.49.74c.61.37,1.18.8,1.75,1.19.75-.22,1.15-.9,1.94-1.23l1.86.58c-.44.9-1.35,1.2-1.85,2.06l6.69,8a8.47,8.47,0,0,1-2.45.32L37,33c-.66,0-.89.54-1.31.72s-.87-.31-1.29.06Z"/><path class="cls-2" d="M113.67,129.3a5.54,5.54,0,0,1,1.43-1.25c.56.12.71.71,1.13,1a1.4,1.4,0,0,0,1.57.2,1.2,1.2,0,0,0,.72-1.24,1.6,1.6,0,0,0-1-1.29,3,3,0,0,0-1.51-.16c-.87,0-1.73.14-2.6.14-2,0-3.42-1-3.75-2.69-.28-1.4.82-3,2.54-3.78,1.48-.64,2.72-.19,3.92,1.43-.25.59-.84.84-1.33,1.26-.69-.16-1-1-2.16-.84a1.11,1.11,0,0,0-.74,1.48c.21.76.86,1,1.58.92.91-.06,1.83-.18,2.74-.22a3.94,3.94,0,0,1,3,.74,3.32,3.32,0,0,1,1.27,3.53,4.78,4.78,0,0,1-3.61,3C115.68,131.64,114.68,131,113.67,129.3Z"/><path class="cls-2" d="M28.52,101.45l-9,5.2a3.91,3.91,0,0,1-.81-2c.69-.73,1.7-1,2.45-1.62a6,6,0,0,0-.69-2.29c-1-.35-1.94.26-3,.05a4.91,4.91,0,0,1-.67-2.13l12.05-1a9.82,9.82,0,0,1,.88,2.53c0,.54-.54.59-.64,1l0,0a.65.65,0,0,0-.66.33Zm-1.13-1.71-5,.59a3,3,0,0,0,.7,1.73Z"/><path class="cls-2" d="M43.78,134.71,45,132a7.8,7.8,0,0,0-1.94-1.48c-1,.37-1.49,1.24-2.37,1.84a8.68,8.68,0,0,1-1.83-1.34L48,123.15A10.74,10.74,0,0,1,50.52,125c-1.58,3.64-3.14,7.27-4.74,11A6.12,6.12,0,0,1,43.78,134.71Zm3.73-8.42a19.89,19.89,0,0,0-3.09,2.86,2.32,2.32,0,0,0,1.5.91c.51-1.26,1.53-2.32,1.57-3.8.17.11.24.07.21-.14Z"/><path class="cls-2" d="M66.52,135.18a3.5,3.5,0,0,1-1.7-.44c-.22-.66.19-1.37-.37-2.09a1.2,1.2,0,0,0-1.78,0,1.85,1.85,0,0,0,.39,2.23c.57.72,1.2,1.4,1.7,2.16a3.73,3.73,0,0,1-.21,4.9c-1.17,1.12-3.3,1.11-5,0-1.45-1-1.69-2.36-.76-4.47.37-.22.69,0,1,.11a1.34,1.34,0,0,1,.89.45c0,.74-.54,1.62.09,2.41a1.48,1.48,0,0,0,1.36.51c1.23-.95,1.37-1.74.47-2.95a26.59,26.59,0,0,1-2-2.69,3.4,3.4,0,0,1,.82-4.52c1.11-.73,3.32-.42,4.58.64C67.07,132.32,67.24,133.53,66.52,135.18Z"/><path class="cls-2" d="M101.17,131.64l-1.69.74c-.6-.34-.67-1.17-1.36-1.43-1.4,0-1.88.44-1.56,1.66a27.09,27.09,0,0,0,2.37,5.8,1.28,1.28,0,0,0,2.13.48c.56-.9,0-1.71-.12-2.61a2.88,2.88,0,0,1,1.86-.77c1.5,3,.65,4.88-2.47,5.63a2.5,2.5,0,0,1-2.75-.85,16.84,16.84,0,0,1-3.23-8c-.2-1.52.94-2.67,2.74-3.21a2.75,2.75,0,0,1,3.56,1.26A2.23,2.23,0,0,1,101.17,131.64Z"/><path class="cls-2" d="M119.73,21.66c1.76.89,2,2.33,1.86,3.86a32,32,0,0,1-.73,5.06c.19.72.9.91,1.24,1.49a5.78,5.78,0,0,1-.29,2.18l-2.19-1.72-6.91,7.86a5.12,5.12,0,0,1-.63-2.4l5.77-6.74c-.11-.7-.81-.85-1-1.4a3.5,3.5,0,0,1,.41-2c1,.52,1.68,1.59,2.74,2.06,1-2.83.65-4.59-1.19-6C119,23.15,118.91,22.27,119.73,21.66Z"/><path class="cls-2" d="M118.17,116.88a1.21,1.21,0,0,0-.26,1.76,19.61,19.61,0,0,0,5.53,4.91,1.64,1.64,0,0,0,1.32-.82c.31-1.1-.68-1.6-1.17-2.42a4,4,0,0,1,1.31-1.52,2.64,2.64,0,0,1,1,.94c1.28,1.5,1.34,2.93.2,4.27-1.48,1.77-2.92,2.14-4.67,1a20.32,20.32,0,0,1-5-4.67c-1.4-1.79-1.07-3.53.8-5.07,1.48-1.22,2.91-1,4.53.69a4.37,4.37,0,0,1-1.21,1.42C119.8,117.3,119.22,116.4,118.17,116.88Z"/><path class="cls-2" d="M100.47,127.93l5.4-2.87a2.29,2.29,0,0,1,.83,1.48l-3.33,1.86a15.07,15.07,0,0,0,1.34,2.66l3.06-1.57a1.91,1.91,0,0,1,.85,1.34c-.83.81-2.1,1-3,1.88a17.26,17.26,0,0,0,1.68,3.15l3.38-1.76a2.58,2.58,0,0,1,.83,1.47l-5.45,2.91C104.19,134.91,102.36,131.48,100.47,127.93Z"/><path class="cls-2" d="M141.64,93.2,130,91.34a34.66,34.66,0,0,1,.92-6,1.91,1.91,0,0,1,1.51.13c.21,1.25-.5,2.46-.27,3.79.78.51,1.75.25,2.58.64.69-1.14.39-2.41.92-3.53a2.61,2.61,0,0,1,1.42.19c.2,1.16-.37,2.22-.31,3.41,1,.58,2.22.45,3.44.78a36.3,36.3,0,0,0,.74-3.71c.55-.38,1-.09,1.64,0A46.52,46.52,0,0,1,141.64,93.2Z"/><path class="cls-2" d="M66.37,143.56c.54-4,1.06-7.77,1.61-11.75,2.11,0,4,.57,6,.76a1.91,1.91,0,0,1-.09,1.63c-1.26.14-2.48-.49-3.8-.26a8.1,8.1,0,0,0-.44,2.68c1.12.62,2.39.25,3.49.83.18.5-.19.92-.17,1.39-1.23.21-2.31-.36-3.5-.24a11.78,11.78,0,0,0-.54,3.43c1.19.5,2.45.36,3.61.71a1.73,1.73,0,0,1-.09,1.6A56.54,56.54,0,0,1,66.37,143.56Z"/><path class="cls-2" d="M29.11,101.18H30c1.17,1.89,2,3.95,3.1,5.9.18.34,0,.57,0,.85l0,0c-.29,0-.55,0-.66.33l0,0a.84.84,0,0,1-1.08-.56,3.43,3.43,0,0,0-.94-1.43l-8.74,4.41c-.67-.37-.72-1.1-1.18-1.83l8.93-4.62c-.12-1-.95-1.74-1-2.71l0,0c.35.14.63.15.66-.33Z"/><path class="cls-2" d="M52.45,126a4.61,4.61,0,0,1,1.92,1l-4.63,8.81c1.1.91,2.34,1.31,3.38,2,.07.58-.26,1-.68,1.5l-5.54-2.92Z"/><path class="cls-2" d="M120.75,37.53c.42-.15.64-.07.82.13-1.28,4.91-1.2,5.41.88,5.84,1.45-.85.79-2.61,1.7-4.07l4.54,5.2A4.58,4.58,0,0,1,127.26,46l-2.84-3.17c-.29.83-.47,1.51-.75,2.14a1.83,1.83,0,0,1-3.27.59,4.47,4.47,0,0,1-1-4.28A16.47,16.47,0,0,1,120.75,37.53Z"/><path class="cls-2" d="M33.1,107.93c1.2-.12,1.27.91,1.8,1.74L25,115.89a4.25,4.25,0,0,1-1.28-1.82c2.57-1.62,5.16-3.22,7.71-4.87.41-.26,1.08-.31,1.1-1l0,0c.4.24.56,0,.66-.33Z"/><path class="cls-3" d="M55.5,74.18a19.92,19.92,0,0,1-1.6,2.16,6,6,0,0,1-4.19,2c-4.65,0-9.3,0-14,0a5.38,5.38,0,0,1-.81-.15,43.35,43.35,0,0,1,11.2-27c.83.15,1.14.74,1.56,1.15,2.67,2.65,5.27,5.39,8,8a5.37,5.37,0,0,1,1.51,5.84,1.14,1.14,0,0,0,0,1c.85,0,1.72-.32,2.63-.3a4.83,4.83,0,0,1,3,.88,50.2,50.2,0,0,1,5.47,5.35,17.49,17.49,0,0,0-2.15,5.16C62,78.47,57.78,79.05,55.5,74.18Z"/><path class="cls-3" d="M99.5,93.53c-5.46,1.32-7.76-3-11-5.94a18.65,18.65,0,0,0,2.18-5.35,36.3,36.3,0,0,1,6.61.12,6.65,6.65,0,0,1,4.69,4,22.33,22.33,0,0,1,2-2.72,4.81,4.81,0,0,1,3.3-1.38l13.17,0a1.78,1.78,0,0,1,1.17.22c.42,7.66-4,19.83-11,27a4.09,4.09,0,0,1-1.47-1.21c-2.67-2.66-5.24-5.42-8-8A5.16,5.16,0,0,1,99.46,95q.09-.45.15-.9A2.63,2.63,0,0,0,99.5,93.53Z"/><path class="cls-3" d="M85.84,70.32A21.9,21.9,0,0,0,80.41,68c0-2.29-.12-4.54,0-6.77A5.84,5.84,0,0,1,83,57.05c.44-.34.9-.64,1.44-1-3.1-1.61-4.29-4.1-4.14-7.45s0-6.63,0-9.94a3.52,3.52,0,0,1,.24-1.79,43.51,43.51,0,0,1,27.32,11.53c-1.3,1.18-2.49,2.21-3.62,3.29-1.62,1.56-3.29,3.07-4.75,4.76a4.59,4.59,0,0,1-4.82,1.46l-1.31-.27c-.08.13-.2.23-.18.29.8,3.07-.3,5.42-2.6,7.47C89,66.86,87.51,68.58,85.84,70.32Z"/><path class="cls-3" d="M84.37,103.6a8.87,8.87,0,0,1-2.78-2.25,6.51,6.51,0,0,1-1.24-3.86c.05-1.58,0-3.16,0-4.86a25.11,25.11,0,0,0,5.34-2.28c1.67,1.67,3.36,3.16,4.78,4.87,1.09,1.31,1.09,3,.88,4.69-.06.44-.36.85-.19,1.31a.57.57,0,0,0,.57.19c2.62-.73,4.79.14,6.75,1.86,3.2,2.83,6.06,6,9.13,8.94-4.48,5.78-20.28,12.33-27,11.28a3.32,3.32,0,0,1-.22-1.79c0-3.67.09-7.35,0-11a6.84,6.84,0,0,1,3.59-6.59,3.17,3.17,0,0,0,.36-.28S84.31,103.73,84.37,103.6Z"/><path class="cls-3" d="M65.86,59.05c-3.93,1.09-6.69-.74-9.2-3.26s-5-4.94-7.6-7.54a43.35,43.35,0,0,1,27-11.4c.58.57.39,1.22.39,1.8,0,3.32-.11,6.65,0,10A7.31,7.31,0,0,1,72.57,56c.05.13.05.27.12.3a6.38,6.38,0,0,1,3.8,7,46.34,46.34,0,0,0,0,4.73,17.6,17.6,0,0,0-5.19,2.27,40.57,40.57,0,0,1-5.11-5.13A5.29,5.29,0,0,1,65.49,61C65.58,60.38,65.72,59.79,65.86,59.05Z"/><path class="cls-3" d="M35.06,82.44a4.13,4.13,0,0,1,2-.23c3.83,0,7.66.05,11.49,0A6.69,6.69,0,0,1,55,85.78a5.2,5.2,0,0,0,.41.53c.37-.58.66-1.11,1-1.6A5.11,5.11,0,0,1,61,82.21c1.67.05,3.35,0,5.08,0a21.18,21.18,0,0,0,2.26,5.42c-2,2-4,4-6,5.89-1.21,1.08-2.82,1-4.38.78-.49-.08-1-.22-1.43-.32a.51.51,0,0,0-.17.6A7.57,7.57,0,0,1,54,102c-2.32,2.28-4.61,4.61-6.92,6.91a6.68,6.68,0,0,1-.69.53C40.69,104.87,34.71,90.64,35.06,82.44Z"/><path class="cls-3" d="M49.11,112.38l5.33-5.4c.9-.9,1.88-1.73,2.69-2.7,1.62-1.94,3.68-2.17,6-1.84.38,0,.73.37,1.17.18.25-.52,0-1-.14-1.47a5.48,5.48,0,0,1,.94-4.51,62.47,62.47,0,0,1,6.11-6.31,19.59,19.59,0,0,0,5.22,2.25c0,4.23,1,8.67-3.91,10.94.05.2.05.34.11.36,2.94,1.38,4.1,3.64,3.9,6.91-.21,3.61,0,7.24,0,10.86v2A43.4,43.4,0,0,1,49.11,112.38Z"/><path class="cls-3" d="M90.67,78.31a15.76,15.76,0,0,0-2.12-5.12,12.34,12.34,0,0,1,2.34-2.63c.71-.74,1.5-1.39,2.18-2.15a6.9,6.9,0,0,1,7.46-2.19l.7.14c.14-1.1-.31-2.11-.3-3.15,0-2.06,1.28-3.6,2.42-5,2.12-2.58,4.63-4.85,7.08-7.35a43.21,43.21,0,0,1,11.4,27.06,2.62,2.62,0,0,1-1.92.37c-3.68,0-7.36-.06-11,0a6.83,6.83,0,0,1-6.45-3.58c-.08-.13-.17-.25-.26-.37a.63.63,0,0,0-.18-.11,16.57,16.57,0,0,1-1.27,1.83,6.07,6.07,0,0,1-4.55,2.19Z"/><path class="cls-4" d="M30.41,39A2.53,2.53,0,0,1,31.7,40.3c-.32,1.67-2.22,3-1.38,5.08a50.31,50.31,0,0,1-5.79,1.91C25.81,43.86,28.24,41.54,30.41,39Z"/><path class="cls-4" d="M29.63,50.08A16.46,16.46,0,0,1,26,48l4-1.31C30.27,47.87,30.55,48.92,29.63,50.08Z"/><path class="cls-4" d="M131.48,94.5l-.08-.23c.24.06.09.17,0,.26Z"/><path class="cls-4" d="M85.36,22.06a9.47,9.47,0,0,1-4,1.79c-1.23.29-2-.6-1.6-1.81a2.08,2.08,0,0,1,2.12-1.64A4.23,4.23,0,0,1,85.36,22.06Z"/><path class="cls-4" d="M69.2,17c.52.8,1.4.35,2.2.59l.28,3.26c-1.61.63-2.91,2-4.86,1.56a27.55,27.55,0,0,1-1-3.75,7.56,7.56,0,0,1,2.53-.79c.35-.12.7-.17.59-.67Z"/><path class="cls-4" d="M109,25.1a12.08,12.08,0,0,1,3,1.69l-2.13,3.82c-1.69.12-3.41.4-4.89-.82-.45-.38-.41-.48,0-1.48,1-.54,2,.41,3,.06C108.89,27.5,108.42,26.15,109,25.1Z"/><path class="cls-4" d="M48.13,28.56c-.45-1-1.52-1.41-2.29-2.37A21.59,21.59,0,0,1,49,24.53l2,3.87a7.78,7.78,0,0,1-2.37,3.25c-1,.75-1.51.62-2.18-.38,0-.64.53-.95.89-1.36A1.92,1.92,0,0,0,48.13,28.56Z"/><path class="cls-4" d="M79.69,134.74c.51.94.68,1.81.06,2.53s-1.62.58-2.63.43L77,134.75A4.06,4.06,0,0,1,79.69,134.74Z"/><path class="cls-4" d="M37,115.39a2.34,2.34,0,0,1-.94,1.52C34.66,118,33.28,119,31.86,120a1.5,1.5,0,0,1-2.3-.24A1.56,1.56,0,0,1,30,117.5c1.44-1.15,2.9-2.25,4.39-3.32a1.54,1.54,0,0,1,1.87-.1A1.58,1.58,0,0,1,37,115.39Z"/><path class="cls-4" d="M27.39,99.74l-4.32,2.32a3,3,0,0,1-.7-1.73Z"/><path class="cls-4" d="M29.15,101.16c0,.48-.31.47-.66.33A.65.65,0,0,1,29.15,101.16Z"/><path class="cls-4" d="M47.49,126.26c0,1.48-1.06,2.54-1.57,3.8a2.32,2.32,0,0,1-1.5-.91,19.89,19.89,0,0,1,3.09-2.86Z"/><path class="cls-4" d="M47.51,126.29l.19-.17c0,.21,0,.25-.21.14Z"/><path class="cls-4" d="M33.14,107.9c-.1.35-.26.57-.66.33C32.59,107.9,32.85,107.86,33.14,107.9Z"/><ellipse class="cls-5" cx="270.13" cy="83.24" rx="77.49" ry="77.5"/><path class="cls-6" d="M348.14,82.81A78.34,78.34,0,1,1,270,4.46,78.35,78.35,0,0,1,348.14,82.81ZM269.76,7C228,6.86,194,41,194,82.71a75.84,75.84,0,1,0,151.67.08C345.64,41,311.56,6.81,269.76,7Z"/><path class="cls-6" d="M325.3,82.78c.42,30.42-25.11,55.64-55.56,55.61s-55.6-25.23-55.52-55.74c.07-30.32,25.24-55.56,55.81-55.44C300.27,27.32,325.69,52.4,325.3,82.78Zm-65.16-52a6.48,6.48,0,0,0-3.09.45,52.91,52.91,0,0,0-21.49,11,3,3,0,0,0-1.14,1.24c5.55-1.35,10.91-.72,16.25.35.19-.35.32-.58.44-.82s.24-.49.33-.69c-1.4-3.15-.26-5.07,3.3-5.58,1-1.15,1.89-2.39,2.94-3.54a18,18,0,0,0,2.43-2.43l.32-.17C260.22,30.51,260.07,30.47,260.14,30.74Zm0,104.11c-.05.25.05.28.24.17l-.27-.14c-.07-.44-.47-.59-.75-.84a33.52,33.52,0,0,1-7.06-9.16c-.55-1-1.08-2-1.64-3.07l-4,.75c-2,2.75-3.93,2.84-6.38.33a26.93,26.93,0,0,1-5.88-.67,4.84,4.84,0,0,0,.46.54,52.48,52.48,0,0,0,19.85,11A15.8,15.8,0,0,0,260.14,134.85Zm19.33,0a7.45,7.45,0,0,0,3.24-.5,53.29,53.29,0,0,0,21-10.63c.25-.21.5-.44.74-.66a1.82,1.82,0,0,0,.72-.9c-5.55,1.36-10.91.7-16.26-.34l-.8,1.59a40,40,0,0,1-6.18,9,17.06,17.06,0,0,0-2.43,2.45l-.27.14C279.42,135.13,279.52,135.11,279.47,134.85Zm0-104.11c0-.25-.05-.28-.25-.16l.27.14c.08.43.48.58.75.83a33.4,33.4,0,0,1,7.07,9.17c.55,1,1.08,2,1.64,3.07,5.42-1.13,10.77-1.66,16.24-.55-.15-.3-.41-.42-.61-.6a52.56,52.56,0,0,0-19.64-10.79A15.7,15.7,0,0,0,279.47,30.74Zm-9.67,80.94a113.47,113.47,0,0,0,23.61-17.3,111,111,0,0,0,0-23.2,113.34,113.34,0,0,0-23.61-17.26,113.51,113.51,0,0,0-23.56,17.25,102.71,102.71,0,0,0,0,23.25A113.62,113.62,0,0,0,269.8,111.68Zm-35.54-31A119.24,119.24,0,0,1,243.78,70a91.71,91.71,0,0,1,5.79-23.7,3.32,3.32,0,0,0-1.61-.58c-1.2-.24-2.42-.3-3.63-.45a24.57,24.57,0,0,0-9.24.49c-6.27,1.57-9.74,6-9.74,12.35a27.48,27.48,0,0,0,1.75,9.24A56.36,56.36,0,0,0,234.26,80.68ZM290,46.35a91.28,91.28,0,0,1,5.79,23.71,120.45,120.45,0,0,1,9.54,10.59,56.06,56.06,0,0,0,7.14-13.26,26.16,26.16,0,0,0,1.72-10.24,11.61,11.61,0,0,0-8-10.8c-4.42-1.61-8.93-1.43-13.46-.75C291.89,45.73,290.88,45.6,290,46.35Zm5.77,49.2A91.18,91.18,0,0,1,290,119.33a4.6,4.6,0,0,0,1.52.48c1.43.17,2.85.44,4.28.56a23.22,23.22,0,0,0,10.81-1.26,11.25,11.25,0,0,0,7.28-8.43,19.71,19.71,0,0,0-.24-8.58A21.13,21.13,0,0,0,312,97a3.47,3.47,0,0,1-2.73-1.78,3.75,3.75,0,0,1,.26-3.69A56.5,56.5,0,0,0,305.33,85,119.75,119.75,0,0,1,295.8,95.55Zm-52,0a124.85,124.85,0,0,1-9.55-10.59,57.48,57.48,0,0,0-7.14,13.3A24.93,24.93,0,0,0,225.43,109a11.28,11.28,0,0,0,5.41,9.06,18.68,18.68,0,0,0,9.27,2.44,3.44,3.44,0,0,1,3.1-2.39c1.62-.13,2.52.89,3.41,1.92,1-.28,2.07,0,2.95-.77A91.66,91.66,0,0,1,243.78,95.53Zm26,18.94a85.64,85.64,0,0,1-16.7,6.75c.73,1.31,1.34,2.49,2,3.63a27,27,0,0,0,7.47,8.61,11.87,11.87,0,0,0,14.4,0c4.37-3.1,7.06-7.5,9.47-12.27A84.84,84.84,0,0,1,269.8,114.47Zm0-63.35a85.58,85.58,0,0,1,16.68-6.75c-.72-1.3-1.33-2.48-2-3.63A27.24,27.24,0,0,0,277,32.13a11.58,11.58,0,0,0-10.55-1.92c-4.22,1.32-7.1,4.35-9.54,7.79,1.35,3.07.07,5.37-3.37,5.61,0,.25-.36.41-.21.85a80.63,80.63,0,0,1,8.22,2.82C264.33,48.41,267,49.69,269.82,51.12Zm-47.14,7.37a52.82,52.82,0,0,0-6,24.35c-.11,9.76,3.61,20.92,6.11,24.23.51-9.28,4.83-16.95,9.89-24.28C227.57,75.4,223.3,67.72,222.68,58.49Zm94.13,48.95c8.8-16.33,7.3-36.54,0-49-.47,9.38-4.81,17-9.9,24.44,1.81,2.39,3.29,5,4.82,7.46,3.24-.08,5.11,3,2.73,6A34.15,34.15,0,0,1,316.81,107.44ZM246.66,67.38a119.41,119.41,0,0,1,20.49-14.82,73,73,0,0,0-15-5.85A82.74,82.74,0,0,0,246.66,67.38Zm40.79-20.59c-3.23.52-12.27,4.1-14.92,5.83a118.6,118.6,0,0,1,20.28,14.62C292.47,62.19,289.87,51.68,287.45,46.79Zm0,72.11a80.89,80.89,0,0,0,5.46-20.69A119.65,119.65,0,0,1,272.47,113,74.42,74.42,0,0,0,287.48,118.9ZM267.15,113a119.18,119.18,0,0,1-20.5-14.81,82.15,82.15,0,0,0,5.47,20.69A75.09,75.09,0,0,0,267.15,113ZM243.5,91.47a100.08,100.08,0,0,1,0-17.57,85.65,85.65,0,0,0-7.69,8.92,90,90,0,0,0,6.4,7.53A4,4,0,0,0,243.5,91.47Zm52.61.18a80.08,80.08,0,0,0,7.71-8.86A77.68,77.68,0,0,0,296.09,74,99.54,99.54,0,0,1,296.11,91.65Z"/><path class="cls-6" d="M301,21l.28-.92c2.44,1.16,4.6,2.64,6.85,3.85.1,1.08-.67.72-1.19.87-.56,1-1.09,2-1.73,3s-.92,2.12-2,3a1.93,1.93,0,0,1-.88,2.37,2.6,2.6,0,0,1-2.82-.23,6.08,6.08,0,0,1-2.39-3.26,1.28,1.28,0,0,1,1.16-.46,5,5,0,0,0,1.55,2.59c.86.65,1.37.59,2.24-.3-.15-.82-.94-.81-1.46-1.06a.89.89,0,0,1-.12-.83c.63-.36,1.17.14,1.85.21a29.62,29.62,0,0,0,2.24-3.83,9,9,0,0,0-3.17-1.63c-.75,1.33-.2,2.64-.19,3.95-.2.3-.53.29-.94.22a7.09,7.09,0,0,1-.31-4.62,5.67,5.67,0,0,0-1.58-.78c-.61.13-.46.92-1,1.06a2.25,2.25,0,0,1-.77-2.92,2.56,2.56,0,0,1,1.36.47c2.32,1.12,4.92,1.61,6.92,3.17.6-.14.64-.58.9-1Z"/><path class="cls-6" d="M280.67,13.62c.19.11.59-.07.82.24.14.5.07.59-.78,1-.41,2.12-.4,4.35-.91,6.41a2.7,2.7,0,0,1-1.38.05c.27-2.33.53-4.56.78-6.74-.54-.34-1.12-.12-1.47-.7-.86,1.18-.44,2.39-.59,3.49s-.22,2.31-.33,3.47a1.22,1.22,0,0,1-1.24,0c-.25-.55,0-1.11-.13-1.78a3.11,3.11,0,0,1-2.86-.18,2.48,2.48,0,0,1-1.07-1.76,2.35,2.35,0,0,1,2.15-2.38c.63-.09,1.37-.16,1.5.81-.5.42-1.14-.12-1.67.4-.46.77-.46.77-.25,1.85,1.23.73,1.23.73,2.46-.38l.16-3.27a20,20,0,0,0-4.47-.46c-.43-.26-.29-.55-.28-1a54.07,54.07,0,0,1,8.52.75L277.06,10c.11-.48.41-.58.83-.69C279,10.54,279.62,12.05,280.67,13.62Z"/><path class="cls-6" d="M234.1,23.06l0-.64a72.69,72.69,0,0,1,10.23-5.08c.88.59.19,1-.05,1.48l2.42,6.09a2,2,0,0,1-1.18.52c-1.15-1.88-1.65-4.11-2.66-6.09-1.21.09-1.21.09-2.48,1,0,.7.74,1.1.71,1.86-.9.86-2.31,1-3.11,2,.22,1.26.22,1.26,1.51,1.52a17,17,0,0,0,1.69-2c1.46-.08,1.48-.07,1.58,1.51.23.54.91.58,1.2,1-.12.51-.6.45-1,.7l-1.19-.76-1.57.6-1,1.27a1,1,0,0,1-.83-.25c-.23-.24,0-.53-.12-.89a2.74,2.74,0,0,1-1.82-2.07c.08-1.81,1.76-2.07,2.85-2.84a.84.84,0,0,0-.5-1c-1.07.56-2.15,1.11-3.21,1.69a1.76,1.76,0,0,1-1.55.27Z"/><path class="cls-6" d="M254.79,18a1.27,1.27,0,0,0,.86,1.68,2,2,0,0,0,1.43-.84c.13-1.2-.42-2.34-.41-3.64-1.58-.05-3,.5-4.35.56-.52-.22-.41-.56-.47-1,3.39-.54,6.69-1.17,9.93-1.51a.65.65,0,0,1,.22.93l-3.8.65a2.81,2.81,0,0,0,0,1.38,5.54,5.54,0,0,1,1.15-.52,6,6,0,0,1,1.27,0c1.95,1.31,2,2.59.31,4.69-.46.12-.72-.15-.94-.49,1.13-2.21,1-2.74-.56-3.13-.55.15-.68.67-1,1.06l.58,3.72a1.41,1.41,0,0,1-1.17.22c-.53-.3-.25-.93-.62-1.38-1.07.09-1.62,1.13-2.49,1.62-.46-.07-.61-.47-.9-.74l.6-.7c-.29-.39-.82-.66-1-1.2a3.89,3.89,0,0,1-.07-1.63c.78-1.11.78-1.11,2.18-1.58a.89.89,0,0,1,.5.65C255.92,17.3,255.25,17.2,254.79,18Z"/><path class="cls-6" d="M258.28,151.17a2.31,2.31,0,0,1-1.41-.46l-.82-6.29a1.1,1.1,0,0,1,1.29-.06,35.47,35.47,0,0,1,.52,4.87c1.25-1.22,1.68-2.82,2.7-4,2.06-.25,4.06.24,6,.34a.76.76,0,0,1,.06,1c-1.05.25-2.14-.12-3.22-.06-.42.34-.27.8-.31,1.24,1,.38,2,.07,2.92.53.24.26.16.54.11.86-1,.36-2.05-.31-3.12-.12a2.21,2.21,0,0,0-.14,1.56c1,.59,2.22.1,3.2.59a.76.76,0,0,1-.14,1c-1.4-.31-2.91-.12-4.43-.58-.35-1.87.45-3.7.24-5.88Z"/><path class="cls-6" d="M207.81,57.77c-.25-.58.15-1.11,0-1.31-.52-.74-1-.79-1.49-.62-.61.62-.29,1.36-.27,2a1,1,0,0,1-.8.57,1.81,1.81,0,0,1-.45-1.82,2.57,2.57,0,0,1,1.76-2.21,1.76,1.76,0,0,1,2.06,1.3c.75-.43,1.44-.87,1.4-1.93a9,9,0,0,0-1.92-1c-.59,0-.56.56-.94.74a.85.85,0,0,1-.79-.25,11.93,11.93,0,0,1,1.36-2.93c.87,0,.71.54.8,1l5.83,2.75c.27.61-.16.89-.32,1.38l-2.77-1.27c-.36.1-.31.51-.65.78a2.89,2.89,0,0,1,1.76,2.34c-.54,2.31-1.78,3.15-4.51,3.08a.83.83,0,0,1,0-1.05c3.24-.65,3.24-.65,3.21-2.3a1.52,1.52,0,0,0-1.69-.53C208.75,56.57,209,58.05,207.81,57.77Z"/><path class="cls-6" d="M291.93,24.55l.33-1.21c-.08-.24-.2-.32-.37-.34a3.58,3.58,0,0,1-2.79-1.56,2.63,2.63,0,0,1-.47-2.3c.57-.4,1.15.05,1.87-.31a1.3,1.3,0,0,0,.24-2L289,16.15c-.09-.41.11-.6.45-.91,1.87.68,3.87,1.29,5.77,2.12s3.77,1.5,5.55,2.45c.21.4,0,.63-.32,1L295.6,18.6c-.82,2.19-1.61,4.29-2.39,6.39A2,2,0,0,1,291.93,24.55Zm-2.05-4.36c.54,1.27.54,1.27,1.82,1.78a2.24,2.24,0,0,0,1.38-.65l1.14-3.24-1.86-.65c-.21.61,0,1.14-.29,1.58A2.54,2.54,0,0,1,289.88,20.19Z"/><path class="cls-6" d="M329.83,48.4a.77.77,0,0,1,.85-.32c1.25,2.14,2.54,4.4,3.74,6.75a2.62,2.62,0,0,1-.63.31c-.3,0-.48-.23-.8-.43l-5.71,3.15a1.27,1.27,0,0,1-.77-1.14l3.76-2.17a8.89,8.89,0,0,0-1.72-3c-1.62.61-1.73,2.17-2.27,3.52l-1.07-.43c.5-1.89.9-3.76,3.13-4.51,1.86.55,1.82,2.66,3.06,3.7a1.13,1.13,0,0,0,.86-.55C331.72,51.54,330.36,50.14,329.83,48.4Z"/><path class="cls-6" d="M234.08,23c.13.49-.13.84-.43,1.26l3.54,5.53a1.33,1.33,0,0,1-1.11.68c-.81-.65-1.1-1.81-1.87-2.52-.52,0-.76.31-1.06.5-.21.6.66,1,.16,1.68a5,5,0,0,1-2.92-.49c-.14-.73.42-.86.73-1.25-.52-.63-.72-1.49-1.45-1.8-1.35.12.07,1.55-1.07,1.76-.88-.47-.56-1.27-.51-1.95a2.34,2.34,0,0,1,2.48-1c.45-.18.12-.64.47-1,.54-.36,1.22-.74,1.82-1.22a1.5,1.5,0,0,1,1.24-.18Zm-.61,3.78A5.36,5.36,0,0,0,232.21,25l-1.33.71c.63.62.83,1.41,1.56,1.85A2.49,2.49,0,0,0,233.47,26.81Z"/><path class="cls-6" d="M268.24,15.09a1.23,1.23,0,0,0,0-1.35h-5.26a.74.74,0,0,1-.05-1h7.59l.09.7-.76.52v6.5c-.42.37-.81.17-1.26.24-.3-1.51,0-3-.2-4.59a9.77,9.77,0,0,0-3.44.14c-.28,1.72,1.07,2.56,1.87,3.64-.1.41-.39.57-.79.79a7.62,7.62,0,0,1-2.33-3.07c-.59-1.52,0-2.5,1.69-2.56C266.29,15.06,267.24,15.09,268.24,15.09Z"/><path class="cls-6" d="M287.19,143.18c.88.43,1.42,1.25,2.35,1.81l.69-2.69a1.61,1.61,0,0,1,1.26-.37c0,1.46-.73,2.75-.95,4.16a17.91,17.91,0,0,1,.69,2.47.85.85,0,0,1-1.11.29,12.94,12.94,0,0,1-.84-2.34l-2.75-2.29c-.53-.06-.47.61-.93.61a6.15,6.15,0,0,0-1.19.22c-.14,1.82.84,3.46.77,5.19a.87.87,0,0,1-1.14.22c-.49-1.58-.58-3.31-1.2-5l-1.58.1a.69.69,0,0,1-.37-.87C282.93,144,285.15,143.92,287.19,143.18Z"/><path class="cls-6" d="M325.86,41.76l.64-.37,3.85,5.7a.79.79,0,0,1-.4.63c-.39.18-.53-.36-1-.29l-5.42,3.63a1.25,1.25,0,0,1-.72-1.14l1.46-1.13a7.47,7.47,0,0,1-1.37-1.17,2.24,2.24,0,0,1,.69-3.31,2.39,2.39,0,0,1,3.16.93.8.8,0,0,1-.21,1.24c-.49-.71-1-1.49-2.05-1a1.18,1.18,0,0,0-.75,1.19c.05.86.57,1.27,1.45,1.43a20.38,20.38,0,0,0,3.1-1.92,27.77,27.77,0,0,0-2-3.24c-.22-.37-.6-.68-.37-1.19Z"/><path class="cls-6" d="M219.72,34.38l-.29,1.44,5,4.35c-.1.55-.49.76-.84,1a28.53,28.53,0,0,1-3-2.47A8,8,0,0,0,219,40.37c-.06.67.73.73.75,1.3-.3.68-.94.43-1.45.43s-1.12.22-1.62-.43c.51-1.52,2-2.35,2.78-3.72a3.07,3.07,0,0,0-1.21-1.06L214.62,41c-.33-.07-.51-.26-.69-.66,1.44-2,3.28-3.77,4.84-5.73l1-.19Z"/><path class="cls-6" d="M321.52,35.05c-.18.53.71.78.34,1.36l0,0c-.45.2-.83,0-1.48-.3L316,40.81a1,1,0,0,1-.87-.77c0-.32.2-.5.39-.7l.7-.75a3.37,3.37,0,0,1-1.61-1,3.3,3.3,0,0,1-.73-1.64c.53-1.78,1.59-2.57,2.92-2.15a2.6,2.6,0,0,1,1.43,1.09.6.6,0,0,1-.16.87c-.54,0-.68-.75-1.28-.75-1.39.25-1.39.25-1.48,1.77a2.37,2.37,0,0,0,1.72.91c1-.65,1.67-1.69,2.75-2.58l-3.32-3.36a.71.71,0,0,1,.67-.74c.83.83,1.72,1.74,2.64,2.62.34.32.55.86,1.17.79l0,0c-.05.3.07.42.37.37l0,0c-.06.3.06.43.36.37Z"/><path class="cls-6" d="M320.89,34.41A14.09,14.09,0,0,0,319.38,30a2.62,2.62,0,0,0-2-1.6,2.18,2.18,0,0,0-1.4,1.11c-.35.68.87,1.16-.06,1.76-.24.11-.42-.24-.82-.2l-4.21,5c-.57,0-.83-.36-1.14-.85l4.14-5c.08-.53-.48-.67-.49-1.09.32-.93.84-.3,1.28-.14a1.24,1.24,0,0,0,.28-.19c1.33-1.86,3-2,4.55-.35a7.8,7.8,0,0,1,1.64,3.05,24.81,24.81,0,0,1,.7,2.73c.07.32.1.68-.34.8l0,0c0-.25-.14-.35-.36-.37l0,0c0-.24-.16-.33-.37-.37Z"/><path class="cls-6" d="M325.89,41.73c-.3-.07-.64,0-.89-.29-1.33,1.89-2.5,2.26-4.68,1.31-.4.66.05,1.4-.18,2.09-.31.33-.7.16-1.06.12a9.88,9.88,0,0,1,0-4.71c.3-.25.61-.11,1,0,.35,1,.76,1.95,2.24,1.74-.34-.73-1-1.16-1.11-2a1.65,1.65,0,0,1,1-1.79c.07-.56-.45-.71-.49-1s.33-.48.2-.79l0,0a1.11,1.11,0,0,1,.95.49,1.64,1.64,0,0,0,.2.26l2.68,3.35c.42.62.05.92.17,1.25Zm-3.65-1.95c.47,1.07.47,1.07,1.46,1.21a1.17,1.17,0,0,0-.05-1.46A.91.91,0,0,0,322.24,39.78Z"/><path class="cls-6" d="M225.42,127.84c-.29,1.36-1,1.78-2,1.77-.11.48,0,.92-.26,1.32a1.74,1.74,0,0,1-2.7.55,15.44,15.44,0,0,1-2.52-2.74,1.08,1.08,0,0,1,.48-.76l4.16-3.73C223.7,125.47,224.92,126.43,225.42,127.84Zm-3.53,2.61c.83-1.41-.56-1.83-1.14-2.85-.43.61-1.07.75-1.29,1.41C220.28,129.52,220.55,130.8,221.89,130.45Zm.76-4.42c-.46.32-.87.52-1,1.07a4.73,4.73,0,0,0,1.42,1.4c.74,0,1-.34.91-1A6.67,6.67,0,0,0,222.65,126Z"/><path class="cls-6" d="M324.49,114l5.29,3.08c.16.61-.35.76-.37,1.28h-4.69l-.07.28,3.24,2a1.59,1.59,0,0,1-.66,1l-5.49-3.21.68-1.15h4.67l0-.26-3.21-1.92C323.78,114.58,324.11,114.36,324.49,114Z"/><path class="cls-6" d="M203.42,88.85a30.26,30.26,0,0,0,3.44,0c.4.35.29.72.13,1.15a15,15,0,0,1-3.08.21,16.83,16.83,0,0,0-2.94.21c-.44-.39-.28-.85-.26-1.34,1.1-1,2.55-1.63,3.72-2.78-1.34-.25-2.53.21-3.73.11-.39-.29-.29-.67-.22-1.17l6.26-.4c.42.44.23.83.34,1.15-1.16,1.15-2.68,1.67-3.72,2.83l-.27.18C203.26,89.06,203.39,89.11,203.42,88.85Z"/><path class="cls-6" d="M250.91,147c.43-1.34.78-2.44,1.15-3.53,0-.1.13-.16.21-.25a.76.76,0,0,1,.9.44c-.43,2-1.17,3.89-1.76,5.81-.52.22-.83,0-1.19-.23-.62-1.35-.78-2.88-1.36-4.47-.71,1.24-.72,2.56-1.31,3.64a1.51,1.51,0,0,1-1.1-.37l1.77-5.73a1.14,1.14,0,0,1,1.23,0C250.13,143.72,250.16,145.37,250.91,147Z"/><path class="cls-6" d="M301.09,143.1a3.42,3.42,0,0,1-3.35,3.06c-1.72,0-3.36-1.92-3.28-3.91a3.29,3.29,0,0,1,3.38-3A4,4,0,0,1,301.09,143.1Zm-3.87,1.66a2.48,2.48,0,0,0,1.5,0,2.05,2.05,0,0,0,1.07-1.78,3.78,3.78,0,0,0-1.57-2.39,2,2,0,0,0-2.33.9A3,3,0,0,0,297.22,144.76Z"/><path class="cls-6" d="M337.73,91.47a4.37,4.37,0,0,1,.44,3.52,2.81,2.81,0,0,1-2.61,2.19,3.58,3.58,0,0,1-3.74-1.89,3.52,3.52,0,0,1,.64-3.71,1.23,1.23,0,0,1,1.33-.44c.23.22.16.51.16.76-.11.57-.83.56-1,1a2.4,2.4,0,0,0,.06,2.19,3.25,3.25,0,0,0,3.06.68,2.46,2.46,0,0,0,1-1,1.58,1.58,0,0,0-.65-2,.75.75,0,0,0-.48.61c-.05.21-.09.42-.13.59-.43.19-.67,0-.94-.27a12.32,12.32,0,0,1,.37-2.47C336.12,91,336.85,91.59,337.73,91.47Z"/><path class="cls-6" d="M271.2,149.26a10,10,0,0,1,1,1.14,5.74,5.74,0,0,1,.92,1.57c-.41.32-.85.17-1.25.16-1.07-.77-1.2-2.57-2.93-2.67-.36.88,0,1.72-.2,2.5-.3.41-.71.18-1.19.31v-6.54a13.12,13.12,0,0,1,3.43-.11,1.79,1.79,0,0,1,1.76,1.72A1.91,1.91,0,0,1,271.2,149.26Zm-2.56-.85c2.07.1,2.07.1,2.74-.93-.86-1-.95-1-2.7-.61A2.43,2.43,0,0,0,268.64,148.41Z"/><path class="cls-6" d="M332.57,112.19a3.44,3.44,0,0,1-3.23,3.21c-1.87-.05-3.81-1.76-3.68-3.38a3.22,3.22,0,0,1,3.29-3.24C330.89,108.9,332.65,110.51,332.57,112.19Zm-1.53-1c-1-.93-2.09-1.42-3.36-.94-1.47,2-.89,3,2,3.79C331.32,113.33,331.45,113.07,331,111.24Z"/><path class="cls-6" d="M333.79,103.89c-2.18,0-3.67-1.29-3.66-3.16a3,3,0,0,1,2.95-3.28c2.09,0,3.78,1.33,3.81,3.1C336.93,102.11,335.72,104.1,333.79,103.89Zm-2.48-2.62a3,3,0,0,0,2.83,1.27,1.49,1.49,0,0,0,1.39-1,1.76,1.76,0,0,0-.28-1.87,3.2,3.2,0,0,0-2.91-.77C331.52,99.17,331.26,99.77,331.31,101.27Z"/><path class="cls-6" d="M208.17,95.46l-1,.12a10.64,10.64,0,0,1-.59-3c-.53-.42-1-.11-1.5-.09l.43,3.12a.83.83,0,0,1-1.08,0,12.47,12.47,0,0,0-.58-2.84,2.6,2.6,0,0,0-1.47.14c-.25,1.15.34,2.24.31,3.31-.23.36-.52.28-.93.3a24.08,24.08,0,0,1-.8-4.78l6.28-1A31.73,31.73,0,0,1,208.17,95.46Z"/><path class="cls-6" d="M278.79,150a2.3,2.3,0,0,1-2.38,2c-1.33.11-2.45-.11-2.91-1.59.13-.49.56-.42,1-.47.5.14.58.79,1.24,1s1.54.08,1.76-1.15c-1.09-1-3.09-.1-4-2a2.43,2.43,0,0,1,.1-1.32c1.7-1.72,3.5-1.6,4.61.3-.23.38-.62.4-1,.43-.39-.18-.54-.7-1.35-.82a1.19,1.19,0,0,0-1.16.81c.47.73,1.21.69,1.91.75A2.18,2.18,0,0,1,278.79,150Z"/><path class="cls-6" d="M217.65,118.43a2,2,0,0,1-.78,1.37c-.49-.06-.55-.51-.79-.79,0-.39.41-.68.22-1.38-.17-.33-.43-.93-1.14-.89a.66.66,0,0,0-.36.81c.1.43.24.85.36,1.27.51,1.85.21,2.37-1.78,3-1.64-.29-2.22-1.56-2.62-3a2.5,2.5,0,0,1,.85-1.72c.46-.1.58.26.85.59a1.86,1.86,0,0,0,.36,2.64,1,1,0,0,0,1,0c.07-.18.19-.35.16-.48-.15-.7-.37-1.39-.51-2.09a1.79,1.79,0,0,1,3.15-1.57A4.1,4.1,0,0,1,217.65,118.43Z"/><path class="cls-6" d="M234.88,138.24a1.87,1.87,0,0,1,1.18-1.7,3.2,3.2,0,0,1,3.3,1.58,2.73,2.73,0,0,1,0,1.65,1.52,1.52,0,0,1-1.06-.38c-.26-.36,0-.83-.33-1.14a1.6,1.6,0,0,0-1.42-.61c-.56.62-.08,1,.28,1.42.63.7,1.4,1.29,1.51,2.34a2.2,2.2,0,0,1-1.35,1.82,3.39,3.39,0,0,1-3.53-1.61,5.17,5.17,0,0,1,0-1.87c.44-.36.62.17.91.09.39,1.71.39,1.71,1.77,2.31a.72.72,0,0,0,.58-.27,2.06,2.06,0,0,0,.21-.42c-.11-.76-.75-1.1-1.17-1.59A3.64,3.64,0,0,1,234.88,138.24Z"/><path class="cls-6" d="M323.4,122.43a7.64,7.64,0,0,0-1.49,1.88c.57.71,1.54,1,2,1.73,0,.47-.32.66-.65,1l-5.06-3.65a1.05,1.05,0,0,1,.77-1l1.92,1.23a10.52,10.52,0,0,0,1.42-1.91c-.38-.78-1.36-.94-1.79-1.68a1.19,1.19,0,0,1,.78-.9l4.88,3.57c.12.61-.3.75-.32,1.13C324.85,123.6,324.31,122.69,323.4,122.43Z"/><path class="cls-6" d="M229.63,131.23l.92.85-4.18,4.61a1.14,1.14,0,0,1-1-.64c.29-.84,1.23-1.29,1.66-2.21l-1.81-1.67-1.87,2c-.45-.06-.63-.43-1-.8l4.07-4.54a.89.89,0,0,1,1,.54c-.18.81-1,1.14-1.43,2a10,10,0,0,0,1.73,1.63C228.57,132.52,228.94,131.73,229.63,131.23Z"/><path class="cls-6" d="M310.21,131.88c-.25-.58.1-.93.48-1.27l2.67-2.44a.82.82,0,0,1,.73.59l-2.25,2.46c.06.44.46.66.84,1l2.32-2a.82.82,0,0,1,.61.71c-.47.85-1.47,1.34-2.08,2.17.19.59.68.86,1,1.22,1.14-.55,1.71-1.68,2.73-2.18a.92.92,0,0,1,.64.73l-3.51,3.25c-1-1-1.87-2-2.8-3-.45-.45-.74-1.1-1.44-1.28Z"/><path class="cls-6" d="M246.55,141.17a2,2,0,0,1,1,.64,20.44,20.44,0,0,1-1.46,3.65c-.8,1.8-1.81,2.09-3.61,1.21-.68-.33-.68-.33-1.43-1.43-.16-2,1.17-3.54,1.71-5.27.5-.28.83-.05,1.23.07-.23,1.8-1.64,3.18-1.6,4.93a1.54,1.54,0,0,0,2,.79C245.35,144.45,245.68,142.72,246.55,141.17Z"/><path class="cls-6" d="M214.42,123.14c1-1.57,2.85-2.3,4.13-3.56.57.13.68.51.9.92-1.11,1.2-2.71,1.87-3.7,3.08-.25,1,.21,1.46.93,2,1.71-.47,2.79-2,4.31-2.78.51.12.64.48.8,1-1.57,1-2.88,2.49-4.66,3.14C215,126.16,214.34,125.2,214.42,123.14Z"/><path class="cls-6" d="M219.76,34.41a1.19,1.19,0,0,1,.11-1.08h-3.8c-.48-.4-.33-.73-.22-1.25l4.7.46c.68-.07.93-.59,1.37-.81a.65.65,0,0,1,.58.53l-.3.73,4.53,4.88c-.08.51-.47.72-.93,1-1.68-1.41-3-3.21-4.61-4.75-.53-.18-.87.77-1.47.29Z"/><path class="cls-6" d="M232,141a1.3,1.3,0,0,1-.86-.46c-.31-.63.18-1.16,0-1.73a6.55,6.55,0,0,0-1.8-1.34c-.58-.07-.89.46-1.39.53a1.28,1.28,0,0,1-1-.8l5.43-3.36a1.52,1.52,0,0,1,1.4.64A56.4,56.4,0,0,1,232,141Zm.08-5.42a3.44,3.44,0,0,0-1.73,1.1,2.77,2.77,0,0,0,1.24.88,2.69,2.69,0,0,0,.47-2c.22.08.27,0,.18-.2Z"/><path class="cls-6" d="M336.81,75.86,335,74.72l-2,1.42a10,10,0,0,1,.56-2.44c-.49-.8-1.56-1-2.12-1.85h2.55c.66-.68.48-1.73,1.16-2.44l.87,2.4h2.53c-.38,1-1.36,1.1-1.88,1.81-.13.7.48,1.31.42,2Z"/><path class="cls-6" d="M201.87,75.64l.48-2-1.82-1.49c.8-.53,1.6-.13,2.32-.37.56-.62.5-1.54,1-2.3.52.7.48,1.63,1.09,2.37h2.15c-.18,1.06-1.26,1.12-1.7,1.86l.78,2.57-2.28-1.56-1.78,1.15Z"/><path class="cls-6" d="M205.46,108.24c-.58-.31-.39-.74-.54-1.09l.86-.91c.05-.16.09-.22.08-.27l-.63-2.1c-.55-.52-1.18-.13-1.68-.41a.85.85,0,0,1-.13-1h6.46a1.51,1.51,0,0,1,.51,1.46C208.76,105.31,207.22,107,205.46,108.24Zm1.55-2.77c.5-.89,1.35-1,1.65-1.92a10.84,10.84,0,0,0-2.19.12C206.33,104.29,206.69,104.69,207,105.47Z"/><path class="cls-6" d="M320.06,129.15a3,3,0,0,0,0-1.79.88.88,0,0,1,.78-.56c.1,0,.23.06.28.14a2.25,2.25,0,0,1-.21,2.9,2.71,2.71,0,0,1-2.91,1.1,4,4,0,0,1-3.11-3.26c.49-2.55,1.69-3.46,3.79-2.94.14.43-.15.71-.4,1.06l-1.19.08a1.49,1.49,0,0,0-.93,1.53,3.07,3.07,0,0,0,2,2.27A1.4,1.4,0,0,0,320.06,129.15Z"/><path class="cls-6" d="M301.39,138.47a1.5,1.5,0,0,0,.79,1.18l2.09-1.17a1.17,1.17,0,0,1,.54.74c-.48.68-1.38.84-2,1.51.08.86.91,1.43,1.11,2.28-.13.34-.38.54-.93.62-1.27-1.54-2.13-3.46-3.45-5.23a19.13,19.13,0,0,1,3.58-2.33c.41.1.52.37.72.6C303.22,137.5,302.15,137.7,301.39,138.47Z"/><path class="cls-6" d="M209.76,49.38c-.48.13-.53.66-1,.72-.22-.05-.4-.15-.52-.56a17.79,17.79,0,0,1,1.55-2.77l.76.43-.13.85,5.6,3.28c.14.59-.09.88-.54,1.24C213.53,51.7,211.7,50.36,209.76,49.38Z"/><path class="cls-6" d="M332.3,90.46a1.57,1.57,0,0,1,.12-1.38c.7-.6,1.71-.71,2.47-1.42L332.66,86a1.84,1.84,0,0,1,.08-1.3c1.35.54,2.22,1.67,3.58,2.41l2.42.35c.37.33.1.73.19,1.14-.94.32-1.79-.23-2.84-.08Z"/><path class="cls-6" d="M208.31,96.13a46.64,46.64,0,0,1,1.2,4.71c-.22.54-.52.58-.84.54-.47-.43-.15-1.13-.76-1.61-1.64.07-3.26.84-5,1.06-.37-.33-.28-.73-.26-1.24l4.86-1.24c.41-.63-.28-1.15-.11-1.76C207.59,96.34,207.86,96.28,208.31,96.13Z"/><path class="cls-6" d="M310.18,131.85c0,.9-1,1-1.34,1.69l3.12,4.08a1.07,1.07,0,0,1-.93.71c-1.29-1.09-2.06-2.74-3.31-3.9-.64.12-.9.75-1.47.82-.37,0-.47-.27-.57-.72,1.13-1.07,2.48-2,3.77-3l.76.36Z"/><path class="cls-6" d="M335.3,105.44a17.13,17.13,0,0,1-1.53,4.15,61.16,61.16,0,0,1-5.86-2.11,1.18,1.18,0,0,1,.51-1.07l4.76,1.57c.65-.87.65-1.93,1.19-2.76C334.69,105,335,105.1,335.3,105.44Z"/><path class="cls-6" d="M212.59,109.05l.44,1c-2,.58-3.65,2.12-5.86,1.79-1.7-1.53-1.73-2.47-.17-3.74.44,0,.49.36.76.69-.21.58-1.36,1.22-.1,2C209.35,110.47,210.8,109.32,212.59,109.05Z"/><path class="cls-6" d="M254.28,144a1,1,0,0,1,1.23.2c-.26,2-.94,3.94-1.41,5.92a1.14,1.14,0,0,1-1.29-.1Z"/><path class="cls-6" d="M208.42,114.91c-.44-.35-.41-.69-.6-1,1.88-1.11,3.78-1.93,5.57-2.81a1.76,1.76,0,0,1,.71,1C212.31,113.15,210.34,113.94,208.42,114.91Z"/><path class="cls-6" d="M281.28,151.07a1.28,1.28,0,0,1-1.31,0,44.49,44.49,0,0,1-.93-6c.3-.35.59-.28,1-.31A59.83,59.83,0,0,1,281.28,151.07Z"/><path class="cls-6" d="M329,60.72c-.21-.54-.58-.91-.52-1.45a1.71,1.71,0,0,1,1.16-.53,2.57,2.57,0,0,1,.56,1.26C330,60.5,329.55,60.5,329,60.72Z"/><path class="cls-6" d="M334.24,58.28a1.14,1.14,0,0,1-1.22.54l-.54-1.11a1.49,1.49,0,0,1,1.18-.66A1.92,1.92,0,0,1,334.24,58.28Z"/><path class="cls-6" d="M202.12,75.86c-.07.14-.14.27-.34.18s0-.28.09-.4Z"/><path class="cls-6" d="M337,75.66c.12.1.24.2.12.39s-.26,0-.33-.19Z"/><path class="cls-6" d="M252.49,80.37V92.19a2.13,2.13,0,0,1-1.7.11v-19c.57-.32,1.18-.08,1.88-.2l4.22,12.21.19,0v-12a5.28,5.28,0,0,1,2-.13V92.27a3.31,3.31,0,0,1-2.11,0l-4.17-12Z"/><path class="cls-6" d="M269.13,78.63a5.54,5.54,0,0,1-1.93.16c-.16-1-.23-1.94-1.21-2.56a1.93,1.93,0,0,0-2.42.74,3,3,0,0,0,0,2,3.74,3.74,0,0,0,2.13,1.48c2.86,1,4,3.16,3.88,6.09a9.69,9.69,0,0,1-.72,4.05,3.64,3.64,0,0,1-3.44,2.19,3.53,3.53,0,0,1-3.37-2,10.46,10.46,0,0,1-1.08-4.5l2-.4c.32,1.31.3,2.75,1.66,3.51,1.7.18,2.38-.22,2.76-1.6a2.46,2.46,0,0,0-1.4-3.18c-.49-.25-1-.45-1.49-.71a11.85,11.85,0,0,1-1.41-.87c-2.26-1.71-2.24-7.4-.26-9.15a3.61,3.61,0,0,1,5.48.71A6.44,6.44,0,0,1,269.13,78.63Z"/><path class="cls-6" d="M271.51,73.23h1.85a3,3,0,0,1,.18,1.69c0,3.11,0,6.23,0,9.34a29.45,29.45,0,0,0,.26,3,2.89,2.89,0,0,0,.65,1.51,1.68,1.68,0,0,0,2.81-.12,3.6,3.6,0,0,0,.54-2.06c0-3.72,0-7.45.05-11.17,0-.67,0-1.33,0-2a3.67,3.67,0,0,1,2-.14,1.92,1.92,0,0,1,.18,1.23c-.06,4.33.15,8.67-.16,13a12.12,12.12,0,0,1-.47,2.61A3.53,3.53,0,0,1,276,92.71c-1.8,0-2.77-.38-3.69-2.27a8.4,8.4,0,0,1-.77-3.7C271.47,82.29,271.51,77.85,271.51,73.23Z"/><path class="cls-6" d="M281.6,76.5V73.25H290a21.61,21.61,0,0,1,.08,3.15h-3.2V92.16c-.73.42-1.33.15-2.14.3,0-2.77,0-5.41,0-8V76.5Z"/><text class="cls-7" transform="translate(368.7 134.3)">NSS<tspan class="cls-8" x="329.27" y="0"> </tspan><tspan class="cls-3" x="373.98" y="0">NSUT</tspan></text></g></g></svg>