<svg id="Layer_1" data-name="Layer 1" xmlns="http://www.w3.org/2000/svg" viewBox="0 0 1080 1080"><defs><style>.cls-1{fill:#203a8e;}.cls-2{fill:#fcfcfc;}.cls-3{fill:#f31c15;}.cls-4{fill:#354890;}</style></defs><title>nss-icon</title><path class="cls-1" d="M19,557.24v-36.7c2.86-7.51,1.57-15.43,2.25-23.16,8.17-92.61,37.56-177.83,91.59-253.61Q251.55,49.24,489.68,22.36c11.7-1.3,23.66.16,35.13-3.36h32.63c2.17,2.36,5.08,1.49,7.67,1.61,107.32,5,204.87,38.69,289.35,104.8,152.74,119.53,220.92,277.52,204,470.54-9.22,105.41-49.79,199.45-119,279.46C818.93,1014.85,665.4,1075.69,482,1058c-102.8-9.92-194.22-49.87-273.43-116.09Q54,812.72,24.74,612.83C22.06,594.41,20.88,575.78,19,557.24Zm216.23,169c-.15,4.68-4.58,5-7.3,6.74-17,10.94-34.19,21.61-51.27,32.35,2.3,5,4.13,8.91,8.5,12.12l66-41.33c-3.51-5.55-4-12.42-12-11.57,0-1.89,1.5-3.43.26-5.7-7.09-13-12.81-26.64-20.61-39.2h-6.17c.66-2.39,4-2.74,4.29-6.36-1.3-5-2.59-10.84-5.91-16.83l-80.13,6.4c.92,6,1.86,10.47,4.46,14.16,6.87,1.42,13.15-2.68,19.77-.31,2.3,4.82,4.3,9.74,4.57,15.2-5,4.45-11.68,5.93-16.26,10.78,1.36,4.71,1.44,9.56,5.38,13.34l59.87-34.62c.25,6.46,5.73,11.09,6.57,18l-59.4,30.77c3.05,4.86,3.36,9.67,7.84,12.15L221.76,713c3.83,3.14,4.84,6.48,6.27,9.48C229.56,725.68,231.67,727.2,235.23,726.22ZM477.74,121.09,468,113.2c-18.89,4.14-38,8-57,13.78,2.32,4.82,5.77,7.44,9.24,10.34,7.38-.08,14.16-4.39,22.51-3.59.84,7.7,4.6,14.65,4.4,23-5.33.07-11.66-4.34-14.14,5.26,10.25,16.89,28.7,26.05,43,40.34,2.49-2.6,5-3.87,4.35-7.29-8.14-5.8-17.27-10.41-24-18.43,2.93-4.41,5.53-8.31,8.45-12.68,4.92,2.58,9.95,5.34,15.43,3.73,5.33-1.56,10.38-4.06,16.32-6.45.8,7.92,1.51,14.93,2.22,21.93,4.05,3.3,7.9,6.48,14,8.12-1.45-23.58-2.85-46.36-4.21-68.5,6-3.34,12-.07,16.7-3.63a21.16,21.16,0,0,0-7-10.6c-3.3-1.39-6.66.83-9.63-2-7.28-10.83-14.2-22.6-24-32.14-7.73-7.53-13.84-8.44-23.12-3.43,2.13,4.41,3.54,9.21,7.47,13.17C488.65,80,492.66,97.32,504,108.26l-28.43,2.83c-.21,3.84,3.16,5.61,3.61,8.64A11.13,11.13,0,0,0,477.74,121.09Zm415.45,514.3c4-2,7.17,1,10.55,2.07,16.4,5.27,32.71,10.79,50,16.52,1.41-5.07,3.9-8.71,3.49-14.35l-73.65-24.35a103.18,103.18,0,0,0-7.38,22.77l43.16,24.82c-17.83-1.17-34-4.24-51.12-4.42-3.69,21.53-17.07,38.09-24.42,58L914,752.19l18.64-36.87c-3.67-2.28-6.38-4.15-10-4.78l-12.27,22.9c-7.75-3.78-15-6.31-21.17-11.57l9.64-20.64c-2.91-2.7-5.59-4.47-9.83-4.78L878,717.06c-6.44-3.32-12.7-4.85-17.21-10.28,3.82-7.44,7.5-14.62,11.67-22.77l64.67,20.85c1.51-5.22,4-8.88,3.49-14.35-19.65-6.21-39.22-13.37-59.35-19,21.76-.16,43.15,3.67,65,4.54,1.12-2.78,3.23-4.8,1.81-8.51l-54.62-32.37ZM247.88,231.61c-4.67,1.89-9.3-2-14.31,0-9.37,10.76-19,21.75-28.54,32.77-8,9.22-18.2,17.38-23.5,28-9.68,19.33-22.29,37-30.47,57.23-9.57,23.71-21.47,46.45-28.33,71.28-2.3,8.33-5.89,16.31-7.83,26l13.94-3,8-23c7.87,3.11,16.1,3,22.39,8.38-1.75,5.23-9.41,8.18-2.82,16.05,18.41-4.14,35.89-12.69,53.8-19.27,0-3.54-.81-5.54-3.47-6.45-9.21,3.16-17.48,8.84-27.78,10.75-5.28-18.86-24.7-15.37-37.19-23.68,3.07-12.68,6.55-24.79,15.33-34.92l54.42,25,15.16-8.1-64.41-30.22c4-8.68,6.69-17,11.9-24.24,8.54,3.19,15.4,8.27,22.69,12.5,6.41,3.72,12.72,3.82,19.55,1.47,13.06-4.49,19.15-13.42,16.87-27.08,33.78-2.85,47.79-15.1,47.08-40.52-4.36-1.1-8.6-3.3-13.62-2.3-2.31,9.19-2.71,18.6-7.75,26.51-3,4.69-6.78,8.95-13,8.42s-9.19-5-10.59-10.62c1.38-11.83,10.77-20.49,12.36-31.86-3.73-7.19-11.62-9.85-15.58-16.27,2.23-4.88,6.57-7.89,9.61-11.94,2.54-3.39,6.77-5.91,5.83-11.13,2.77-2.5,5.85,1.46,8.57-.39,2.81-1.23,4.3-4.5,8.73-4.79L303.82,272c5.43-.63,10.45.23,16.25-2.14l-44.46-53.36c3.33-5.7,9.38-7.75,12.29-13.75l-12.39-3.83c-5.24,2.2-7.89,6.74-12.9,8.21-3.78-2.6-7.56-5.49-11.6-7.91-7.14-4.27-14.75-6.88-23.25-4.95-9.83,2.24-18.08,11.57-18.3,20.66-.19,7.69,4.23,12.39,14.54,15.45a9.4,9.4,0,0,0,5.45-5.59c-6.29-10.85-5.85-16.39,1.62-20.7,8-4.62,19.58-.52,25.53,9.09-4.11,4.87-10.25,7.66-13.53,12.57C242.8,229.73,248.51,227.67,247.88,231.61Zm66.32,81.47c-131.6,133.23-121.1,339.36,5.55,460.31,120.7,115.28,311.17,117.49,437.18,4.1C881.65,665.25,897,473.86,791,340.56,738.91,275,670.33,235.37,587.48,223.65c-102-14.42-191.33,15.17-266.89,83.35a169.73,169.73,0,0,0-35.72-6.8c-2.2,10.15-4.27,19.28-4.5,28.55a14.36,14.36,0,0,0,11.17,1.51c4-6.59,1.5-14.92,6.2-21.79C302.84,311,308.66,309.53,314.2,313.08Zm628.11,108-57.64,18.17c-1.79,4.79-4.37,9.1-4.69,15.21,23.07-5.14,44.2-14.31,66.07-18.93,4.4,4.85,3.11,11.31,7.58,15.49a34.71,34.71,0,0,0,3-2.63c2-2.24,4-4.56,5.36-6.15-8.51-42.8-25.19-81.63-45.13-119.09-1.93-1-2.75,2.23-4.68.95-.6-2.24,1.41-4.66-.13-6.78-7.09-9.77-11.29-21.51-18.69-30.8-15.66-19.62-32.69-38.14-49.27-57-1.88-2.14-3.18-5.21-6.73-5.71-2.41,3.84-3.27,8.11-4.17,12.42,17.07,23.86,41,42.25,54.59,69.46l-50,34.1v16.57l58-38.86c15.47,18.63,22.69,40.49,32.48,60.87a24.06,24.06,0,0,1-12.93,6.18c-7-11.43-10.46-24.81-18.12-35.76-12.21,4.15-18.74,17.72-13.36,26.48,3.55,1.12,6.14-3,10.95-1.35a81.12,81.12,0,0,1,7.85,17.72l-28.73,13.55c-2.35,5.21-2.81,10.46-2.83,17.07L934,393.17C943.15,401.17,939.05,411.49,942.31,421.05ZM632,131.38q-6.15,30-12,58.62c3.73,4.14,5.89,8.47,11.38,11.33,5-22.8,9.92-45.11,14.89-67.73l17.61,3.11A37.33,37.33,0,0,0,659,122.44c-13.94-2.44-28-7.11-43.08-7.16-2.61-.24-3.06-3.76-5.89-4.22l-85.68-6.23c2.3,5.86,3.62,10.35,7.06,13.49,19.09,2.21,38.07,1.91,56.92,5.3-.73,6.59.58,12.62-2.55,18.4-14.51-14.37-28.87-17.25-41-8.67-8.3,5.84-10.66,15.44-6.24,25.33,7.58,17,18.59,20.29,45.48,13.63,2.67,3.74-1.07,8,1.29,12.63,3.2,2.9,6.95,6.56,13,8.51,1.65-23.37,3.25-45.94,4.83-68.24C614,122.19,622.08,127.44,632,131.38Zm158.39,51.89-77.53-42.85c.4,6.54-.26,11.08,1.4,15.56,6.69,4.83,14.72,7.22,20.68,12.65.28,4.31-.28,7.83-3.54,10.56-7.07,2.5-13.81-2.75-21.39-1-3.24,11.68-4,23.22,1.82,34.47,6,11.6,17.43,12.23,28.55,13.07-.7,5.35-5.14,8.1-5.53,13.13,2.18,4.27,4,9.23,8.1,13.91L777,191.9c5.32,1.06,8.29,5.06,13.34,5.46ZM358.55,146.94l-77.88,41.62c5.3,3.69,8.59,6.6,13,7.73l21.14-10.7c4.67,1.72,7.14,4.21,7.94,8.71-2.11,6.73-8.69,10.6-12.51,16.25C327.19,234,346,234.71,367,213c3.84,2.61,3.56,8,7.79,11.06,4.62.58,9.71,1.57,15.65.27-11-20.95-21.57-40.94-31.91-60.55,2.86-4.84,8.45-4.57,11.37-9.38ZM620.6,895.82c8.93,19.86,13.08,41.13,21.84,62.07,4.21-3.46,9.3-2.18,12.9-6.37-8.55-24.29-14.28-49.42-23.52-74L605,884.48v63.08h-1.48l-20.18-60c-5.79.13-10.61-.72-15,3.27,9.26,24.63,18.54,49.29,27.75,73.78,7.35.37,13.17-1.13,19.55-2.56C617.3,939.73,619,917.78,620.6,895.82ZM193,588.86l-75.68,17.4c-.32,5.56,1.26,9.54,2.79,14,16.9-3,33.06-7.57,49.52-11.18l-44.36,30.65c-.34,5.93,1.32,10.28,3.27,15.46L205,637.64c-1.06-5.16-1.36-9.47-3.89-13.79-17.48,2.67-34.21,7.89-51.39,12.08,16.22-10.3,31.85-21.22,47.09-32C196.53,598.15,195.67,593.59,193,588.86Zm77,285.27L324.16,818c-3-4.63-5.8-8.17-10.3-10.14-12.74,11.39-23.05,24.59-35.09,36.38,7.33-16.82,13.92-33.7,20.72-50.49-3.19-4.47-6.51-8-11.32-10.63l-54.16,56c2.94,4.38,6,7.67,10.4,9.73,12.67-11.22,22.79-24.35,34.61-35.91-6.73,17.13-14.16,33.7-19.74,50.63C262.28,867.86,265.65,870.64,270,874.13Zm246.39,15.4c-.15,28,1.24,53.57,2.73,79.56,5,.49,9.16.7,14.07-.78V936c6.19-1.1,11.53-1.77,17,1.65,5.4,9,1.57,20.38,6.11,30.6,4.58.09,9.22.47,15.07-1.26-6.74-12.72,2.18-29.51-12.37-40.1,9.28-6.88,10.3-16.33,6.76-26.34-3.6-10.21-12.64-11.08-21.85-11C535.21,889.59,526.44,889.53,516.4,889.53ZM279.05,774.47c.42-17.31-19.39-30.26-36.09-21.9A135.34,135.34,0,0,0,207.05,779c-10.92,11.1-10.93,19.25-1,32.28,8.95,11.74,18.48,14.27,31,7.32a164.08,164.08,0,0,0,34.75-26.32C276.36,787.76,278.67,782.29,279.05,774.47Zm626.94-11-64-44.81c-3.5,3.92-6.7,7.3-7.68,12.39l24.53,17.86c-4.52,5.7-7.16,11.51-12.39,16.16l-24.58-17c-3.88,3.75-7,7.07-8,12.41l63.29,44.24a31.25,31.25,0,0,0,8.31-11.59c-9-7.94-19.73-13.18-28.51-21.62,3.84-5.44,7.33-10.36,10.94-15.46,11.5,5,19.55,14.25,30.23,19.2C901.54,771.73,904.33,768.42,906,763.49ZM775,866.64c6.69,11.2,13.39,15.52,21.9,14.52,9.92-1.16,21.47-10.67,24-19.77,2.67-9.79-1.41-17.28-8.42-23.52-5.79-5.15-13.05-5.3-20.25-4.92-6.1.31-12.17,1.11-18.27,1.46-4.76.28-9.11-1-10.52-6.11-1.62-5.78,1.81-8.81,5-9.79,7.46-1.31,9.8,4.51,14.35,5.56,3.27-2.8,7.18-4.44,8.85-8.38-8-10.78-16.24-13.75-26.09-9.52-11.42,4.92-18.74,15.82-16.88,25.16,2.24,11.26,11.4,18,24.95,17.91,5.77,0,11.53-.7,17.29-1,3.39-.16,6.85-.42,10,1.07a10.51,10.51,0,0,1,6.38,8.6c.47,3.88-1.57,6.48-4.77,8.25-3.76,2.1-7.06.83-10.43-1.34-2.83-1.83-3.78-5.72-7.5-6.55C781.21,860.62,777.81,862.85,775,866.64Zm-464.82,36c4.41,3.27,7.71,6.56,13.25,8.12,10.64-24.62,21.08-48.76,31.53-73a69.43,69.43,0,0,0-16.56-12l-60.9,52.57c4.59,4.11,8.21,6.94,12.17,8.92,5.86-4,9.44-9.78,15.77-12.23,4.5,3.14,9.46,5.38,12.93,9.85Zm151.2,3.15c4.81-11,3.69-19-3.33-25-8.32-7-23.08-9.09-30.46-4.25-9.07,6-11.49,19.2-5.44,30.09,3.66,6.58,9.06,11.86,13.48,17.85,6,8.07,5,13.34-3.17,19.62-3.49.27-6.75-.54-9.05-3.4-4.21-5.22-.29-11.07-.61-16-1.84-2.27-4-2.47-5.9-2.95-2.21-.55-4.34-2.19-6.78-.74-6.17,14-4.62,23.12,5.07,29.7,11.19,7.6,25.36,7.71,33.08.24,8.41-8.12,9.17-21.06,1.46-32.63-3.37-5-7.56-9.57-11.37-14.34-3.6-4.49-5.72-9.23-2.56-14.84,4.48-3.75,8.64-3.38,11.86-.19,3.71,4.76,1,9.48,2.46,13.93C453.75,904.31,457.31,906.13,461.4,905.75Zm230.49-23.58c-.18-4.22-2-6.34-3.46-8.58-6-9.18-12.87-11.57-23.67-8.34-12,3.59-19.58,11.25-18.21,21.33,2.63,19.36,9.56,37.43,21.45,53.12,4.37,5.76,10.87,7.5,18.3,5.71,20.71-5,26.43-17.61,16.41-37.51a19.63,19.63,0,0,0-12.39,5.17c.86,6,4.54,11.38.84,17.31-5.85,4.49-10.93,2.89-14.19-3.17a177.48,177.48,0,0,1-15.73-38.53c-2.16-8.15,1.07-10.94,10.34-11.09,4.57,1.73,5,7.24,9.08,9.51ZM815.35,150.74c-5.45,4-5.23,9.86-6.37,15,12.26,9.52,14.51,21.22,7.95,40-7.09-3.11-11.29-10.24-18.26-13.72-2.66,4.52-2.79,8.86-2.7,13.1,1.45,3.7,6.08,4.69,6.86,9.36l-38.42,44.81c1.05,5.64.58,10.84,4.22,15.95L814.56,223l14.58,11.39c1.33-5.75,2.66-10.11,1.93-14.49-2.27-3.86-7-5.07-8.26-9.91a210.19,210.19,0,0,0,4.89-33.64C828.34,166.24,827,156.63,815.35,150.74ZM805,784c6.95-3.18,10.85,2.8,15.85,3.45,3.23-3.1,6.52-5.53,8.06-9.39-10.78-11.31-20.31-12.74-30.13-4.63-12.42,10.28-14.66,21.83-5.32,33.73,9.45,12.05,20.46,22.81,33.47,31.05,11.64,7.37,21.18,4.93,31.06-6.81,7.55-9,7.18-18.47-1.33-28.41-1.94-2.27-3.59-5-6.91-6.27-3.36,3-7.22,5.69-8.74,10.14,3.28,5.43,9.85,8.73,7.81,16.07-1.69,2.89-4,4.62-8.81,5.44-14.28-7.46-25.8-19.82-36.75-32.65C800.14,792.11,801.06,787.36,805,784ZM687.24,857.49l37.32,70.17,36.22-19.34c-1.36-4.27-2.38-7.43-5.54-9.74l-22.45,11.65a117.08,117.08,0,0,1-11.17-20.89c5.83-6,14.26-7.13,19.82-12.56-1-3.76-2.12-6.84-5.67-8.87l-20.32,10.43c-3.05-6.15-7.13-11-8.93-17.66l22.11-12.43c-.83-4.11-2.12-7.12-5.49-9.84ZM961,626.56c2.93-14.13,5.31-27.23,6.26-40.95-4.17-.68-7.26-2.56-10.9-.07-2.22,7.78-1.75,16.4-4.92,24.67-8.08-2.15-16.05-1.3-22.86-5.15-.42-7.93,3.38-15,2-22.7-3.19-.89-6.26-2.15-9.41-1.27-3.57,7.47-1.56,15.92-6.12,23.49-5.54-2.58-12-.88-17.22-4.27-1.52-8.83,3.2-16.87,1.84-25.17a12.51,12.51,0,0,0-10.06-.86c-2.66,13.07-5.78,26.36-6.11,39.89ZM460.45,961.45c14.06,2.1,27.1,4.74,40.28,5.19,1.71-4.14,2.4-7.27.62-10.59-7.76-2.34-16.14-1.43-24-4.76.35-7.95,1.08-15.54,3.57-22.79,8-.82,15.1,3,23.28,1.59-.1-3.11,2.35-5.93,1.12-9.23-7.26-3.87-15.77-1.42-23.2-5.57.23-6.13.71-12,2.94-17.78,8.77-1.53,16.91,2.61,25.3,1.73,1.26-3.42,2.51-6.56.6-10.83-12.84-1.26-25.8-5-39.81-5.06ZM367.87,844.67l-37,69.55,36.85,19.47c2.78-3.62,5-6.15,4.55-10-6.91-4.89-15.18-7.51-22.47-13.57,10.28-19.59,20.59-39.22,30.75-58.6C376.52,847.86,372.87,846.21,367.87,844.67ZM822.1,256.26a108.51,108.51,0,0,0-8.89,24.93c-2.2,10.42-1.19,20.4,6.54,28.5s17.28,6.36,21.79-4c1.84-4.19,3-8.66,5-14.22l18.9,21.08c3.8-3,7.31-4.9,9.53-9.12l-30.2-34.57c-6.07,9.69-1.65,21.42-11.31,27.08-13.86-2.85-14.34-6.21-5.84-38.82C826.34,255.78,824.87,255.24,822.1,256.26Z"/><path class="cls-2" d="M314.2,313.08c-5.54-3.55-11.36-2.06-16.46-4.61-4.7,6.87-2.2,15.2-6.2,21.79a14.36,14.36,0,0,1-11.17-1.51c.23-9.27,2.3-18.4,4.5-28.55a169.73,169.73,0,0,1,35.72,6.8c75.56-68.18,164.92-97.77,266.89-83.35C670.33,235.37,738.91,275,791,340.56c106,133.3,90.63,324.69-34.09,436.93-126,113.39-316.48,111.18-437.18-4.1C193.1,652.44,182.6,446.31,314.2,313.08Zm73.92,187c15.2,32.4,43.17,28.53,71.07,26.89,3.1-12.12,7.36-23.49,14.3-34.35-11.7-12.59-23.14-25-36.39-35.58-5.71-4.54-12.81-5.74-20.18-5.86-6-.1-11.85,1.92-17.46,2-1.48-2.91-.37-4.75.16-6.65,4.15-14.88,1.84-27.61-10.05-38.84-18.21-17.19-35.47-35.4-53.28-53-2.78-2.75-4.84-6.66-10.35-7.62C280,397.88,256,457.92,251.47,526.58a39.28,39.28,0,0,0,5.37,1c30.92,0,61.84.14,92.76,0,11.15-.07,20.22-5.56,27.86-13.12C381.22,510.66,383.88,505.84,388.12,500ZM680.77,628.7c.5,2.51.8,3.17.73,3.79-.25,2-.6,4-1,6-2.47,13.47-.22,24.68,10.82,34.75,18.48,16.87,35.58,35.25,53.32,52.92,3,3,5.6,6.65,9.79,8,46.93-47.43,76.25-128.37,73.43-179.28-2.35-1.85-5.16-1.49-7.82-1.49-29.19,0-58.38.14-87.57.11-8.69,0-15.53,3.65-21.92,9.19-5.67,4.92-8.32,12-13.45,18.13-6.81-13.79-16.81-23.72-31.21-26.42-14.23-2.66-28.9-.8-43.92-.83a124.7,124.7,0,0,1-14.53,35.61C629.15,608.79,644.48,637.51,680.77,628.7ZM589.91,474.36c11.14-11.57,20.86-23,32-32.86,15.29-13.62,22.61-29.23,17.28-49.68-.12-.43.63-1.08,1.18-1.95,2.84.6,5.8,1.24,8.76,1.83,12.41,2.5,23,.68,32-9.75,9.73-11.23,20.85-21.29,31.6-31.61,7.52-7.23,15.44-14,24.11-21.9-53.21-48.17-113.27-72.25-181.73-76.66-2.18,4.4-1.57,8.18-1.58,11.84,0,22.06.76,44.15-.23,66.16-1,22.3,6.92,38.81,27.55,49.51-3.58,2.54-6.65,4.55-9.54,6.79C562.1,393.16,554.8,402,554,413.73c-1,14.83-.24,29.79-.24,45C565.93,462.89,578,466.4,589.91,474.36Zm-9.79,221.37c-.35.87-.38,1.24-.59,1.42a17.91,17.91,0,0,1-2.4,1.86c-16.57,9.92-24.52,24-23.87,43.81.8,24.41.12,48.86.18,73.29,0,4-.72,8.16,1.49,11.85,45,7,150.07-36.57,179.83-75-20.4-19.54-39.43-40.62-60.74-59.44-13-11.5-27.41-17.24-44.86-12.4a3.85,3.85,0,0,1-3.78-1.24c-1.17-3.06.84-5.8,1.22-8.75,1.41-11,1.44-22.5-5.79-31.19-9.46-11.37-20.71-21.26-31.8-32.39-11.12,7.14-23.35,10.84-35.53,15.15,0,11.32.25,21.83-.08,32.32-.3,9.65,3.13,17.86,8.26,25.68C566.24,687.71,573.62,691.34,580.12,695.73ZM457.05,399.39c-1,5-1.91,8.83-2.46,12.75-1.36,9.62-1.67,19.73,4.46,27.47C468.89,452,480.6,462.85,493,473.76c10.44-8.08,22.75-10.94,34.56-15.12,0-11.06-.88-21.34.18-31.41,2.28-21.6-6-36.85-25.28-46.43-.43-.22-.49-1.17-.82-2,19-10.68,27.29-26.71,26.19-48.79s-.19-44.16-.33-66.24c0-3.89,1.27-8.2-2.63-12-67.92,4.73-127.8,28.83-179.55,75.82,17.42,17.28,34.06,33.63,50.51,50.15C412.53,394.5,430.89,406.62,457.05,399.39ZM252.21,554.94c-2.33,54.55,37.44,149.23,75.25,179.27a41.53,41.53,0,0,0,4.6-3.54c15.37-15.3,30.57-30.76,46-46,13.89-13.63,19.72-29.66,15.66-48.94-.28-1.33-.46-2.66,1.14-4,3,.68,6.24,1.6,9.55,2.15,10.33,1.72,21.05,2,29.13-5.23,13.88-12.36,26.72-25.88,40.24-39.15-7.06-11.61-11.47-23.25-15.06-36.07-11.48,0-22.66.28-33.82-.07-13.61-.43-23.28,5.92-30.66,16.63-2.26,3.29-4.24,6.78-6.67,10.69a36.4,36.4,0,0,1-2.77-3.58c-9.46-16.56-23.6-24.16-42.76-23.81-25.46.46-50.93,0-76.39.12C261.35,553.47,256.87,552.66,252.21,554.94Zm93.41,199.18c52.06,46.41,111.71,71.22,181.9,75.17V815.75c0-24.09-1.13-48.25.3-72.25,1.3-21.75-6.43-36.74-26-45.91-.36-.17-.36-1.11-.74-2.4,33-15.1,26.24-44.65,26-72.76-12-4.09-24-7.49-34.72-15C478,621.29,463.7,634.25,451.8,649.4c-6.76,8.61-8.28,19.13-6.29,30,.58,3.22,2.6,6.33.92,9.8-2.91,1.24-5.21-.86-7.77-1.22-15.18-2.17-29-.62-39.67,12.25-5.4,6.47-11.95,12-17.91,18C369.45,729.93,357.86,741.72,345.62,754.12ZM622.06,527.49c12.77,0,24.62.09,36.48,0,12.33-.11,22.25-5.65,30.29-14.54,3.29-3.63,5.66-8.1,8.43-12.16.62.35,1,.45,1.19.7A27.13,27.13,0,0,1,700.2,504c9.77,16.1,23.51,24.36,42.91,23.83,24.46-.67,48.94-.14,73.41-.28,3.94,0,8.17,1,12.75-2.49-4.12-67.88-28.73-127.48-75.78-180-16.31,16.66-33,31.74-47.14,48.92-7.56,9.18-15.9,19.41-16.06,33.11-.09,6.95,2.9,13.62,2,21-2-.4-3.35-.59-4.64-.94-19.53-5.29-36-.62-49.63,14.58-4.5,5-9.79,9.37-14.47,14.26-5.31,5.56-11.74,10.18-15.56,17.49C614.85,503.45,618.67,514.64,622.06,527.49Z"/><path class="cls-2" d="M247.66,231.35c.94,5.22-3.29,7.74-5.83,11.13-3,4.05-7.38,7.06-9.61,11.94,4,6.42,11.85,9.08,15.58,16.27-1.59,11.37-11,20-12.36,31.86,1.4,5.59,4.33,10.08,10.59,10.62s10-3.73,13-8.42c5-7.91,5.44-17.32,7.75-26.51,5-1,9.26,1.2,13.62,2.3.71,25.42-13.3,37.67-47.08,40.52,2.28,13.66-3.81,22.59-16.87,27.08-6.83,2.35-13.14,2.25-19.55-1.47-7.29-4.23-14.15-9.31-22.69-12.5-5.21,7.27-7.92,15.56-11.9,24.24l64.41,30.22-15.16,8.1-54.42-25c-8.78,10.13-12.26,22.24-15.33,34.92,12.49,8.31,31.91,4.82,37.19,23.68,10.3-1.91,18.57-7.59,27.78-10.75,2.66.91,3.46,2.91,3.47,6.45-17.91,6.58-35.39,15.13-53.8,19.27-6.59-7.87,1.07-10.82,2.82-16.05-6.29-5.36-14.52-5.27-22.39-8.38l-8,23-13.94,3c1.94-9.66,5.53-17.64,7.83-26,6.86-24.83,18.76-47.57,28.33-71.28,8.18-20.26,20.79-37.9,30.47-57.23,5.3-10.59,15.49-18.75,23.5-28,9.57-11,19.17-22,28.54-32.77,5-2.09,9.64,1.84,14.31,0Zm-26.43,34.91c-14.43,16.68-30.58,32.1-39.06,54.94a341.23,341.23,0,0,0,38.48-12.71c-5.56-14,7-22.69,9.2-33.8C227.91,270.48,225.14,268.21,221.23,266.26ZM216,339.73c6.16-7.72,4.3-14.69,2.14-22.66l-26.48,8.73A113.51,113.51,0,0,0,216,339.73Z"/><path class="cls-2" d="M942.31,421.05c-3.26-9.56.84-19.88-8.35-27.88l-62.74,29.05c0-6.61.48-11.86,2.83-17.07l28.73-13.55a81.12,81.12,0,0,0-7.85-17.72c-4.81-1.65-7.4,2.47-10.94,1.35-5.39-8.76,1.14-22.33,13.35-26.48,7.66,10.95,11.1,24.33,18.12,35.76a24.06,24.06,0,0,0,12.93-6.18c-9.79-20.38-17-42.24-32.48-60.87l-58,38.86V339.75l50-34.1c-13.54-27.21-37.52-45.6-54.59-69.46.9-4.31,1.76-8.58,4.17-12.42,3.55.5,4.85,3.57,6.73,5.71,16.58,18.87,33.61,37.39,49.27,57,7.4,9.29,11.6,21,18.69,30.8,1.54,2.12-.47,4.54.13,6.78,1.93,1.28,2.75-2,4.68-.95,19.94,37.46,36.62,76.29,45.13,119.09-1.37,1.59-3.32,3.91-5.36,6.15a34.71,34.71,0,0,1-3,2.63c-4.47-4.18-3.18-10.64-7.58-15.49-21.87,4.62-43,13.79-66.07,18.93.32-6.11,2.9-10.42,4.69-15.21Z"/><path class="cls-2" d="M893.44,635.19l54.62,32.37c1.42,3.71-.69,5.73-1.81,8.51-21.8-.87-43.19-4.7-65-4.54,20.13,5.61,39.7,12.77,59.35,19,.53,5.47-2,9.13-3.49,14.35L872.49,684c-4.17,8.15-7.85,15.33-11.67,22.77,4.51,5.43,10.77,7,17.21,10.28L889,696.45c4.24.31,6.92,2.08,9.83,4.78l-9.64,20.64c6.15,5.26,13.42,7.79,21.17,11.57l12.27-22.9c3.63.63,6.34,2.5,10,4.78L914,752.19l-70.2-35.76c7.35-19.89,20.73-36.45,24.42-58,17.09.18,33.29,3.25,51.12,4.42l-43.16-24.82a103.18,103.18,0,0,1,7.38-22.77l73.65,24.35c.41,5.64-2.08,9.28-3.49,14.35-17.24-5.73-33.55-11.25-50-16.52-3.38-1.09-6.51-4.12-10.55-2.07.33-.64,1.32-1.36-.28-1.77C893.1,634.17,893.27,634.68,893.44,635.19Z"/><path class="cls-2" d="M632,131.38c-9.87-3.94-18-9.19-28.92-6.17-1.58,22.3-3.18,44.87-4.83,68.24-6-1.95-9.77-5.61-13-8.51-2.36-4.66,1.38-8.89-1.29-12.63-26.89,6.66-37.9,3.34-45.48-13.63-4.42-9.89-2.06-19.49,6.24-25.33,12.18-8.58,26.54-5.7,41,8.67,3.13-5.78,1.82-11.81,2.55-18.4-18.85-3.39-37.83-3.09-56.92-5.3-3.44-3.14-4.76-7.63-7.06-13.49L610,111.06c2.83.46,3.28,4,5.89,4.22C631,115.33,645,120,659,122.44a37.33,37.33,0,0,1,4.85,14.27l-17.61-3.11c-5,22.62-9.88,44.93-14.89,67.73-5.49-2.86-7.65-7.19-11.38-11.33Q625.82,161.33,632,131.38Zm-45.19,22c-6.45-7.93-14.1-10.89-22.93-11-7.45-.11-12,4.17-14.1,10.92-2.49,8,2.51,13.92,10.66,12C569.54,163.22,578.41,160,586.76,153.37Z"/><path class="cls-2" d="M479.21,119.73c-.45-3-3.82-4.8-3.61-8.64L504,108.26C492.66,97.32,488.65,80,468.89,84.1c-3.93-4-5.34-8.76-7.47-13.17,9.28-5,15.39-4.1,23.12,3.43,9.81,9.54,16.73,21.31,24,32.14,3,2.84,6.33.62,9.63,2a21.16,21.16,0,0,1,7,10.6c-4.73,3.56-10.71.29-16.7,3.63,1.36,22.14,2.76,44.92,4.21,68.5-6.09-1.64-9.94-4.82-14-8.12-.71-7-1.42-14-2.22-21.93-5.94,2.39-11,4.89-16.32,6.45-5.48,1.61-10.51-1.15-15.43-3.73-2.92,4.37-5.52,8.27-8.45,12.68,6.74,8,15.87,12.63,24,18.43.64,3.42-1.86,4.69-4.35,7.29C461.65,188,443.2,178.86,433,162c2.48-9.6,8.81-5.19,14.14-5.26.2-8.33-3.56-15.28-4.4-23-8.35-.8-15.13,3.51-22.51,3.59-3.47-2.9-6.92-5.52-9.24-10.34,19-5.74,38.14-9.64,57-13.78l9.77,7.89c.71,3.32-1.59,3.64-4,4.41-5.35,1.71-11.36,1.36-16.83,5.27,2,8.3,3.32,16.83,6.46,24.94,13,3,21.66-6.15,32.37-10.38-.63-7.21-1.26-14.49-1.88-21.66C488.53,122,482.69,125.07,479.21,119.73Z"/><path class="cls-2" d="M790.34,183.27v14.09c-5.05-.4-8-4.4-13.34-5.46l-34.1,60.9c-4.14-4.68-5.92-9.64-8.1-13.91.39-5,4.83-7.78,5.53-13.13-11.12-.84-22.58-1.47-28.55-13.07-5.78-11.25-5.06-22.79-1.82-34.47,7.58-1.78,14.32,3.47,21.39,1,3.26-2.73,3.82-6.25,3.54-10.56-6-5.43-14-7.82-20.68-12.65-1.66-4.48-1-9-1.4-15.56Zm-46.2-9.68c-4.07,7-.95,16-7,21.77-6.92,2.31-13.36-4-20-.4-2.4,6.64-2.71,7.33.3,9.82,9.85,8.14,21.29,6.3,32.49,5.47,5-8.88,9.5-17,14.18-25.42A81,81,0,0,0,744.14,173.59Z"/><path class="cls-2" d="M358.55,146.94l11.35,7.48c-2.92,4.81-8.51,4.54-11.37,9.38,10.34,19.61,20.87,39.6,31.91,60.55-5.94,1.3-11,.31-15.65-.27-4.23-3-4-8.45-7.79-11.06-21,21.69-39.81,21-56.77-2.47,3.82-5.65,10.4-9.52,12.51-16.25-.8-4.5-3.27-7-7.94-8.71l-21.14,10.7c-4.4-1.13-7.69-4-13-7.73Zm-19.41,49.67c0,4.16-2.64,6.43-4.86,9-2.4,2.74-5.89,4.78-5.93,9.05,4.41,6.66,8,7.55,14.51,2.54,7.1-5.47,12-12.78,15.77-21.62q-6.7-12.67-13.63-25.73c-7.8,3.51-14.62,6.74-21.14,11C329,187.22,336.1,190.15,339.14,196.61Z"/><path class="cls-2" d="M620.6,895.82c-1.65,22-3.3,43.91-5,66.2-6.38,1.43-12.2,2.93-19.55,2.56-9.21-24.49-18.49-49.15-27.75-73.78,4.41-4,9.23-3.14,15-3.27l20.18,60H605V884.48l26.82-6.92c9.24,24.54,15,49.67,23.52,74-3.6,4.19-8.69,2.91-12.9,6.37C633.68,937,629.53,915.68,620.6,895.82Z"/><path class="cls-2" d="M193,588.86c2.71,4.73,3.57,9.29,3.89,15.07-15.24,10.78-30.87,21.7-47.09,32,17.18-4.19,33.91-9.41,51.39-12.08,2.53,4.32,2.83,8.63,3.89,13.79L128.5,655.19c-2-5.18-3.61-9.53-3.27-15.46l44.36-30.65c-16.46,3.61-32.62,8.14-49.52,11.18-1.53-4.46-3.11-8.44-2.79-14Z"/><path class="cls-2" d="M270,874.13c-4.36-3.49-7.73-6.27-10.73-10.59,5.58-16.93,13-33.5,19.74-50.63-11.82,11.56-21.94,24.69-34.61,35.91-4.36-2.06-7.46-5.35-10.4-9.73l54.16-56c4.81,2.6,8.13,6.16,11.32,10.63-6.8,16.79-13.39,33.67-20.72,50.49,12-11.79,22.35-25,35.09-36.38,4.5,2,7.32,5.51,10.3,10.14Z"/><path class="cls-2" d="M516.4,889.53c10,0,18.81.06,27.57,0,9.21-.08,18.25.79,21.85,11,3.54,10,2.52,19.46-6.76,26.34,14.55,10.59,5.63,27.38,12.37,40.1-5.85,1.73-10.49,1.35-15.07,1.26-4.54-10.22-.71-21.59-6.11-30.6-5.52-3.42-10.86-2.75-17-1.65v32.34c-4.91,1.48-9.12,1.27-14.07.78C517.64,943.1,516.25,917.49,516.4,889.53ZM549,902.82a26.59,26.59,0,0,0-18,.08c.33,6.67.64,12.93,1,19.61,6.66,1,13,2.35,17.45-2.85C553.52,914.84,552.44,909,549,902.82Z"/><path class="cls-2" d="M279.05,774.47c-.38,7.82-2.69,13.29-7.29,17.78A164.08,164.08,0,0,1,237,818.57c-12.48,6.95-22,4.42-31-7.32-9.93-13-9.92-21.18,1-32.28A135.34,135.34,0,0,1,243,752.57C259.66,744.21,279.47,757.16,279.05,774.47Zm-14.21-.36a10.43,10.43,0,0,0-4.51-8.69c-4.26-2.95-8.69-2-12.38.65-9.91,7.11-19.68,14.44-29.19,22.07-4.9,3.94-7.33,9.29-3.13,15.18s10.05,5.25,15.25,1.6c9.43-6.61,18.62-13.57,27.69-20.66A15.68,15.68,0,0,0,264.84,774.11Z"/><path class="cls-2" d="M906,763.49c-1.66,4.93-4.45,8.24-7.88,11.81-10.68-4.95-18.73-14.24-30.23-19.2-3.61,5.1-7.1,10-10.94,15.46,8.78,8.44,19.54,13.68,28.51,21.62a31.25,31.25,0,0,1-8.31,11.59l-63.29-44.24c.95-5.34,4.09-8.66,8-12.41l24.58,17c5.23-4.65,7.87-10.46,12.39-16.16l-24.53-17.86c1-5.09,4.18-8.47,7.68-12.39Z"/><path class="cls-2" d="M247.88,231.61c.63-3.94-5.08-1.88-4.81-5.91,3.28-4.91,9.42-7.7,13.53-12.57-6-9.61-17.53-13.71-25.53-9.09-7.47,4.31-7.91,9.85-1.62,20.7a9.4,9.4,0,0,1-5.45,5.59c-10.31-3.06-14.73-7.76-14.54-15.45.22-9.09,8.47-18.42,18.3-20.66,8.5-1.93,16.11.68,23.25,4.95,4,2.42,7.82,5.31,11.6,7.91,5-1.47,7.66-6,12.9-8.21l12.39,3.83c-2.91,6-9,8.05-12.29,13.75l44.46,53.36c-5.8,2.37-10.82,1.51-16.25,2.14L265,226.17c-4.43.29-5.92,3.56-8.73,4.79-2.72,1.85-5.8-2.11-8.57.39Z"/><path class="cls-2" d="M775,866.64c2.79-3.79,6.19-6,9.53-8.35,3.72.83,4.67,4.72,7.5,6.55,3.37,2.17,6.67,3.44,10.43,1.34,3.2-1.77,5.24-4.37,4.77-8.25a10.51,10.51,0,0,0-6.38-8.6c-3.19-1.49-6.65-1.23-10-1.07-5.76.28-11.52,1-17.29,1-13.55.06-22.71-6.65-24.95-17.91-1.86-9.34,5.46-20.24,16.88-25.16,9.85-4.23,18.09-1.26,26.09,9.52-1.67,3.94-5.58,5.58-8.85,8.38-4.55-1.05-6.89-6.87-14.35-5.56-3.14,1-6.57,4-5,9.79,1.41,5.06,5.76,6.39,10.52,6.11,6.1-.35,12.17-1.15,18.27-1.46,7.2-.38,14.46-.23,20.25,4.92,7,6.24,11.09,13.73,8.42,23.52-2.48,9.1-14,18.61-24,19.77C788.41,882.16,781.71,877.84,775,866.64Z"/><path class="cls-2" d="M208.65,681.39,148.78,716c-3.94-3.78-4-8.63-5.38-13.34,4.58-4.85,11.26-6.33,16.26-10.78-.27-5.46-2.27-10.38-4.57-15.2-6.62-2.37-12.9,1.73-19.77.31-2.6-3.69-3.54-8.16-4.46-14.16l80.13-6.4c3.32,6,4.61,11.85,5.91,16.83-.32,3.62-3.63,4-4.29,6.36l.28-.18a4.27,4.27,0,0,0-4.4,2.21ZM201.15,670l-33.37,4c1,4.39,1.21,8.29,4.64,11.47Z"/><path class="cls-2" d="M310.2,902.6l8.19-17.75c-3.47-4.47-8.43-6.71-12.93-9.85-6.33,2.45-9.91,8.24-15.77,12.23-4-2-7.58-4.81-12.17-8.92l60.9-52.57a69.43,69.43,0,0,1,16.56,12c-10.45,24.2-20.89,48.34-31.53,73C317.91,909.16,314.61,905.87,310.2,902.6Zm24.81-56a132.68,132.68,0,0,0-20.58,19c2.88,3,5.36,5.61,10,6.07,3.38-8.44,10.18-15.43,10.44-25.31,1.16.73,1.63.45,1.38-.95Z"/><path class="cls-2" d="M461.4,905.75c-4.09.38-7.65-1.44-11.26-2.91-1.46-4.45,1.25-9.17-2.46-13.93-3.22-3.19-7.38-3.56-11.86.19-3.16,5.61-1,10.35,2.56,14.84,3.81,4.77,8,9.29,11.37,14.34,7.71,11.57,6.95,24.51-1.46,32.63-7.72,7.47-21.89,7.36-33.08-.24C405.52,944.09,404,935,410.14,921c2.44-1.45,4.57.19,6.78.74,1.94.48,4.06.68,5.9,2.95.32,5-3.6,10.82.61,16,2.3,2.86,5.56,3.67,9.05,3.4,8.17-6.28,9.12-11.55,3.17-19.62-4.42-6-9.82-11.27-13.48-17.85-6.05-10.89-3.63-24.13,5.44-30.09,7.38-4.84,22.14-2.79,30.46,4.25C465.09,886.73,466.21,894.75,461.4,905.75Z"/><path class="cls-2" d="M691.89,882.17l-11.23,4.93c-4-2.27-4.51-7.78-9.08-9.51-9.27.15-12.5,2.94-10.34,11.09A177.48,177.48,0,0,0,677,927.21c3.26,6.06,8.34,7.66,14.19,3.17,3.7-5.93,0-11.35-.84-17.31a19.63,19.63,0,0,1,12.39-5.17c10,19.9,4.3,32.51-16.41,37.51-7.43,1.79-13.93.05-18.3-5.71-11.89-15.69-18.82-33.76-21.45-53.12-1.37-10.08,6.2-17.74,18.21-21.33,10.8-3.23,17.7-.84,23.67,8.34C689.89,875.83,691.71,878,691.89,882.17Z"/><path class="cls-2" d="M815.35,150.74c11.69,5.89,13,15.5,12.35,25.65A210.19,210.19,0,0,1,822.81,210c1.31,4.84,6,6.05,8.26,9.91.73,4.38-.6,8.74-1.93,14.49L814.56,223l-45.93,52.24c-3.64-5.11-3.17-10.31-4.22-15.95l38.42-44.81c-.78-4.67-5.41-5.66-6.86-9.36-.09-4.24,0-8.58,2.7-13.1,7,3.48,11.17,10.61,18.26,13.72,6.56-18.81,4.31-30.51-7.95-40C810.12,160.6,809.9,154.75,815.35,150.74Z"/><path class="cls-2" d="M805,784c-3.91,3.35-4.83,8.1-1.74,11.72,10.95,12.83,22.47,25.19,36.75,32.65,4.76-.82,7.12-2.55,8.81-5.44,2-7.34-4.53-10.64-7.81-16.07,1.52-4.45,5.38-7.13,8.74-10.14,3.32,1.29,5,4,6.91,6.27,8.51,9.94,8.88,19.44,1.33,28.41-9.88,11.74-19.42,14.18-31.06,6.81-13-8.24-24-19-33.47-31.05-9.34-11.9-7.1-23.45,5.32-33.73,9.82-8.11,19.35-6.68,30.13,4.63-1.54,3.86-4.83,6.29-8.06,9.39C815.82,786.81,811.92,780.83,805,784Z"/><path class="cls-2" d="M687.24,857.49l35.9-19.08c3.37,2.72,4.66,5.73,5.49,9.84l-22.11,12.43c1.8,6.64,5.88,11.51,8.93,17.66l20.32-10.43c3.55,2,4.66,5.11,5.67,8.87-5.56,5.43-14,6.55-19.82,12.56a117.08,117.08,0,0,0,11.17,20.89l22.45-11.65c3.16,2.31,4.18,5.47,5.54,9.74l-36.22,19.34Z"/><path class="cls-2" d="M961,626.56l-77.46-12.39c.33-13.53,3.45-26.82,6.11-39.89a12.51,12.51,0,0,1,10.06.86c1.36,8.3-3.36,16.34-1.84,25.17,5.2,3.39,11.68,1.69,17.22,4.27,4.56-7.57,2.55-16,6.12-23.49,3.15-.88,6.22.38,9.41,1.27,1.34,7.69-2.46,14.77-2,22.7,6.81,3.85,14.78,3,22.86,5.15,3.17-8.27,2.7-16.89,4.92-24.67,3.64-2.49,6.73-.61,10.9.07C966.33,599.33,964,612.43,961,626.56Z"/><path class="cls-2" d="M460.45,961.45l10.67-78.1c14,.1,27,3.8,39.81,5.06,1.91,4.27.66,7.41-.6,10.83-8.39.88-16.53-3.26-25.3-1.73-2.23,5.74-2.71,11.65-2.94,17.78,7.43,4.15,15.94,1.7,23.2,5.57,1.23,3.3-1.22,6.12-1.12,9.23-8.18,1.4-15.32-2.41-23.28-1.59-2.49,7.25-3.22,14.84-3.57,22.79,7.89,3.33,16.27,2.42,24,4.76,1.78,3.32,1.09,6.45-.62,10.59C487.55,966.19,474.51,963.55,460.45,961.45Z"/><path class="cls-2" d="M212.61,679.63h6.17c7.8,12.56,13.52,26.24,20.61,39.2,1.24,2.27-.29,3.81-.26,5.7l.3-.22c-2-.25-3.69,0-4.4,2.2l.2-.29c-3.56,1-5.67-.54-7.2-3.75-1.43-3-2.44-6.34-6.27-9.48l-58.1,29.33c-4.48-2.48-4.79-7.29-7.84-12.15l59.4-30.77c-.84-6.92-6.32-11.55-6.57-18l-.16.27c2.31.94,4.18,1,4.4-2.21Z"/><path class="cls-2" d="M367.87,844.67c5,1.54,8.65,3.19,12.72,6.86-10.16,19.38-20.47,39-30.75,58.6,7.29,6.06,15.56,8.68,22.47,13.57.43,3.84-1.77,6.37-4.55,10l-36.85-19.47Z"/><path class="cls-2" d="M822.1,256.26c2.77-1,4.24-.48,5.47.9-8.5,32.61-8,36,5.84,38.82,9.66-5.66,5.24-17.39,11.31-27.08l30.2,34.57c-2.22,4.22-5.73,6.11-9.53,9.12l-18.9-21.08c-1.91,5.56-3.11,10-5,14.22-4.51,10.32-14,12.1-21.79,4s-8.74-18.08-6.54-28.5A108.51,108.51,0,0,1,822.1,256.26Z"/><path class="cls-2" d="M239.13,724.53c8-.85,8.48,6,12,11.57l-66,41.33c-4.37-3.21-6.2-7.16-8.5-12.12,17.08-10.74,34.26-21.41,51.27-32.35,2.72-1.75,7.15-2.06,7.3-6.74l-.2.29c2.63,1.6,3.74.14,4.4-2.2Z"/><path class="cls-3" d="M388.12,500c-4.24,5.8-6.9,10.62-10.66,14.34-7.64,7.56-16.71,13-27.86,13.12-30.92.18-61.84.08-92.76,0a39.28,39.28,0,0,1-5.37-1C256,457.92,280,397.88,325.94,347c5.51,1,7.57,4.87,10.35,7.62,17.81,17.62,35.07,35.83,53.28,53,11.89,11.23,14.2,24,10.05,38.84-.53,1.9-1.64,3.74-.16,6.65,5.61-.09,11.44-2.11,17.46-2,7.37.12,14.47,1.32,20.18,5.86,13.25,10.55,24.69,23,36.39,35.58-6.94,10.86-11.2,22.23-14.3,34.35C431.29,528.57,403.32,532.44,388.12,500Z"/><path class="cls-3" d="M680.77,628.7c-36.29,8.81-51.62-19.91-73.3-39.48A124.7,124.7,0,0,0,622,553.61c15,0,29.69-1.83,43.92.83,14.4,2.7,24.4,12.63,31.21,26.42,5.13-6.13,7.78-13.21,13.45-18.13,6.39-5.54,13.23-9.2,21.92-9.19,29.19,0,58.38-.1,87.57-.11,2.66,0,5.47-.36,7.81,1.5,2.83,50.9-26.49,131.84-73.42,179.27-4.19-1.39-6.78-5-9.79-8-17.74-17.67-34.84-36-53.32-52.92-11-10.07-13.29-21.28-10.82-34.75.37-2,.72-4,1-6C681.57,631.87,681.27,631.21,680.77,628.7Z"/><path class="cls-3" d="M589.91,474.36c-11.92-8-24-11.47-36.14-15.62,0-15.22-.75-30.18.24-45,.79-11.73,8.09-20.57,17.25-27.65,2.89-2.24,6-4.25,9.54-6.79-20.63-10.7-28.56-27.21-27.55-49.51,1-22,.19-44.1.23-66.16,0-3.66-.6-7.44,1.58-11.84,68.46,4.41,128.52,28.49,181.73,76.66-8.67,7.85-16.59,14.67-24.11,21.9-10.75,10.32-21.87,20.38-31.6,31.61-9,10.43-19.59,12.25-32,9.75-3-.59-5.92-1.23-8.76-1.83-.55.87-1.3,1.52-1.18,1.95,5.33,20.45-2,36.06-17.28,49.68C610.77,451.38,601.05,462.79,589.91,474.36Z"/><path class="cls-3" d="M580.12,695.73c-6.5-4.39-13.88-8-18.46-15-5.13-7.82-8.56-16-8.26-25.68.33-10.49.08-21,.08-32.32,12.18-4.31,24.41-8,35.53-15.15,11.09,11.13,22.34,21,31.8,32.39,7.23,8.69,7.2,20.14,5.79,31.19-.38,3-2.39,5.69-1.22,8.75a3.85,3.85,0,0,0,3.78,1.24c17.45-4.84,31.84.9,44.86,12.4,21.31,18.82,40.34,39.9,60.74,59.44-29.76,38.41-134.84,82-179.83,75-2.21-3.69-1.48-7.86-1.49-11.85-.06-24.43.62-48.88-.18-73.29-.65-19.77,7.3-33.89,23.87-43.81a17.91,17.91,0,0,0,2.4-1.86C579.74,697,579.77,696.6,580.12,695.73Z"/><path class="cls-3" d="M457.05,399.39c-26.16,7.23-44.52-4.89-61.23-21.68-16.45-16.52-33.09-32.87-50.51-50.15,51.75-47,111.63-71.09,179.55-75.82,3.9,3.8,2.61,8.11,2.63,12,.14,22.08-.77,44.21.33,66.24s-7.18,38.11-26.19,48.79c.33.86.39,1.81.82,2,19.3,9.58,27.56,24.83,25.28,46.43-1.06,10.07-.18,20.35-.18,31.41-11.81,4.18-24.12,7-34.56,15.12-12.39-10.91-24.1-21.73-33.94-34.15-6.13-7.74-5.82-17.85-4.46-27.47C455.14,408.22,456.08,404.35,457.05,399.39Z"/><path class="cls-3" d="M252.21,554.94c4.66-2.28,9.14-1.47,13.48-1.48,25.46-.07,50.93.34,76.39-.12,19.16-.35,33.3,7.25,42.76,23.81a36.4,36.4,0,0,0,2.77,3.58c2.43-3.91,4.41-7.4,6.67-10.69,7.38-10.71,17.05-17.06,30.66-16.63,11.16.35,22.34.07,33.82.07,3.59,12.82,8,24.46,15.06,36.07-13.52,13.27-26.36,26.79-40.24,39.15-8.08,7.19-18.8,6.95-29.13,5.23-3.31-.55-6.57-1.47-9.55-2.15-1.6,1.33-1.42,2.66-1.14,4,4.06,19.28-1.77,35.31-15.66,48.94-15.47,15.2-30.67,30.66-46,46a41.53,41.53,0,0,1-4.6,3.54C289.65,704.17,249.88,609.49,252.21,554.94Z"/><path class="cls-3" d="M345.62,754.12c12.24-12.4,23.83-24.19,35.46-35.92,6-6,12.51-11.51,17.91-18,10.72-12.87,24.49-14.42,39.67-12.25,2.56.36,4.86,2.46,7.77,1.22,1.68-3.47-.34-6.58-.92-9.8-2-10.86-.47-21.38,6.29-30,11.9-15.15,26.18-28.11,40.64-41.94,10.7,7.48,22.73,10.88,34.72,15,.19,28.11,7,57.66-26,72.76.38,1.29.38,2.23.74,2.4,19.54,9.17,27.27,24.16,26,45.91-1.43,24-.31,48.16-.3,72.25v13.54C457.33,825.34,397.68,800.53,345.62,754.12Z"/><path class="cls-3" d="M622.06,527.49c-3.39-12.85-7.21-24-14.09-34.06,3.82-7.31,10.25-11.93,15.56-17.49,4.68-4.89,10-9.22,14.47-14.26,13.59-15.2,30.1-19.87,49.63-14.58,1.29.35,2.62.54,4.64.94.92-7.35-2.07-14-2-21,.16-13.7,8.5-23.93,16.06-33.11,14.14-17.18,30.83-32.26,47.14-48.92,47,52.5,71.66,112.1,75.78,180-4.58,3.51-8.81,2.46-12.75,2.49-24.47.14-48.95-.39-73.41.28-19.4.53-33.14-7.73-42.91-23.83a27.13,27.13,0,0,0-1.75-2.49c-.19-.25-.57-.35-1.19-.7-2.77,4.06-5.14,8.53-8.43,12.16-8,8.89-18,14.43-30.29,14.54C646.68,527.58,634.83,527.49,622.06,527.49Z"/><path class="cls-4" d="M221.23,266.26c3.91,1.95,6.68,4.22,8.62,8.43-2.15,11.11-14.76,19.78-9.2,33.8a341.23,341.23,0,0,1-38.48,12.71C190.65,298.36,206.8,282.94,221.23,266.26Z"/><path class="cls-4" d="M216,339.73a113.51,113.51,0,0,1-24.34-13.93l26.48-8.73C220.33,325,222.19,332,216,339.73Z"/><path class="cls-4" d="M893.44,635.19c-.17-.51-.34-1-.53-1.57,1.6.41.61,1.13.28,1.77Z"/><path class="cls-4" d="M586.76,153.37c-8.35,6.59-17.22,9.85-26.37,11.95-8.15,1.87-13.15-4-10.66-12,2.09-6.75,6.65-11,14.1-10.92C572.66,142.48,580.31,145.44,586.76,153.37Z"/><path class="cls-4" d="M479.21,119.73c3.48,5.34,9.32,2.31,14.68,3.94.62,7.17,1.25,14.45,1.88,21.66-10.71,4.23-19.37,13.4-32.37,10.38-3.14-8.11-4.46-16.64-6.46-24.94,5.47-3.91,11.48-3.56,16.83-5.27,2.38-.77,4.68-1.09,4-4.41A11.13,11.13,0,0,1,479.21,119.73Z"/><path class="cls-4" d="M744.14,173.59a81,81,0,0,1,20,11.24c-4.68,8.39-9.22,16.54-14.18,25.42-11.2.83-22.64,2.67-32.49-5.47-3-2.49-2.7-3.18-.3-9.82,6.63-3.62,13.07,2.71,20,.4C743.19,189.6,740.07,180.61,744.14,173.59Z"/><path class="cls-4" d="M339.14,196.61c-3-6.46-10.16-9.39-15.28-15.76,6.52-4.3,13.34-7.53,21.14-11q6.93,13.06,13.63,25.73c-3.8,8.84-8.67,16.15-15.77,21.62-6.5,5-10.1,4.12-14.51-2.54,0-4.27,3.53-6.31,5.93-9.05C336.5,203,339.17,200.77,339.14,196.61Z"/><path class="cls-4" d="M549,902.82c3.44,6.22,4.52,12,.4,16.84-4.45,5.2-10.79,3.83-17.45,2.85-.34-6.68-.65-12.94-1-19.61A26.59,26.59,0,0,1,549,902.82Z"/><path class="cls-4" d="M264.85,774.11a15.73,15.73,0,0,1-6.28,10.15c-9.07,7.09-18.26,14-27.69,20.66-5.2,3.65-11,4.38-15.25-1.6s-1.77-11.24,3.13-15.18c9.51-7.63,19.28-15,29.19-22.07,3.69-2.66,8.12-3.6,12.38-.65A10.47,10.47,0,0,1,264.85,774.11Z"/><path class="cls-4" d="M201.15,670l-28.73,15.45c-3.43-3.18-3.61-7.08-4.64-11.47Z"/><path class="cls-4" d="M212.89,679.45c-.22,3.21-2.09,3.15-4.4,2.21A4.27,4.27,0,0,1,212.89,679.45Z"/><path class="cls-4" d="M334.84,846.4c-.26,9.88-7.06,16.87-10.44,25.31-4.61-.46-7.09-3.08-10-6.07a132.68,132.68,0,0,1,20.58-19Z"/><path class="cls-4" d="M335,846.61l1.21-1.16c.25,1.4-.22,1.68-1.38.95Z"/><path class="cls-4" d="M239.43,724.31c-.66,2.34-1.77,3.8-4.4,2.2C235.74,724.28,237.47,724.06,239.43,724.31Z"/></svg>