<svg id="Layer_1" data-name="Layer 1" xmlns="http://www.w3.org/2000/svg" viewBox="0 0 1080 713"><defs><style>.cls-1,.cls-7{fill:#203a8e;}.cls-2{fill:#fcfcfc;}.cls-3{fill:#f31c15;}.cls-4{fill:#354890;}.cls-5{fill:#fff;}.cls-6{fill:#ec3136;}.cls-7{font-size:172.12px;font-family:Montserrat-Bold, Montserrat;font-weight:700;}.cls-8{fill:#231f20;}</style></defs><title>nss</title><path class="cls-1" d="M573.91,275.33V260c1.2-3.15.66-6.46,1-9.7,3.42-38.76,15.71-74.42,38.33-106.13q58-81.42,157.71-92.67c4.9-.54,9.9.07,14.7-1.4h13.66c.9,1,2.12.62,3.21.67,44.91,2.08,85.74,16.19,121.09,43.86,63.92,50,92.46,116.14,85.39,196.92-3.86,44.12-20.84,83.47-49.8,117-50.46,58.36-114.71,83.82-191.45,76.42-43-4.15-81.28-20.87-114.43-48.58q-64.68-54.07-76.95-137.73C575.2,290.89,574.7,283.09,573.91,275.33Zm90.5,70.72c-.06,2-1.92,2.09-3.06,2.83-7.12,4.57-14.3,9-21.45,13.53,1,2.08,1.72,3.73,3.56,5.08l27.6-17.3c-1.47-2.33-1.68-5.2-5-4.84,0-.79.63-1.44.11-2.39-3-5.42-5.36-11.15-8.63-16.41h-2.58c.28-1,1.67-1.14,1.8-2.66a28.94,28.94,0,0,0-2.47-7l-33.54,2.68c.38,2.51.78,4.38,1.86,5.92,2.88.6,5.51-1.12,8.28-.12a16.6,16.6,0,0,1,1.91,6.36c-2.09,1.86-4.89,2.48-6.8,4.51.57,2,.6,4,2.25,5.58l25.06-14.49c.1,2.7,2.39,4.64,2.74,7.54L631.18,347.7c1.27,2,1.4,4.05,3.27,5.09l24.32-12.27a9.39,9.39,0,0,1,2.63,4C662,345.83,662.92,346.46,664.41,346.05ZM765.9,92.8l-4.09-3.3c-7.9,1.73-15.9,3.36-23.86,5.77a12.61,12.61,0,0,0,3.86,4.32c3.09,0,5.93-1.83,9.42-1.5.35,3.22,1.93,6.13,1.85,9.62-2.24,0-4.89-1.82-5.92,2.2,4.28,7.07,12,10.9,18,16.88,1-1.09,2.08-1.62,1.81-3.05-3.4-2.43-7.22-4.36-10-7.71,1.22-1.85,2.31-3.48,3.53-5.31,2.06,1.08,4.17,2.24,6.46,1.56s4.35-1.7,6.83-2.7c.34,3.32.63,6.25.93,9.18a15.12,15.12,0,0,0,5.86,3.4c-.61-9.87-1.2-19.4-1.77-28.67,2.51-1.39,5,0,7-1.52a8.86,8.86,0,0,0-2.91-4.43c-1.38-.58-2.79.34-4-.84-3-4.54-5.95-9.46-10-13.46-3.24-3.15-5.8-3.53-9.68-1.43.89,1.84,1.48,3.85,3.13,5.51,8.27-1.72,9.95,5.53,14.7,10.11L765,88.62c-.09,1.6,1.32,2.34,1.51,3.61A4.76,4.76,0,0,0,765.9,92.8ZM939.77,308c1.69-.86,3,.41,4.42.87,6.86,2.2,13.69,4.51,20.9,6.91.59-2.12,1.63-3.64,1.46-6l-30.82-10.18a42.81,42.81,0,0,0-3.09,9.52l18.06,10.39c-7.46-.49-14.24-1.77-21.39-1.85-1.55,9-7.15,15.94-10.22,24.26,9.87,5,19.43,9.91,29.38,15,2.72-5.39,5.24-10.38,7.8-15.43a11.79,11.79,0,0,0-4.19-2l-5.14,9.58c-3.24-1.58-6.28-2.64-8.86-4.84l4-8.64a6.32,6.32,0,0,0-4.12-2c-1.46,2.77-3,5.6-4.57,8.63-2.7-1.39-5.32-2-7.21-4.3l4.89-9.53,27.06,8.72c.64-2.18,1.68-3.71,1.46-6-8.22-2.6-16.41-5.6-24.83-7.94,9.1-.07,18.05,1.53,27.18,1.89.46-1.16,1.35-2,.75-3.56L939.87,308Zm-270.07-169c-2,.79-3.89-.85-6,0-3.93,4.51-8,9.11-12,13.72-3.35,3.86-7.62,7.27-9.83,11.7-4.06,8.1-9.34,15.48-12.76,24-4,9.92-9,19.44-11.85,29.83-1,3.49-2.47,6.83-3.28,10.87l5.84-1.24c1.09-3.13,2.15-6.17,3.35-9.63,3.29,1.3,6.74,1.27,9.37,3.51-.73,2.19-3.94,3.42-1.18,6.72,7.7-1.74,15-5.32,22.52-8.07,0-1.48-.34-2.31-1.46-2.7-3.85,1.33-7.31,3.7-11.62,4.5-2.21-7.89-10.34-6.43-15.57-9.91,1.29-5.31,2.75-10.37,6.42-14.61l22.77,10.44,6.35-3.39-27-12.65c1.67-3.63,2.8-7.1,5-10.14,3.58,1.33,6.45,3.46,9.5,5.23a9.29,9.29,0,0,0,8.18.61c5.46-1.87,8-5.61,7.06-11.33,14.14-1.19,20-6.32,19.7-17-1.82-.46-3.59-1.38-5.7-1-1,3.85-1.13,7.78-3.24,11.09-1.25,2-2.84,3.75-5.43,3.53s-3.85-2.11-4.43-4.45c.57-5,4.5-8.57,5.17-13.33-1.56-3-4.86-4.12-6.52-6.81.93-2,2.75-3.3,4-5,1.07-1.42,2.84-2.48,2.44-4.66,1.16-1,2.45.61,3.59-.17,1.18-.51,1.8-1.88,3.65-2l16.26,19.16c2.28-.27,4.38.09,6.8-.9l-18.6-22.33c1.39-2.39,3.92-3.24,5.14-5.75l-5.19-1.61c-2.19.92-3.3,2.82-5.39,3.44-1.59-1.09-3.16-2.3-4.86-3.31-3-1.79-6.17-2.88-9.73-2.07-4.11.93-7.56,4.84-7.66,8.64-.07,3.22,1.77,5.19,6.09,6.47a3.93,3.93,0,0,0,2.28-2.34c-2.63-4.54-2.45-6.86.68-8.66,3.35-1.94,8.19-.22,10.68,3.8-1.72,2-4.29,3.21-5.66,5.26C667.58,138.27,670,137.4,669.7,139.05Zm27.76,34.1a134.68,134.68,0,0,0,2.32,192.65C750.3,414,830,415,882.74,367.51c52.2-47,58.63-127.07,14.27-182.86-21.81-27.43-50.51-44-85.18-48.93-42.68-6-80.08,6.35-111.7,34.89a70.52,70.52,0,0,0-14.94-2.85,64.11,64.11,0,0,0-1.89,12,6,6,0,0,0,4.67.63c1.68-2.76.63-6.24,2.6-9.12C692.7,172.29,695.14,171.66,697.46,173.15Zm262.87,45.19-24.13,7.6c-.75,2-1.82,3.81-2,6.37,9.66-2.16,18.5-6,27.65-7.93,1.85,2,1.3,4.74,3.18,6.49a16.24,16.24,0,0,0,1.27-1.1c.86-.94,1.67-1.91,2.25-2.58C965,209.28,958,193,949.7,177.35c-.81-.42-1.16.94-2,.4-.25-.94.59-1.95-.06-2.84-3-4.09-4.72-9-7.82-12.89-6.55-8.21-13.68-16-20.62-23.86-.78-.89-1.33-2.18-2.81-2.38a15.25,15.25,0,0,0-1.75,5.19c7.14,10,17.18,17.68,22.85,29.07l-20.92,14.27v6.94L940.91,175c6.47,7.8,9.5,17,13.59,25.48a10,10,0,0,1-5.41,2.58c-2.94-4.78-4.38-10.38-7.58-15-5.11,1.74-7.85,7.42-5.59,11.08,1.48.47,2.57-1.25,4.58-.57a35,35,0,0,1,3.29,7.42l-12,5.67a16.79,16.79,0,0,0-1.19,7.15l26.26-12.16C960.68,210,959,214.34,960.33,218.34ZM830.44,97.11q-2.58,12.54-5,24.53c1.56,1.73,2.47,3.55,4.77,4.74,2.09-9.54,4.15-18.88,6.23-28.35l7.37,1.31a15.62,15.62,0,0,0-2-6c-5.84-1-11.73-3-18-3-1.09-.1-1.28-1.57-2.47-1.76L785.4,86c1,2.45,1.51,4.33,3,5.64,8,.93,15.93.8,23.82,2.22-.3,2.76.24,5.28-1.07,7.7-6.07-6-12.08-7.22-17.18-3.63-3.47,2.45-4.46,6.46-2.61,10.6,3.18,7.11,7.78,8.49,19,5.71,1.11,1.56-.45,3.33.53,5.28a14.48,14.48,0,0,0,5.43,3.57c.7-9.79,1.37-19.23,2-28.56C822.91,93.26,826.31,95.46,830.44,97.11Zm66.29,21.72-32.45-17.94c.17,2.74-.11,4.64.58,6.51,2.8,2,6.17,3,8.66,5.3.12,1.8-.12,3.27-1.48,4.42-3,1-5.78-1.15-8.95-.41-1.36,4.89-1.66,9.72.76,14.43s7.29,5.12,11.95,5.47c-.3,2.24-2.15,3.39-2.32,5.49a24.64,24.64,0,0,0,3.39,5.82l14.27-25.48c2.23.44,3.47,2.11,5.59,2.28ZM716,103.62,683.43,121c2.22,1.54,3.59,2.76,5.43,3.23l8.85-4.47c2,.72,3,1.76,3.32,3.64-.88,2.82-3.64,4.44-5.23,6.8,7.09,9.82,15,10.11,23.75,1,1.61,1.1,1.49,3.37,3.27,4.63a18,18,0,0,0,6.55.12c-4.62-8.77-9-17.14-13.36-25.34,1.2-2,3.54-1.92,4.76-3.93ZM825.69,417c3.74,8.31,5.47,17.22,9.14,26,1.76-1.45,3.89-.91,5.4-2.67-3.58-10.16-6-20.68-9.84-30.95l-11.23,2.9v26.39h-.62c-2.82-8.4-5.65-16.81-8.45-25.13-2.42.06-4.44-.3-6.28,1.37l11.61,30.88a28.9,28.9,0,0,0,8.18-1.07C824.31,435.41,825,426.22,825.69,417Zm-179-128.46L615,295.85a14.26,14.26,0,0,0,1.17,5.86c7.08-1.27,13.84-3.17,20.73-4.68l-18.57,12.82a14.87,14.87,0,0,0,1.37,6.48l32-7.35c-.44-2.16-.56-4-1.62-5.77-7.32,1.12-14.32,3.3-21.51,5.06,6.79-4.31,13.33-8.88,19.71-13.4A13.43,13.43,0,0,0,646.72,288.57ZM679,408l22.66-23.51c-1.25-1.94-2.43-3.41-4.32-4.24-5.32,4.77-9.64,10.29-14.68,15.23,3.07-7.05,5.83-14.11,8.67-21.13a13.55,13.55,0,0,0-4.74-4.45c-7.64,7.91-15.13,15.64-22.66,23.44a10.84,10.84,0,0,0,4.35,4.07c5.3-4.69,9.54-10.19,14.49-15-2.82,7.16-5.93,14.1-8.27,21.18A20.36,20.36,0,0,0,679,408Zm103.11,6.45c-.06,11.7.52,22.42,1.15,33.3a14.26,14.26,0,0,0,5.88-.33V433.84c2.59-.47,4.83-.75,7.14.68,2.26,3.78.65,8.54,2.56,12.81a18.5,18.5,0,0,0,6.3-.53c-2.82-5.32.91-12.35-5.18-16.78,3.89-2.88,4.31-6.83,2.83-11s-5.29-4.64-9.14-4.61C790,414.42,786.28,414.4,782.08,414.4Zm-99.33-48.15c.17-7.25-8.12-12.67-15.11-9.17a56.87,56.87,0,0,0-15,11.05c-4.57,4.65-4.58,8.05-.42,13.51,3.74,4.91,7.73,6,12.95,3.06a68.64,68.64,0,0,0,14.55-11A10.37,10.37,0,0,0,682.75,366.25Zm262.38-4.6L918.32,342.9c-1.46,1.64-2.8,3.05-3.21,5.18l10.26,7.48c-1.89,2.38-3,4.81-5.18,6.76l-10.29-7.1c-1.62,1.57-2.93,3-3.33,5.19l26.49,18.52a13.15,13.15,0,0,0,3.47-4.85c-3.75-3.33-8.26-5.52-11.93-9.05l4.58-6.47c4.81,2.08,8.18,6,12.65,8A12.91,12.91,0,0,0,945.13,361.65Zm-54.82,43.17c2.81,4.69,5.61,6.5,9.17,6.08,4.15-.49,9-4.47,10-8.28,1.11-4.1-.59-7.23-3.53-9.84-2.42-2.16-5.46-2.22-8.47-2.06-2.56.13-5.1.46-7.65.61-2,.12-3.81-.44-4.4-2.55a3.08,3.08,0,0,1,2.07-4.1c3.12-.55,4.1,1.88,6,2.33,1.36-1.18,3-1.86,3.7-3.51-3.35-4.52-6.8-5.76-10.92-4-4.78,2.06-7.85,6.62-7.07,10.53.94,4.71,4.77,7.52,10.45,7.5,2.41,0,4.82-.3,7.23-.41a8.56,8.56,0,0,1,4.2.45,4.38,4.38,0,0,1,2.67,3.59,3.33,3.33,0,0,1-2,3.46c-1.58.87-3,.35-4.37-.56-1.18-.77-1.58-2.4-3.14-2.74A15.25,15.25,0,0,0,890.31,404.82ZM695.78,419.87c1.85,1.37,3.23,2.74,5.55,3.4,4.45-10.31,8.82-20.41,13.2-30.54a29.14,29.14,0,0,0-6.94-5l-25.48,22a23.45,23.45,0,0,0,5.09,3.73c2.45-1.67,3.95-4.1,6.6-5.12,1.88,1.31,4,2.25,5.41,4.12Zm63.28,1.32c2-4.6,1.55-8-1.39-10.45-3.48-2.94-9.66-3.8-12.75-1.78-3.79,2.5-4.81,8-2.27,12.6,1.52,2.75,3.78,5,5.64,7.47,2.48,3.38,2.09,5.58-1.33,8.21a4.19,4.19,0,0,1-3.79-1.42c-1.76-2.19-.12-4.64-.25-6.72a3.79,3.79,0,0,0-2.47-1.23c-.93-.23-1.82-.92-2.84-.31-2.58,5.86-1.93,9.67,2.12,12.43,4.69,3.18,10.61,3.22,13.85.1,3.51-3.4,3.83-8.81.61-13.66-1.41-2.11-3.17-4-4.76-6s-2.4-3.86-1.07-6.21c1.87-1.57,3.61-1.41,5-.08,1.55,2,.42,4,1,5.83C755.86,420.58,757.35,421.35,759.06,421.19Zm96.47-9.87a6.31,6.31,0,0,0-1.45-3.59c-2.5-3.84-5.39-4.84-9.91-3.49-5,1.5-8.19,4.7-7.62,8.93a46.72,46.72,0,0,0,9,22.23c1.83,2.41,4.54,3.14,7.66,2.39,8.66-2.09,11-7.38,6.86-15.7a8.2,8.2,0,0,0-5.18,2.16c.36,2.5,1.9,4.76.35,7.25-2.45,1.87-4.58,1.2-5.94-1.33A74.38,74.38,0,0,1,842.7,414c-.91-3.41.44-4.57,4.32-4.64,1.92.73,2.11,3,3.81,4Zm51.66-306.11c-2.28,1.68-2.19,4.13-2.66,6.28,5.13,4,6.07,8.88,3.32,16.76-3-1.31-4.72-4.29-7.64-5.75a9.69,9.69,0,0,0-1.13,5.49c.61,1.54,2.55,2,2.88,3.91-5.33,6.21-10.75,12.53-16.08,18.76.43,2.36.24,4.53,1.76,6.67l19.22-21.86,6.1,4.77c.56-2.41,1.12-4.24.81-6.07-.95-1.62-2.91-2.12-3.45-4.15a88.15,88.15,0,0,0,2-14.07C912.63,111.7,912.09,107.68,907.19,105.21Zm-4.34,265c2.91-1.33,4.54,1.17,6.63,1.44,1.36-1.3,2.73-2.31,3.38-3.93-4.51-4.73-8.5-5.33-12.61-1.93-5.2,4.3-6.14,9.13-2.23,14.11a55.93,55.93,0,0,0,14,13c4.87,3.08,8.86,2.06,13-2.85,3.16-3.76,3-7.73-.56-11.9a7.52,7.52,0,0,0-2.89-2.62c-1.41,1.26-3,2.38-3.66,4.25,1.37,2.27,4.12,3.65,3.27,6.72a4.64,4.64,0,0,1-3.69,2.28c-6-3.13-10.8-8.3-15.38-13.67C900.83,373.63,901.21,371.64,902.85,370.24ZM853.58,401c5.26,9.88,10.34,19.45,15.62,29.37l15.15-8.09c-.56-1.79-1-3.12-2.31-4.08l-9.4,4.87a48.4,48.4,0,0,1-4.67-8.74c2.44-2.52,6-3,8.29-5.26-.42-1.57-.88-2.86-2.37-3.71l-8.51,4.37c-1.27-2.58-3-4.62-3.73-7.4l9.25-5.2a6.35,6.35,0,0,0-2.3-4.11Zm114.58-96.64a128.05,128.05,0,0,0,2.62-17.14c-1.75-.29-3-1.08-4.57,0-.92,3.25-.73,6.86-2.05,10.32-3.39-.9-6.72-.54-9.57-2.16-.17-3.31,1.41-6.27.85-9.49-1.33-.38-2.62-.9-3.93-.54-1.5,3.13-.66,6.67-2.57,9.84-2.32-1.08-5-.37-7.2-1.79-.64-3.7,1.33-7.06.77-10.53a5.23,5.23,0,0,0-4.21-.37c-1.12,5.48-2.42,11-2.56,16.7ZM758.66,444.5c5.89.88,11.34,2,16.86,2.17.72-1.73,1-3,.26-4.43-3.25-1-6.75-.6-10-2a33.38,33.38,0,0,1,1.49-9.53c3.33-.34,6.32,1.25,9.74.66,0-1.3,1-2.48.47-3.86-3-1.62-6.6-.59-9.71-2.33a22.55,22.55,0,0,1,1.23-7.44c3.67-.64,7.08,1.09,10.59.72.53-1.43,1.05-2.74.25-4.53-5.37-.53-10.8-2.08-16.66-2.12C761.62,422.87,760.17,433.5,758.66,444.5Zm-38.74-48.87-15.47,29.1,15.42,8.15c1.17-1.51,2.09-2.57,1.91-4.18-2.89-2.05-6.35-3.14-9.41-5.68l12.88-24.52A12.74,12.74,0,0,0,719.92,395.63ZM910,149.37a45.28,45.28,0,0,0-3.72,10.43c-.92,4.37-.5,8.54,2.74,11.93s7.23,2.67,9.12-1.66c.76-1.75,1.27-3.62,2.06-5.95l7.92,8.82c1.59-1.25,3.05-2,4-3.81l-12.64-14.47c-2.54,4.06-.7,9-4.74,11.34-5.8-1.2-6-2.61-2.44-16.25C911.79,149.17,911.18,149,910,149.37Z"/><path class="cls-2" d="M697.46,173.15c-2.32-1.49-4.76-.86-6.89-1.93-2,2.88-.92,6.36-2.6,9.12a6,6,0,0,1-4.67-.63,64.11,64.11,0,0,1,1.89-12,70.52,70.52,0,0,1,14.94,2.85c31.62-28.54,69-40.92,111.7-34.89,34.67,4.91,63.37,21.5,85.18,48.93,44.36,55.79,37.93,135.88-14.27,182.86C830,415,750.3,414,699.78,365.8A134.68,134.68,0,0,1,697.46,173.15ZM728.4,251.4c6.36,13.55,18.06,11.93,29.74,11.25a48.26,48.26,0,0,1,6-14.38c-4.89-5.27-9.68-10.47-15.23-14.89-2.39-1.9-5.36-2.4-8.44-2.45-2.52,0-5,.8-7.31.84a3.16,3.16,0,0,1,.07-2.78c1.74-6.23.77-11.56-4.21-16.26-7.62-7.19-14.84-14.81-22.3-22.19-1.16-1.15-2-2.79-4.33-3.18-19.22,21.28-29.26,46.41-31.16,75.14a16.08,16.08,0,0,0,2.24.4c12.94,0,25.88.06,38.82,0,4.67,0,8.47-2.33,11.66-5.49C725.51,255.84,726.62,253.82,728.4,251.4Zm122.47,53.84a8.89,8.89,0,0,1,.31,1.59c-.11.84-.26,1.67-.41,2.51-1,5.64-.09,10.33,4.53,14.54,7.73,7.06,14.89,14.75,22.31,22.15,1.26,1.25,2.35,2.78,4.1,3.36,19.64-19.85,31.91-53.72,30.73-75-1-.77-2.16-.62-3.27-.62-12.22,0-24.43.06-36.65.05-3.64,0-6.5,1.52-9.17,3.84-2.38,2.06-3.49,5-5.63,7.59-2.85-5.77-7-9.93-13.06-11.06s-12.1-.33-18.38-.35a52.34,52.34,0,0,1-6.09,14.91C829.27,296.91,835.68,308.93,850.87,305.24Zm-38-64.59c4.66-4.84,8.72-9.62,13.36-13.75,6.4-5.71,9.47-12.24,7.24-20.79-.05-.18.26-.46.49-.82,1.19.25,2.43.52,3.67.77,5.19,1,9.61.28,13.39-4.09,4.07-4.7,8.73-8.91,13.22-13.23,3.15-3,6.47-5.88,10.09-9.16-22.27-20.16-47.4-30.24-76-32.08-.91,1.84-.66,3.42-.66,4.95,0,9.23.32,18.48-.1,27.69s2.9,16.24,11.53,20.72c-1.5,1.06-2.78,1.9-4,2.84-3.83,3-6.89,6.67-7.22,11.57-.42,6.21-.1,12.47-.1,18.84C802.81,235.85,807.85,237.32,812.85,240.65Zm-4.1,92.64c-.15.37-.16.52-.25.6a8.39,8.39,0,0,1-1,.78c-6.94,4.15-10.27,10.06-10,18.33.33,10.22,0,20.45.07,30.67,0,1.67-.3,3.42.62,5,18.83,2.92,62.81-15.3,75.27-31.38-8.54-8.18-16.5-17-25.42-24.87-5.45-4.82-11.47-7.22-18.78-5.19a1.62,1.62,0,0,1-1.58-.52c-.49-1.28.35-2.43.51-3.66.59-4.63.6-9.42-2.42-13.06-4-4.76-8.67-8.89-13.31-13.55-4.65,3-9.77,4.53-14.87,6.34,0,4.74.1,9.13,0,13.52A18.18,18.18,0,0,0,801,327C802.94,329.94,806,331.45,808.75,333.29Zm-51.51-124c-.41,2.08-.8,3.7-1,5.34-.57,4-.69,8.25,1.87,11.49a113.39,113.39,0,0,0,14.2,14.3c4.37-3.38,9.52-4.58,14.47-6.33,0-4.63-.37-8.93.07-13.15.95-9-2.5-15.42-10.58-19.43-.18-.09-.2-.49-.34-.85,8-4.47,11.42-11.18,11-20.42s-.08-18.48-.14-27.72c0-1.63.53-3.43-1.1-5-28.42,2-53.49,12.06-75.14,31.73,7.29,7.23,14.25,14.07,21.14,21S746.29,212.3,757.24,209.27Zm-85.73,65.1c-1,22.83,15.67,62.46,31.5,75a18.6,18.6,0,0,0,1.92-1.48c6.43-6.41,12.8-12.88,19.27-19.24,5.81-5.71,8.26-12.41,6.55-20.48a1.47,1.47,0,0,1,.48-1.67c1.25.28,2.61.67,4,.9,4.32.72,8.81.82,12.19-2.19,5.81-5.17,11.18-10.83,16.84-16.39a58.23,58.23,0,0,1-6.3-15.09c-4.81,0-9.48.12-14.16,0-5.69-.18-9.74,2.48-12.83,7-1,1.38-1.77,2.84-2.79,4.47a17.62,17.62,0,0,1-1.16-1.49c-4-6.94-9.87-10.11-17.89-10-10.66.19-21.32,0-32,.05C675.34,273.76,673.46,273.42,671.51,274.37Zm39.1,83.36c21.78,19.42,46.75,29.81,76.12,31.46v-5.67c0-10.08-.47-20.19.13-30.24.54-9.1-2.69-15.37-10.87-19.21-.15-.07-.15-.46-.31-1,13.82-6.32,11-18.69,10.91-30.45-5-1.71-10.06-3.14-14.54-6.27-6,5.79-12,11.21-17,17.56-2.83,3.6-3.46,8-2.63,12.54.25,1.35,1.09,2.65.39,4.11-1.22.52-2.18-.36-3.26-.52-6.35-.9-12.11-.25-16.6,5.13-2.25,2.71-5,5-7.49,7.53C720.58,347.61,715.73,352.54,710.61,357.73ZM826.3,262.88c5.34,0,10.31,0,15.27,0,5.16-.05,9.31-2.37,12.67-6.09a45.19,45.19,0,0,0,3.53-5.09c.26.15.42.19.5.29a12.18,12.18,0,0,1,.73,1c4.09,6.74,9.84,10.2,18,10,10.24-.28,20.48-.06,30.73-.12,1.64,0,3.41.43,5.33-1-1.73-28.41-12-53.35-31.71-75.32-6.83,7-13.81,13.28-19.73,20.47-3.17,3.84-6.66,8.12-6.73,13.85,0,2.91,1.22,5.7.83,8.78-.84-.17-1.4-.24-1.94-.39-8.17-2.21-15.08-.26-20.77,6.1-1.88,2.11-4.1,3.92-6.05,6-2.23,2.32-4.92,4.26-6.52,7.32C823.28,252.82,824.88,257.51,826.3,262.88Z"/><path class="cls-2" d="M669.61,139c.4,2.18-1.37,3.24-2.44,4.66-1.27,1.69-3.09,2.95-4,5,1.66,2.69,5,3.8,6.52,6.81-.67,4.76-4.6,8.38-5.17,13.33.58,2.34,1.81,4.22,4.43,4.45s4.18-1.56,5.43-3.53c2.11-3.31,2.28-7.24,3.24-11.09,2.11-.42,3.88.5,5.7,1,.3,10.64-5.56,15.77-19.7,17,.95,5.72-1.6,9.46-7.06,11.33a9.29,9.29,0,0,1-8.18-.61c-3.05-1.77-5.92-3.9-9.5-5.23-2.18,3-3.31,6.51-5,10.14l27,12.65-6.35,3.39-22.77-10.44c-3.67,4.24-5.13,9.3-6.42,14.61,5.23,3.48,13.36,2,15.57,9.91,4.31-.8,7.77-3.17,11.62-4.5,1.12.39,1.45,1.22,1.46,2.7-7.5,2.75-14.82,6.33-22.52,8.07-2.76-3.3.45-4.53,1.18-6.72-2.63-2.24-6.08-2.21-9.37-3.51-1.2,3.46-2.26,6.5-3.35,9.63l-5.84,1.24c.81-4,2.31-7.38,3.28-10.87,2.87-10.39,7.85-19.91,11.85-29.83,3.42-8.48,8.7-15.86,12.76-24,2.21-4.43,6.48-7.84,9.83-11.7,4-4.61,8-9.21,12-13.72,2.09-.87,4,.77,6,0Zm-11.06,14.61c-6,7-12.8,13.43-16.35,23a142.64,142.64,0,0,0,16.11-5.32c-2.33-5.87,3-9.5,3.85-14.15A7,7,0,0,0,658.55,153.56Zm-2.17,30.74c2.57-3.23,1.79-6.14.89-9.48l-11.08,3.65A46.88,46.88,0,0,0,656.38,184.3Z"/><path class="cls-2" d="M960.33,218.34c-1.37-4,.35-8.32-3.5-11.67l-26.26,12.16a16.79,16.79,0,0,1,1.19-7.15l12-5.67a35,35,0,0,0-3.29-7.42c-2-.68-3.1,1-4.58.57-2.26-3.66.48-9.34,5.59-11.08,3.2,4.58,4.64,10.18,7.58,15a10,10,0,0,0,5.41-2.58c-4.09-8.53-7.12-17.68-13.59-25.48l-24.3,16.27v-6.94L937.53,170C931.86,158.65,921.82,151,914.68,141a15.25,15.25,0,0,1,1.75-5.19c1.48.2,2,1.49,2.81,2.38,6.94,7.9,14.07,15.65,20.62,23.86,3.1,3.89,4.86,8.8,7.82,12.89.65.89-.19,1.9.06,2.84.8.54,1.15-.82,2-.4C958,193,965,209.28,968.59,227.19c-.58.67-1.39,1.64-2.25,2.58a16.24,16.24,0,0,1-1.27,1.1c-1.88-1.75-1.33-4.46-3.18-6.49-9.15,1.94-18,5.77-27.65,7.93.14-2.56,1.21-4.36,2-6.37Z"/><path class="cls-2" d="M939.87,308l22.86,13.54c.6,1.56-.29,2.4-.75,3.56-9.13-.36-18.08-2-27.18-1.89,8.42,2.34,16.61,5.34,24.83,7.94.22,2.29-.82,3.82-1.46,6l-27.06-8.72-4.89,9.53c1.89,2.27,4.51,2.91,7.21,4.3,1.61-3,3.11-5.86,4.57-8.63a6.32,6.32,0,0,1,4.12,2l-4,8.64c2.58,2.2,5.62,3.26,8.86,4.84l5.14-9.58a11.79,11.79,0,0,1,4.19,2c-2.56,5.05-5.08,10-7.8,15.43-10-5.06-19.51-9.93-29.38-15,3.07-8.32,8.67-15.25,10.22-24.26,7.15.08,13.93,1.36,21.39,1.85l-18.06-10.39a42.81,42.81,0,0,1,3.09-9.52l30.82,10.18c.17,2.37-.87,3.89-1.46,6-7.21-2.4-14-4.71-20.9-6.91-1.42-.46-2.73-1.73-4.42-.87.14-.27.55-.57-.12-.74Z"/><path class="cls-2" d="M830.44,97.11c-4.13-1.65-7.53-3.85-12.1-2.58-.66,9.33-1.33,18.77-2,28.56a14.48,14.48,0,0,1-5.43-3.57c-1-2,.58-3.72-.53-5.28-11.26,2.78-15.86,1.4-19-5.71-1.85-4.14-.86-8.15,2.61-10.6,5.1-3.59,11.11-2.38,17.18,3.63,1.31-2.42.77-4.94,1.07-7.7-7.89-1.42-15.83-1.29-23.82-2.22-1.44-1.31-2-3.19-3-5.64l35.85,2.6c1.19.2,1.38,1.67,2.47,1.77,6.3,0,12.19,2,18,3a15.62,15.62,0,0,1,2,6L836.41,98c-2.08,9.47-4.14,18.81-6.23,28.35-2.3-1.19-3.21-3-4.77-4.74Q827.87,109.64,830.44,97.11Zm-18.91,9.2a11.8,11.8,0,0,0-9.6-4.61c-3.12,0-5,1.74-5.9,4.57-1,3.36,1.05,5.83,4.46,5A26.81,26.81,0,0,0,811.53,106.31Z"/><path class="cls-2" d="M766.52,92.23c-.19-1.27-1.6-2-1.51-3.61l11.89-1.19c-4.75-4.58-6.43-11.83-14.7-10.11-1.65-1.66-2.24-3.67-3.13-5.51,3.88-2.1,6.44-1.72,9.68,1.43,4.1,4,7,8.92,10,13.46,1.24,1.18,2.65.26,4,.84A8.86,8.86,0,0,1,785.74,92c-2,1.49-4.48.13-7,1.52.57,9.27,1.16,18.8,1.77,28.67a15.12,15.12,0,0,1-5.86-3.4c-.3-2.93-.59-5.86-.93-9.18-2.48,1-4.6,2-6.83,2.7s-4.4-.48-6.46-1.56c-1.22,1.83-2.31,3.46-3.53,5.31,2.82,3.35,6.64,5.28,10,7.71.27,1.43-.77,2-1.81,3.05-6-6-13.7-9.81-18-16.88,1-4,3.68-2.17,5.92-2.2.08-3.49-1.5-6.4-1.85-9.62-3.49-.33-6.33,1.47-9.42,1.5A12.61,12.61,0,0,1,738,95.27c8-2.41,16-4,23.86-5.77l4.09,3.3c.3,1.39-.67,1.53-1.66,1.85-2.24.71-4.76.57-7,2.2.83,3.47,1.38,7.05,2.7,10.44,5.44,1.26,9.06-2.57,13.55-4.34-.26-3-.53-6.07-.79-9.07C770.41,93.2,768,94.47,766.52,92.23Z"/><path class="cls-2" d="M896.73,118.83v5.89c-2.12-.17-3.36-1.84-5.59-2.28l-14.27,25.48a24.64,24.64,0,0,1-3.39-5.82c.17-2.1,2-3.25,2.32-5.49-4.66-.35-9.45-.62-11.95-5.47s-2.12-9.54-.76-14.43c3.17-.74,6,1.45,8.95.41,1.36-1.15,1.6-2.62,1.48-4.42-2.49-2.28-5.86-3.28-8.66-5.3-.69-1.87-.41-3.77-.58-6.51Zm-19.34-4.06c-1.7,2.94-.39,6.7-2.94,9.11-2.9,1-5.59-1.68-8.37-.16-1,2.77-1.13,3.07.13,4.11,4.12,3.4,8.91,2.63,13.6,2.29l5.93-10.64A33.93,33.93,0,0,0,877.39,114.77Z"/><path class="cls-2" d="M716,103.62l4.75,3.13c-1.22,2-3.56,1.9-4.76,3.93,4.33,8.2,8.74,16.57,13.36,25.34a18,18,0,0,1-6.55-.12c-1.78-1.26-1.66-3.53-3.27-4.63-8.79,9.08-16.66,8.79-23.75-1,1.59-2.36,4.35-4,5.23-6.8-.33-1.88-1.36-2.92-3.32-3.64l-8.85,4.47c-1.84-.47-3.21-1.69-5.43-3.23Zm-8.12,20.79c0,1.74-1.11,2.69-2,3.75s-2.46,2-2.48,3.78c1.85,2.79,3.35,3.16,6.07,1.07a21.85,21.85,0,0,0,6.6-9l-5.7-10.77a61.84,61.84,0,0,0-8.85,4.62C703.64,120.48,706.63,121.7,707.9,124.41Z"/><path class="cls-2" d="M825.69,417c-.69,9.19-1.38,18.38-2.09,27.71a28.9,28.9,0,0,1-8.18,1.07l-11.61-30.88c1.84-1.67,3.86-1.31,6.28-1.37,2.8,8.32,5.63,16.73,8.45,25.13h.62V412.29l11.23-2.9c3.86,10.27,6.26,20.79,9.84,30.95-1.51,1.76-3.64,1.22-5.4,2.67C831.16,434.25,829.43,425.34,825.69,417Z"/><path class="cls-2" d="M646.72,288.57a13.43,13.43,0,0,1,1.63,6.3c-6.38,4.52-12.92,9.09-19.71,13.4,7.19-1.76,14.19-3.94,21.51-5.06,1.06,1.81,1.18,3.61,1.62,5.77l-32,7.35a14.87,14.87,0,0,1-1.37-6.48L636.94,297c-6.89,1.51-13.65,3.41-20.73,4.68a14.26,14.26,0,0,1-1.17-5.86Z"/><path class="cls-2" d="M679,408a20.36,20.36,0,0,1-4.5-4.43c2.34-7.08,5.45-14,8.27-21.18-5,4.83-9.19,10.33-14.49,15a10.84,10.84,0,0,1-4.35-4.07c7.53-7.8,15-15.53,22.66-23.44a13.55,13.55,0,0,1,4.74,4.45c-2.84,7-5.6,14.08-8.67,21.13,5-4.94,9.36-10.46,14.68-15.23,1.89.83,3.07,2.3,4.32,4.24Z"/><path class="cls-2" d="M782.08,414.4c4.2,0,7.87,0,11.54,0,3.85,0,7.64.33,9.14,4.61s1.06,8.14-2.83,11c6.09,4.43,2.36,11.46,5.18,16.78a18.5,18.5,0,0,1-6.3.53c-1.91-4.27-.3-9-2.56-12.81-2.31-1.43-4.55-1.15-7.14-.68v13.53a14.26,14.26,0,0,1-5.88.33C782.6,436.82,782,426.1,782.08,414.4ZM795.72,420a11.1,11.1,0,0,0-7.54,0c.14,2.79.27,5.41.41,8.2,2.79.41,5.44,1,7.3-1.19C797.62,425,797.16,422.57,795.72,420Z"/><path class="cls-2" d="M682.75,366.25a10.37,10.37,0,0,1-3,7.44,68.64,68.64,0,0,1-14.55,11c-5.22,2.91-9.21,1.85-12.95-3.06-4.16-5.46-4.15-8.86.42-13.51a56.87,56.87,0,0,1,15-11.05C674.63,353.58,682.92,359,682.75,366.25Zm-6-.15a4.34,4.34,0,0,0-1.89-3.64,4.24,4.24,0,0,0-5.18.27c-4.14,3-8.23,6-12.21,9.24-2,1.64-3.07,3.88-1.31,6.35s4.2,2.2,6.38.67c3.95-2.76,7.79-5.68,11.59-8.65A6.55,6.55,0,0,0,676.8,366.1Z"/><path class="cls-2" d="M945.13,361.65a12.91,12.91,0,0,1-3.3,4.94c-4.47-2.07-7.84-5.95-12.65-8L924.6,365c3.67,3.53,8.18,5.72,11.93,9.05a13.15,13.15,0,0,1-3.47,4.85l-26.49-18.52c.4-2.23,1.71-3.62,3.33-5.19l10.29,7.1c2.19-1.95,3.29-4.38,5.18-6.76l-10.26-7.48c.41-2.13,1.75-3.54,3.21-5.18Z"/><path class="cls-2" d="M669.7,139.05c.26-1.65-2.12-.78-2-2.47,1.37-2.05,3.94-3.22,5.66-5.26-2.49-4-7.33-5.74-10.68-3.8-3.13,1.8-3.31,4.12-.68,8.66a3.93,3.93,0,0,1-2.28,2.34c-4.32-1.28-6.16-3.25-6.09-6.47.1-3.8,3.55-7.71,7.66-8.64,3.56-.81,6.74.28,9.73,2.07,1.7,1,3.27,2.22,4.86,3.31,2.09-.62,3.2-2.52,5.39-3.44l5.19,1.61c-1.22,2.51-3.75,3.36-5.14,5.75L699.91,155c-2.42,1-4.52.63-6.8.9l-16.26-19.16c-1.85.12-2.47,1.49-3.65,2-1.14.78-2.43-.88-3.59.17Z"/><path class="cls-2" d="M890.31,404.82a15.25,15.25,0,0,1,4-3.49c1.56.34,2,2,3.14,2.74,1.41.91,2.79,1.43,4.37.56a3.33,3.33,0,0,0,2-3.46,4.38,4.38,0,0,0-2.67-3.59,8.56,8.56,0,0,0-4.2-.45c-2.41.11-4.82.4-7.23.41-5.68,0-9.51-2.79-10.45-7.5-.78-3.91,2.29-8.47,7.07-10.53,4.12-1.77,7.57-.53,10.92,4-.7,1.65-2.34,2.33-3.7,3.51-1.91-.45-2.89-2.88-6-2.33a3.08,3.08,0,0,0-2.07,4.1c.59,2.11,2.41,2.67,4.4,2.55,2.55-.15,5.09-.48,7.65-.61,3-.16,6-.1,8.47,2.06,2.94,2.61,4.64,5.74,3.53,9.84-1,3.81-5.88,7.79-10,8.28C895.92,411.32,893.12,409.51,890.31,404.82Z"/><path class="cls-2" d="M653.29,327.29l-25.06,14.49c-1.65-1.58-1.68-3.61-2.25-5.58,1.91-2,4.71-2.65,6.8-4.51a16.6,16.6,0,0,0-1.91-6.36c-2.77-1-5.4.72-8.28.12-1.08-1.54-1.48-3.41-1.86-5.92l33.54-2.68a28.94,28.94,0,0,1,2.47,7c-.13,1.52-1.52,1.66-1.8,2.66l.12-.07a1.78,1.78,0,0,0-1.84.92Zm-3.14-4.77-14,1.67c.43,1.84.51,3.47,1.94,4.8Z"/><path class="cls-2" d="M695.78,419.87l3.43-7.43c-1.45-1.87-3.53-2.81-5.41-4.12-2.65,1-4.15,3.45-6.6,5.12a23.45,23.45,0,0,1-5.09-3.73l25.48-22a29.14,29.14,0,0,1,6.94,5c-4.38,10.13-8.75,20.23-13.2,30.54C699,422.61,697.63,421.24,695.78,419.87Zm10.39-23.43a55.91,55.91,0,0,0-8.62,8c1.21,1.25,2.25,2.35,4.18,2.54,1.41-3.53,4.26-6.46,4.37-10.59.48.3.68.19.58-.4Z"/><path class="cls-2" d="M759.06,421.19c-1.71.16-3.2-.61-4.71-1.22-.61-1.86.52-3.84-1-5.83-1.35-1.33-3.09-1.49-5,.08-1.33,2.35-.44,4.33,1.07,6.21s3.35,3.89,4.76,6c3.22,4.85,2.9,10.26-.61,13.66-3.24,3.12-9.16,3.08-13.85-.1-4.05-2.76-4.7-6.57-2.12-12.43,1-.61,1.91.08,2.84.31a3.79,3.79,0,0,1,2.47,1.23c.13,2.08-1.51,4.53.25,6.72a4.19,4.19,0,0,0,3.79,1.42c3.42-2.63,3.81-4.83,1.33-8.21-1.86-2.51-4.12-4.72-5.64-7.47-2.54-4.56-1.52-10.1,2.27-12.6,3.09-2,9.27-1.16,12.75,1.78C760.61,413.23,761.07,416.59,759.06,421.19Z"/><path class="cls-2" d="M855.53,411.32l-4.7,2.06c-1.7-.95-1.89-3.25-3.81-4-3.88.07-5.23,1.23-4.32,4.64a74.38,74.38,0,0,0,6.58,16.13c1.36,2.53,3.49,3.2,5.94,1.33,1.55-2.49,0-4.75-.35-7.25a8.2,8.2,0,0,1,5.18-2.16c4.19,8.32,1.8,13.61-6.86,15.7-3.12.75-5.83,0-7.66-2.39a46.72,46.72,0,0,1-9-22.23c-.57-4.23,2.6-7.43,7.62-8.93,4.52-1.35,7.41-.35,9.91,3.49A6.31,6.31,0,0,1,855.53,411.32Z"/><path class="cls-2" d="M907.19,105.21c4.9,2.47,5.44,6.49,5.17,10.74a88.15,88.15,0,0,1-2,14.07c.54,2,2.5,2.53,3.45,4.15.31,1.83-.25,3.66-.81,6.07l-6.1-4.77-19.22,21.86c-1.52-2.14-1.33-4.31-1.76-6.67,5.33-6.23,10.75-12.55,16.08-18.76-.33-2-2.27-2.37-2.88-3.91a9.69,9.69,0,0,1,1.13-5.49c2.92,1.46,4.68,4.44,7.64,5.75,2.75-7.88,1.81-12.77-3.32-16.76C905,109.34,904.91,106.89,907.19,105.21Z"/><path class="cls-2" d="M902.85,370.24c-1.64,1.4-2,3.39-.73,4.9,4.58,5.37,9.4,10.54,15.38,13.67a4.64,4.64,0,0,0,3.69-2.28c.85-3.07-1.9-4.45-3.27-6.72.64-1.87,2.25-3,3.66-4.25a7.52,7.52,0,0,1,2.89,2.62c3.56,4.17,3.72,8.14.56,11.9-4.14,4.91-8.13,5.93-13,2.85a55.93,55.93,0,0,1-14-13c-3.91-5-3-9.81,2.23-14.11,4.11-3.4,8.1-2.8,12.61,1.93-.65,1.62-2,2.63-3.38,3.93C907.39,371.41,905.76,368.91,902.85,370.24Z"/><path class="cls-2" d="M853.58,401l15-8a6.35,6.35,0,0,1,2.3,4.11l-9.25,5.2c.75,2.78,2.46,4.82,3.73,7.4l8.51-4.37c1.49.85,2,2.14,2.37,3.71-2.32,2.28-5.85,2.74-8.29,5.26a48.4,48.4,0,0,0,4.67,8.74l9.4-4.87c1.32,1,1.75,2.29,2.31,4.08l-15.15,8.09C863.92,420.44,858.84,410.87,853.58,401Z"/><path class="cls-2" d="M968.16,304.35l-32.42-5.19c.14-5.66,1.44-11.22,2.56-16.7a5.23,5.23,0,0,1,4.21.37c.56,3.47-1.41,6.83-.77,10.53,2.17,1.42,4.88.71,7.2,1.79,1.91-3.17,1.07-6.71,2.57-9.84,1.31-.36,2.6.16,3.93.54.56,3.22-1,6.18-.85,9.49,2.85,1.62,6.18,1.26,9.57,2.16,1.32-3.46,1.13-7.07,2.05-10.32,1.53-1.05,2.82-.26,4.57,0A128.05,128.05,0,0,1,968.16,304.35Z"/><path class="cls-2" d="M758.66,444.5c1.51-11,3-21.63,4.47-32.69,5.86,0,11.29,1.59,16.66,2.12.8,1.79.28,3.1-.25,4.53-3.51.37-6.92-1.36-10.59-.72a22.55,22.55,0,0,0-1.23,7.44c3.11,1.74,6.67.71,9.71,2.33.52,1.38-.51,2.56-.47,3.86-3.42.59-6.41-1-9.74-.66a33.38,33.38,0,0,0-1.49,9.53c3.3,1.4,6.8,1,10,2,.75,1.39.46,2.7-.26,4.43C770,446.48,764.55,445.38,758.66,444.5Z"/><path class="cls-2" d="M654.94,326.55h2.58c3.27,5.26,5.66,11,8.63,16.41.52,1-.12,1.6-.11,2.39l.13-.1c-.82-.1-1.55,0-1.85.93l.09-.13c-1.49.41-2.37-.22-3-1.57a9.39,9.39,0,0,0-2.63-4l-24.32,12.27c-1.87-1-2-3.05-3.27-5.09L656,334.83c-.35-2.9-2.64-4.84-2.74-7.54l-.07.11c1,.4,1.75.42,1.84-.92Z"/><path class="cls-2" d="M719.92,395.63a12.74,12.74,0,0,1,5.33,2.87L712.37,423c3.06,2.54,6.52,3.63,9.41,5.68.18,1.61-.74,2.67-1.91,4.18l-15.42-8.15Z"/><path class="cls-2" d="M910,149.37c1.16-.42,1.77-.2,2.29.38-3.56,13.64-3.36,15.05,2.44,16.25,4-2.37,2.2-7.28,4.74-11.34l12.64,14.47c-.94,1.77-2.4,2.56-4,3.81l-7.92-8.82c-.79,2.33-1.3,4.2-2.06,5.95-1.89,4.33-5.87,5.07-9.12,1.66s-3.66-7.56-2.74-11.93A45.28,45.28,0,0,1,910,149.37Z"/><path class="cls-2" d="M666,345.35c3.34-.36,3.55,2.51,5,4.84l-27.6,17.3c-1.84-1.35-2.6-3-3.56-5.08,7.15-4.49,14.33-9,21.45-13.53,1.14-.74,3-.87,3.06-2.83l-.09.13c1.11.66,1.57.05,1.85-.93Z"/><path class="cls-3" d="M728.4,251.4c-1.78,2.42-2.89,4.44-4.47,6-3.19,3.16-7,5.46-11.66,5.49-12.94.07-25.88,0-38.82,0a16.08,16.08,0,0,1-2.24-.4c1.9-28.73,11.94-53.86,31.16-75.14,2.31.39,3.17,2,4.33,3.18,7.46,7.38,14.68,15,22.3,22.19,5,4.7,6,10,4.21,16.26a3.16,3.16,0,0,0-.07,2.78c2.35,0,4.79-.88,7.31-.84,3.08,0,6,.55,8.44,2.45,5.55,4.42,10.34,9.62,15.23,14.89a48.26,48.26,0,0,0-6,14.38C746.46,263.33,734.76,265,728.4,251.4Z"/><path class="cls-3" d="M850.87,305.24c-15.19,3.69-21.6-8.33-30.68-16.52a52.34,52.34,0,0,0,6.09-14.91c6.28,0,12.42-.76,18.38.35s10.21,5.29,13.06,11.06c2.14-2.56,3.25-5.53,5.63-7.59,2.67-2.32,5.53-3.85,9.17-3.84,12.22,0,24.43-.05,36.65-.05,1.11,0,2.29-.15,3.27.63,1.18,21.3-11.09,55.17-30.73,75-1.75-.58-2.84-2.11-4.1-3.36-7.42-7.4-14.58-15.09-22.31-22.15-4.62-4.21-5.56-8.9-4.53-14.54.15-.84.3-1.67.41-2.51A8.89,8.89,0,0,0,850.87,305.24Z"/><path class="cls-3" d="M812.85,240.65c-5-3.33-10-4.8-15.13-6.54,0-6.37-.32-12.63.1-18.84.33-4.9,3.39-8.6,7.22-11.57,1.21-.94,2.49-1.78,4-2.84-8.63-4.48-11.95-11.39-11.53-20.72s.08-18.46.1-27.69c0-1.53-.25-3.11.66-4.95,28.65,1.84,53.78,11.92,76,32.08-3.62,3.28-6.94,6.14-10.09,9.16-4.49,4.32-9.15,8.53-13.22,13.23-3.78,4.37-8.2,5.13-13.39,4.09-1.24-.25-2.48-.52-3.67-.77-.23.36-.54.64-.49.82,2.23,8.55-.84,15.08-7.24,20.79C821.57,231,817.51,235.81,812.85,240.65Z"/><path class="cls-3" d="M808.75,333.29c-2.72-1.84-5.81-3.35-7.73-6.28a18.18,18.18,0,0,1-3.45-10.75c.13-4.39,0-8.78,0-13.52,5.1-1.81,10.22-3.35,14.87-6.34,4.64,4.66,9.35,8.79,13.31,13.55,3,3.64,3,8.43,2.42,13.06-.16,1.23-1,2.38-.51,3.66a1.62,1.62,0,0,0,1.58.52c7.31-2,13.33.37,18.78,5.19,8.92,7.87,16.88,16.69,25.42,24.87C861,373.33,817,391.55,798.2,388.63c-.92-1.54-.61-3.29-.62-5,0-10.22.26-20.45-.07-30.67-.28-8.27,3-14.18,10-18.33a8.39,8.39,0,0,0,1-.78C808.59,333.81,808.6,333.66,808.75,333.29Z"/><path class="cls-3" d="M757.24,209.27c-11,3-18.63-2.05-25.62-9.07s-13.85-13.76-21.14-21c21.65-19.67,46.72-29.75,75.14-31.73,1.63,1.59,1.09,3.39,1.1,5,.06,9.24-.32,18.5.14,27.72s-3,15.95-11,20.42c.14.36.16.76.34.85,8.08,4,11.53,10.39,10.58,19.43-.44,4.22-.07,8.52-.07,13.15-5,1.75-10.1,3-14.47,6.33a113.39,113.39,0,0,1-14.2-14.3c-2.56-3.24-2.44-7.47-1.87-11.49C756.44,213,756.83,211.35,757.24,209.27Z"/><path class="cls-3" d="M671.51,274.37c2-.95,3.83-.61,5.65-.62,10.65,0,21.31.14,32-.05,8-.14,13.93,3,17.89,10a17.62,17.62,0,0,0,1.16,1.49c1-1.63,1.84-3.09,2.79-4.47,3.09-4.48,7.14-7.14,12.83-7,4.68.15,9.35,0,14.16,0a58.23,58.23,0,0,0,6.3,15.09c-5.66,5.56-11,11.22-16.84,16.39-3.38,3-7.87,2.91-12.19,2.19-1.39-.23-2.75-.62-4-.9a1.47,1.47,0,0,0-.48,1.67c1.71,8.07-.74,14.77-6.55,20.48-6.47,6.36-12.84,12.83-19.27,19.24A18.6,18.6,0,0,1,703,349.4C687.18,336.83,670.54,297.2,671.51,274.37Z"/><path class="cls-3" d="M710.61,357.73c5.12-5.19,10-10.12,14.84-15,2.49-2.52,5.24-4.82,7.49-7.53,4.49-5.38,10.25-6,16.6-5.13,1.08.16,2,1,3.26.52.7-1.46-.14-2.76-.39-4.11-.83-4.54-.2-8.94,2.63-12.54,5-6.35,11-11.77,17-17.56,4.48,3.13,9.51,4.56,14.54,6.27.07,11.76,2.91,24.13-10.91,30.45.16.54.16.93.31,1,8.18,3.84,11.41,10.11,10.87,19.21-.6,10.05-.13,20.16-.13,30.24v5.67C757.36,387.54,732.39,377.15,710.61,357.73Z"/><path class="cls-3" d="M826.3,262.88c-1.42-5.37-3-10.06-5.9-14.25,1.6-3.06,4.29-5,6.52-7.32,2-2.05,4.17-3.86,6.05-6,5.69-6.36,12.6-8.31,20.77-6.1.54.15,1.1.22,1.94.39.39-3.08-.86-5.87-.83-8.78.07-5.73,3.56-10,6.73-13.85,5.92-7.19,12.9-13.5,19.73-20.47,19.68,22,30,46.91,31.71,75.32-1.92,1.47-3.69,1-5.33,1-10.25.06-20.49-.16-30.73.12-8.12.22-13.87-3.24-18-10a12.18,12.18,0,0,0-.73-1c-.08-.1-.24-.14-.5-.29a45.19,45.19,0,0,1-3.53,5.09c-3.36,3.72-7.51,6-12.67,6.09C836.61,262.92,831.64,262.88,826.3,262.88Z"/><path class="cls-4" d="M658.55,153.56a7,7,0,0,1,3.61,3.52c-.9,4.65-6.18,8.28-3.85,14.15a142.64,142.64,0,0,1-16.11,5.32C645.75,167,652.51,160.54,658.55,153.56Z"/><path class="cls-4" d="M656.38,184.3a46.88,46.88,0,0,1-10.19-5.83l11.08-3.65C658.17,178.16,659,181.07,656.38,184.3Z"/><path class="cls-4" d="M939.87,308l-.22-.66c.67.17.26.47.12.74Z"/><path class="cls-4" d="M811.53,106.31a26.81,26.81,0,0,1-11,5c-3.41.79-5.5-1.68-4.46-5,.87-2.83,2.78-4.62,5.9-4.57A11.8,11.8,0,0,1,811.53,106.31Z"/><path class="cls-4" d="M766.52,92.23c1.45,2.24,3.89,1,6.14,1.65.26,3,.53,6.05.79,9.07-4.49,1.77-8.11,5.6-13.55,4.34-1.32-3.39-1.87-7-2.7-10.44,2.28-1.63,4.8-1.49,7-2.2,1-.32,2-.46,1.66-1.85A4.76,4.76,0,0,1,766.52,92.23Z"/><path class="cls-4" d="M877.39,114.77a33.93,33.93,0,0,1,8.35,4.71l-5.93,10.64c-4.69.34-9.48,1.11-13.6-2.29-1.26-1-1.13-1.34-.13-4.11,2.78-1.52,5.47,1.13,8.37.16C877,121.47,875.69,117.71,877.39,114.77Z"/><path class="cls-4" d="M707.9,124.41c-1.27-2.71-4.26-3.93-6.4-6.6a61.84,61.84,0,0,1,8.85-4.62l5.7,10.77a21.85,21.85,0,0,1-6.6,9c-2.72,2.09-4.22,1.72-6.07-1.07,0-1.78,1.48-2.64,2.48-3.78S707.91,126.15,707.9,124.41Z"/><path class="cls-4" d="M795.72,420c1.44,2.61,1.9,5,.17,7.05-1.86,2.18-4.51,1.6-7.3,1.19-.14-2.79-.27-5.41-.41-8.2A11.1,11.1,0,0,1,795.72,420Z"/><path class="cls-4" d="M676.8,366.09a6.55,6.55,0,0,1-2.62,4.25c-3.8,3-7.64,5.89-11.59,8.65-2.18,1.53-4.6,1.83-6.38-.67s-.74-4.71,1.31-6.35c4-3.2,8.07-6.26,12.21-9.24a4.24,4.24,0,0,1,5.18-.27A4.34,4.34,0,0,1,676.8,366.09Z"/><path class="cls-4" d="M650.15,322.52l-12,6.47c-1.43-1.33-1.51-3-1.94-4.8Z"/><path class="cls-4" d="M655.06,326.48c-.09,1.34-.87,1.32-1.84.92A1.78,1.78,0,0,1,655.06,326.48Z"/><path class="cls-4" d="M706.1,396.35c-.11,4.13-3,7.06-4.37,10.59-1.93-.19-3-1.29-4.18-2.54a55.91,55.91,0,0,1,8.62-8Z"/><path class="cls-4" d="M706.17,396.44l.51-.49c.1.59-.1.7-.58.4Z"/><path class="cls-4" d="M666.17,345.25c-.28,1-.74,1.59-1.85.93C664.62,345.24,665.35,345.15,666.17,345.25Z"/><ellipse class="cls-5" cx="288.84" cy="276.61" rx="215.69" ry="215.71"/><path class="cls-6" d="M506,275.42c-.17,120.44-97.62,218-218.1,218S69.64,395.65,69.9,274.87c.26-120.25,97.85-217.8,218.54-217.54C408.59,57.59,505.86,155,506,275.42Zm-218.18-211C171.66,64,77,159,76.84,275.14c-.12,116.31,94.65,211.27,211,211.33S499,391.64,499,275.37,404.16,63.88,287.81,64.37Z"/><path class="cls-6" d="M442.4,275.32c1.16,84.69-69.88,154.87-154.65,154.79C203.22,430,133,359.9,133.21,275c.2-84.37,70.27-154.65,155.36-154.32C372.73,121,443.49,190.76,442.4,275.32ZM261,130.47c-3-.67-5.84.54-8.58,1.25a147.35,147.35,0,0,0-59.83,30.64c-1.05.89-2.43,1.58-3.16,3.44,15.44-3.76,30.35-2,45.24,1,.51-.95.87-1.61,1.21-2.28s.66-1.35.93-1.91c-3.9-8.78-.74-14.11,9.16-15.53,2.7-3.19,5.29-6.65,8.2-9.84,2.16-2.38,5-4,6.77-6.79l.88-.45C261.25,129.82,260.85,129.71,261,130.47Zm0,289.8c-.14.7.13.77.68.45l-.75-.38c-.22-1.2-1.33-1.64-2.09-2.32-8.19-7.24-14.42-16-19.65-25.5-1.54-2.8-3-5.63-4.56-8.56l-11.28,2.09c-5.44,7.65-11,7.92-17.76.93-5.27.41-10.56-1-16.38-1.86a15.8,15.8,0,0,0,1.28,1.48,146.1,146.1,0,0,0,55.28,30.58C250.73,418.66,255.68,420.6,261,420.27Zm53.8,0c3.17.57,6.12-.64,9-1.39a148,148,0,0,0,58.4-29.6c.72-.59,1.41-1.21,2.09-1.84a5.08,5.08,0,0,0,2-2.5c-15.47,3.79-30.39,2-45.26-1-.86,1.71-1.54,3.08-2.24,4.44-4.72,9.06-10.15,17.62-17.19,25.12-2.19,2.34-5,4-6.77,6.79l-.76.4C314.69,421,315,421,314.83,420.27Zm0-289.8c.14-.7-.14-.77-.69-.45l.76.39c.21,1.2,1.32,1.64,2.09,2.31,8.2,7.26,14.43,16,19.67,25.54,1.54,2.8,3,5.64,4.57,8.55,15.09-3.16,30-4.62,45.21-1.54a5.8,5.8,0,0,0-1.71-1.68,146.34,146.34,0,0,0-54.65-30C325.14,132.09,320.19,130.15,314.83,130.47Zm-26.9,225.29a315.76,315.76,0,0,0,65.72-48.13,309.07,309.07,0,0,0,0-64.58,314.82,314.82,0,0,0-65.71-48,315.56,315.56,0,0,0-65.59,48c-2.44,24.65-2.43,40.37,0,64.73A315.61,315.61,0,0,0,287.93,355.76ZM189,269.47a327.67,327.67,0,0,1,26.52-29.6c2.74-22.6,7.47-44.81,16.11-66-1.46-1.17-3-1.29-4.48-1.59-3.35-.67-6.74-.84-10.1-1.28a68.35,68.35,0,0,0-25.73,1.38c-17.44,4.37-27.11,16.74-27.11,34.38a76.06,76.06,0,0,0,4.88,25.72C173.77,245.66,180.7,257.59,189,269.47Zm155.25-95.55c8.64,21.16,13.37,43.37,16.11,66a338.05,338.05,0,0,1,26.57,29.48c8.25-11.82,15.16-23.75,19.86-36.91,3.31-9.24,5.3-18.64,4.79-28.51-.74-14.33-8.7-25.1-22.2-30-12.29-4.51-24.85-4-37.46-2.11C349.42,172.21,346.6,171.84,344.24,173.92Zm16.07,137c-2.65,22.72-7.52,44.89-16.14,66.19a12.92,12.92,0,0,0,4.24,1.35c4,.46,7.93,1.22,11.92,1.56,10.25.88,20.42.34,30.08-3.52,10.74-4.28,17.75-12,20.27-23.48,1.75-8,1.07-16-.67-23.87a58.93,58.93,0,0,0-4.76-14.3,9.6,9.6,0,0,1-7.59-4.95c-2.05-3.64-.86-7.13.71-10.28-3.65-6.29-7-12.34-11.54-18.14A339,339,0,0,1,360.31,310.87Zm-144.81,0a351.38,351.38,0,0,1-26.59-29.48c-8.23,11.93-15.17,23.83-19.86,37-3.46,9.7-5.56,19.56-4.63,29.9,1,10.79,5.75,19.44,15.06,25.21,7.81,4.85,16.56,6.38,25.8,6.81,1.62-3.92,4.23-6.31,8.63-6.67s7,2.48,9.5,5.36c2.79-.78,5.75,0,8.21-2.14C223,355.54,218.22,333.34,215.5,310.83Zm72.41,52.71a238.46,238.46,0,0,1-46.46,18.79c2,3.65,3.72,6.94,5.61,10.11,5.5,9.22,11.9,17.69,20.8,23.95,12.83,9,27.29,9.09,40.07,0,12.17-8.63,19.67-20.86,26.36-34.16A236.49,236.49,0,0,1,287.91,363.54ZM288,187.2a238.17,238.17,0,0,1,46.42-18.78c-2-3.63-3.71-6.92-5.6-10.09-5.5-9.23-11.9-17.7-20.81-24s-18.8-8.7-29.38-5.37c-11.73,3.69-19.77,12.11-26.55,21.69,3.77,8.55.19,15-9.37,15.61-.12.71-1,1.15-.6,2.37A222.65,222.65,0,0,1,265,176.53C272.69,179.67,280.19,183.23,288,187.2ZM156.76,207.71c-11.14,21.29-16.4,43.82-16.67,67.79-.31,27.17,10,58.23,17,67.44,1.43-25.83,13.44-47.17,27.52-67.58C170.38,254.78,158.48,233.4,156.76,207.71ZM418.77,344c24.5-45.45,20.33-101.71,0-136.49-1.3,26.12-13.4,47.42-27.56,68,5,6.63,9.15,13.86,13.41,20.77,9-.23,14.22,8.19,7.61,16.76A94.58,94.58,0,0,1,418.77,344ZM223.51,232.47a332.37,332.37,0,0,1,57-41.25,202.1,202.1,0,0,0-41.88-16.29C230.94,193.43,226.37,212.15,223.51,232.47Zm113.54-57.31c-9,1.44-34.16,11.4-41.53,16.21A331.22,331.22,0,0,1,352,232.07C351,218,343.79,188.77,337.05,175.16Zm.09,200.7c7.79-18.36,12.34-37.2,15.19-57.58a331.88,331.88,0,0,1-57,41.24A206.68,206.68,0,0,0,337.14,375.86Zm-56.6-16.36a332.47,332.47,0,0,1-57.06-41.21c3,20.36,7.44,39.21,15.23,57.57A206.92,206.92,0,0,0,280.54,359.5Zm-65.81-60a278.54,278.54,0,0,1-.06-48.93,241.22,241.22,0,0,0-21.42,24.83,250.8,250.8,0,0,0,17.83,21A11.07,11.07,0,0,0,214.73,299.53Zm146.43.48a221.54,221.54,0,0,0,21.47-24.67c-6.63-8.42-13.18-16.66-21.52-24.56A277.22,277.22,0,0,1,361.16,300Z"/><path class="cls-6" d="M374.86,103.29c.29-.93.46-1.5.78-2.57,6.79,3.22,12.8,7.36,19,10.72.29,3-1.85,2-3.29,2.42-1.55,2.67-3.05,5.55-4.83,8.24S384,128,381,130.35a5.4,5.4,0,0,1-2.45,6.58c-2.72,1.65-5.4.81-7.86-.64-3.49-2.07-5.23-5.48-6.65-9.08A3.51,3.51,0,0,1,367.3,126c.92,2.6,1.88,5.37,4.32,7.21s3.82,1.64,6.23-.85c-.42-2.27-2.6-2.25-4.06-2.93a2.53,2.53,0,0,1-.33-2.31c1.77-1,3.25.38,5.14.57A81.19,81.19,0,0,0,384.84,117c-2.78-1.78-5.24-3.83-8.82-4.52-2.08,3.68-.56,7.34-.52,11-.57.84-1.47.8-2.63.63a19.78,19.78,0,0,1-.85-12.88,16.55,16.55,0,0,0-4.41-2.16c-1.7.36-1.28,2.55-2.78,3-2.9-2.54-3.56-5-2.15-8.13,1.45-.14,2.59.72,3.8,1.3,6.46,3.11,13.69,4.47,19.25,8.82,1.67-.39,1.78-1.61,2.52-2.75Z"/><path class="cls-6" d="M318.18,82.83c.53.29,1.63-.19,2.29.68.39,1.37.19,1.64-2.17,2.89-1.16,5.88-1.11,12.09-2.54,17.84-1.43.57-2.43.22-3.84.13.75-6.48,1.47-12.69,2.17-18.76-1.5-.94-3.11-.34-4.09-2-2.4,3.29-1.22,6.65-1.65,9.72s-.61,6.43-.9,9.65A3.46,3.46,0,0,1,304,103c-.68-1.5.08-3.08-.36-4.93a8.63,8.63,0,0,1-7.94-.5,6.92,6.92,0,0,1-3-4.92c.27-3.84,2.37-6,6-6.61,1.73-.26,3.81-.44,4.16,2.25-1.4,1.17-3.17-.34-4.64,1.12-1.28,2.15-1.28,2.15-.7,5.14,3.43,2,3.43,2,6.86-1,.14-2.79.28-5.85.44-9.12a54.84,54.84,0,0,0-12.45-1.27c-1.19-.74-.8-1.55-.78-2.87A149.31,149.31,0,0,1,315.3,82.3l-7.16-9.7c.29-1.33,1.13-1.62,2.3-1.91C313.38,74.24,315.26,78.46,318.18,82.83Z"/><path class="cls-6" d="M188.57,109.11l.08-1.79c9.11-5.21,18.54-10.39,28.5-14.14,2.45,1.63.51,2.71-.14,4.13,2.2,5.54,4.46,11.23,6.72,16.94a5.41,5.41,0,0,1-3.29,1.44c-3.2-5.23-4.58-11.44-7.4-16.94-3.37.26-3.37.26-6.9,2.84,0,2,2.06,3.07,2,5.17-2.5,2.38-6.44,2.79-8.67,5.63.61,3.5.61,3.5,4.2,4.24,1.94-1.54,3.06-3.81,4.72-5.59,4.06-.23,4.11-.18,4.39,4.21.64,1.5,2.53,1.6,3.33,2.9-.31,1.41-1.66,1.25-2.71,1.95L210.08,118l-4.38,1.68-2.77,3.52a2.59,2.59,0,0,1-2.31-.67c-.65-.68.07-1.48-.34-2.5a7.58,7.58,0,0,1-5.06-5.76c.21-5,4.87-5.76,7.91-7.89.35-1.44-.36-2.16-1.39-2.79-3,1.55-6,3.08-8.94,4.71-1.38.76-2.72,1.36-4.31.75Z"/><path class="cls-6" d="M246.15,94.94c-.68,1.82,0,3.6,2.4,4.67a5.73,5.73,0,0,0,4-2.34c.34-3.34-1.18-6.51-1.15-10.14C247,87,243,88.53,239.26,88.7c-1.43-.63-1.15-1.56-1.3-2.66,9.44-1.53,18.62-3.28,27.64-4.23a1.83,1.83,0,0,1,.62,2.6l-10.59,1.81c-.49,1.3-.08,2.49.05,3.85a15.69,15.69,0,0,1,3.21-1.46,16.75,16.75,0,0,1,3.53,0c5.43,3.65,5.63,7.2.87,13.06-1.27.32-2-.42-2.61-1.38,3.15-6.14,2.88-7.62-1.56-8.72-1.54.44-1.9,1.88-2.74,3L258,104.85a4,4,0,0,1-3.28.6c-1.45-.84-.68-2.6-1.7-3.85-3,.25-4.53,3.15-6.93,4.53-1.29-.21-1.7-1.32-2.52-2.08l1.68-1.93c-.82-1.09-2.29-1.84-2.68-3.34a10.74,10.74,0,0,1-.2-4.55c2.19-3.09,2.19-3.09,6.09-4.39a2.49,2.49,0,0,1,1.38,1.82C249.29,93.07,247.43,92.79,246.15,94.94Z"/><path class="cls-6" d="M255.87,465.69a6.51,6.51,0,0,1-4-1.29c-.75-5.83-1.52-11.75-2.26-17.51,1.29-1,2.28-.67,3.58-.15a96.41,96.41,0,0,1,1.44,13.56c3.49-3.41,4.69-7.85,7.51-11.14,5.75-.71,11.32.66,16.74.94.81.95.61,1.65.16,2.64-2.91.7-5.95-.33-9-.16-1.16,1-.75,2.22-.85,3.44,2.7,1.08,5.66.2,8.13,1.48.66.74.42,1.51.29,2.39-2.87,1-5.69-.86-8.68-.33-.84,1.36-.6,2.86-.39,4.35,2.84,1.65,6.19.29,8.92,1.65a2.11,2.11,0,0,1-.39,2.83c-3.9-.87-8.11-.33-12.33-1.61-1-5.22,1.26-10.32.67-16.36Z"/><path class="cls-6" d="M115.38,205.71c-.7-1.61.4-3.1-.06-3.64-1.44-2.07-2.71-2.21-4.15-1.74-1.69,1.75-.81,3.79-.74,5.69a2.88,2.88,0,0,1-2.24,1.58c-1.68-1.35-1.46-3.26-1.24-5,.38-3,2.55-5.73,4.89-6.16,2.88-.54,4.62,1,5.73,3.62,2.11-1.2,4-2.42,3.91-5.38-1.57-1.48-3.73-1.92-5.34-2.88-1.65-.05-1.57,1.56-2.64,2a2.36,2.36,0,0,1-2.19-.69,33.71,33.71,0,0,1,3.79-8.16c2.42,0,2,1.51,2.22,2.94l16.24,7.65c.74,1.7-.46,2.49-.9,3.84l-7.7-3.53c-1,.28-.86,1.41-1.82,2.15,2.84,1.54,4.65,3.52,4.91,6.53-1.52,6.42-5,8.77-12.55,8.56-.87-.93-.63-1.92-.11-2.91,9-1.8,9-1.8,9-6.41-1-1.3-2.32-1.92-4.71-1.46C118,202.38,118.6,206.49,115.38,205.71Z"/><path class="cls-6" d="M349.51,113.25c.33-1.2.65-2.36.92-3.36a1.15,1.15,0,0,0-1-1c-3.19-.38-5.94-1.53-7.76-4.35-1.28-2-2.05-4.09-1.3-6.39,1.59-1.12,3.21.14,5.22-.87,1.42-1.27,2.49-3.07.65-5.49l-4.9-2c-.24-1.16.3-1.69,1.25-2.54,5.22,1.88,10.77,3.58,16.05,5.89s10.52,4.18,15.46,6.82c.6,1.11,0,1.77-.88,2.68l-13.45-6-6.67,17.79C351.53,114.62,350.59,113.86,349.51,113.25Zm-5.69-12.15c1.51,3.54,1.51,3.54,5.06,5a6.33,6.33,0,0,0,3.84-1.82l3.17-9-5.16-1.82c-.61,1.7-.06,3.17-.82,4.39C348.57,100.1,346.38,101,343.82,101.1Z"/><path class="cls-6" d="M455,179.64a2,2,0,0,1,2.36-.88c3.46,5.93,7.07,12.23,10.4,18.78a7.93,7.93,0,0,1-1.74.85c-.85.11-1.34-.63-2.25-1.18L447.93,206c-1.46-.6-1.91-1.63-2.16-3.18l10.47-6a24.77,24.77,0,0,0-4.77-8.37c-4.52,1.72-4.84,6-6.32,9.81l-3-1.19c1.37-5.27,2.5-10.49,8.69-12.56,5.18,1.52,5.08,7.42,8.53,10.3a3.2,3.2,0,0,0,2.4-1.55C460.28,188.37,456.5,184.46,455,179.64Z"/><path class="cls-6" d="M188.49,109c.37,1.35-.34,2.35-1.19,3.5l9.86,15.38c-.84,1.11-1.57,1.89-3.09,1.9-2.27-1.8-3.07-5-5.21-7-1.44-.08-2.12.85-3,1.38-.57,1.67,1.84,2.73.45,4.68a14,14,0,0,1-8.13-1.35c-.39-2,1.16-2.41,2-3.48-1.44-1.77-2-4.15-4.06-5-3.73.33.21,4.31-3,4.9-2.44-1.3-1.55-3.52-1.41-5.42a6.49,6.49,0,0,1,6.9-2.8c1.24-.52.34-1.79,1.3-2.69,1.5-1,3.39-2.06,5.08-3.39,1.15-.9,2.27-.64,3.46-.49Zm-1.7,10.53a14.88,14.88,0,0,0-3.49-5l-3.7,2c1.76,1.73,2.29,3.94,4.33,5.15A6.64,6.64,0,0,0,186.79,119.55Z"/><path class="cls-6" d="M283.59,86.92a3.48,3.48,0,0,0-.11-3.77H268.82a2.08,2.08,0,0,1-.12-2.64h21.11c.1.77.18,1.35.26,2L288,83.92V102c-1.19,1.06-2.26.49-3.52.68-.82-4.21.05-8.37-.54-12.78-3.16-.15-6.3-.62-9.6.4-.77,4.78,3,7.12,5.21,10.12-.27,1.14-1.08,1.58-2.2,2.2a21.37,21.37,0,0,1-6.49-8.53c-1.64-4.25.14-7,4.72-7.14C278.16,86.84,280.79,86.92,283.59,86.92Z"/><path class="cls-6" d="M336.32,443.46c2.47,1.18,4,3.47,6.56,5,.69-2.68,1.28-5,1.92-7.49a4.36,4.36,0,0,1,3.5-1c-.13,4-2,7.66-2.64,11.57.36,2.38,1.91,4.5,1.91,6.88a2.38,2.38,0,0,1-3.09.81c-1.23-1.93-1.44-4.29-2.33-6.52l-7.66-6.38c-1.47-.16-1.31,1.69-2.59,1.69a19,19,0,0,0-3.3.62c-.4,5.08,2.32,9.63,2.13,14.46-.9,1.09-1.89,1.13-3.18.6-1.36-4.39-1.59-9.21-3.33-13.79l-4.39.26a1.92,1.92,0,0,1-1-2.42C324.46,445.85,330.66,445.51,336.32,443.46Z"/><path class="cls-6" d="M444,161.14l1.78-1L456.45,176a2.06,2.06,0,0,1-1.1,1.74c-1.09.51-1.48-1-2.75-.79L437.51,187a3.47,3.47,0,0,1-2-3.17l4.06-3.13c-1.3-1.1-2.85-2-3.8-3.27a6.24,6.24,0,0,1,1.91-9.22c2.87-1.7,7-.5,8.81,2.59.63,1.09,1.06,2.24-.6,3.46-1.35-2-2.82-4.14-5.71-2.85a3.31,3.31,0,0,0-2.07,3.34c.12,2.37,1.59,3.52,4,3.95,3.11-1.09,5.54-3.52,8.61-5.33-1.47-3.39-3.87-6-5.66-9-.62-1-1.69-1.9-1-3.32Z"/><path class="cls-6" d="M148.53,140.6l-.8,4,13.82,12.11c-.28,1.53-1.37,2.12-2.33,2.91-3.2-1.88-5.54-4.61-8.46-6.89a23.13,23.13,0,0,0-4.24,4.54c-.15,1.86,2,2,2.08,3.62-.83,1.9-2.61,1.19-4,1.2s-3.12.6-4.5-1.19c1.4-4.23,5.68-6.56,7.74-10.36a8.57,8.57,0,0,0-3.39-2.94L134.34,159c-.92-.22-1.41-.74-1.93-1.84,4-5.6,9.14-10.5,13.47-16l2.75-.52Z"/><path class="cls-6" d="M431.88,142.49c-.49,1.45,2,2.17.94,3.76l.08-.08c-1.23.56-2.31,0-4.1-.84L416.39,158.5a2.91,2.91,0,0,1-2.44-2.14,2.73,2.73,0,0,1,1.1-2c.53-.55,1.05-1.12,1.94-2.07a9.67,9.67,0,0,1-4.49-2.82,9.17,9.17,0,0,1-2-4.56c1.46-5,4.43-7.17,8.13-6a7.17,7.17,0,0,1,4,3,1.65,1.65,0,0,1-.45,2.42c-1.51-.09-1.88-2.07-3.55-2.08-3.87.69-3.87.69-4.13,4.93,2,1.92,2,1.92,4.78,2.53,2.76-1.82,4.64-4.7,7.66-7.19l-9.25-9.33a2,2,0,0,1,1.87-2.08c2.33,2.33,4.78,4.87,7.35,7.29.94.89,1.53,2.42,3.25,2.22l-.09-.1c-.16.84.19,1.17,1,1l-.09-.1c-.17.84.18,1.18,1,1Z"/><path class="cls-6" d="M430.12,140.7a39.15,39.15,0,0,0-4.19-12.17c-1.16-2.24-2.78-4.09-5.53-4.46-2.06.38-3.09,1.92-3.91,3.09-1,1.91,2.41,3.23-.18,4.91-.64.31-1.16-.67-2.26-.56l-11.73,13.88c-1.58,0-2.3-1-3.18-2.37l11.53-13.94c.22-1.48-1.33-1.85-1.35-3,.89-2.59,2.32-.85,3.56-.39a3.08,3.08,0,0,0,.77-.54c3.69-5.17,8.24-5.52,12.67-1,2.34,2.39,3.52,5.44,4.57,8.49a72.26,72.26,0,0,1,1.93,7.6c.21.9.3,1.89-.94,2.25l.09.06c0-.68-.38-1-1-1l.09.1c0-.65-.46-.91-1-1Z"/><path class="cls-6" d="M444.05,161.06c-.84-.2-1.79-.1-2.47-.8-3.71,5.26-7,6.29-13,3.64-1.11,1.85.13,3.91-.49,5.84-.89.89-2,.42-3,.33-1-3.68-1-7.61,0-13.12.85-.71,1.71-.3,2.69,0,.95,2.76,2.09,5.43,6.22,4.84-.94-2-2.93-3.23-3.08-5.47a4.65,4.65,0,0,1,2.83-5c.2-1.56-1.24-2-1.36-2.91-.3-1,.92-1.35.54-2.21l-.08.08c1,.16,2.07.31,2.65,1.37a4.88,4.88,0,0,0,.56.73l7.47,9.31c1.17,1.73.14,2.58.47,3.48Zm-10.17-5.42c1.31,3,1.31,3,4.08,3.38a3.24,3.24,0,0,0-.15-4.07C436.3,153.89,435.11,154.13,433.88,155.64Z"/><path class="cls-6" d="M164.39,400.76c-.8,3.78-2.76,4.95-5.53,4.93-.3,1.32-.06,2.55-.74,3.67-1.71,2.84-5,3.67-7.49,1.52a41.75,41.75,0,0,1-7-7.63,3.14,3.14,0,0,1,1.34-2.12c3.79-3.38,7.58-6.78,11.59-10.37C159.59,394.14,163,396.84,164.39,400.76ZM154.58,408c2.3-3.9-1.56-5.1-3.18-7.93-1.21,1.7-3,2.08-3.61,3.92C150.09,405.42,150.83,409,154.58,408Zm2.09-12.3c-1.28.9-2.42,1.45-2.64,3a13.48,13.48,0,0,0,4,3.9c2.07,0,2.76-1,2.53-2.81A18.21,18.21,0,0,0,156.67,395.71Z"/><path class="cls-6" d="M440.15,362.35l14.74,8.56c.43,1.69-1,2.11-1,3.56H440.79l-.2.77,9,5.51a4.48,4.48,0,0,1-1.84,2.74l-15.31-8.92,1.9-3.21h13l.12-.74-8.94-5.33C438.17,363.85,439.1,363.24,440.15,362.35Z"/><path class="cls-6" d="M103.17,292.21c3.22.45,6.43-.19,9.57-.09,1.11,1,.79,2,.37,3.2-2.77.7-5.7.46-8.6.58a47.93,47.93,0,0,0-8.17.59c-1.22-1.1-.79-2.36-.73-3.74,3.06-2.8,7.1-4.53,10.37-7.74-3.75-.7-7,.59-10.38.3-1.11-.79-.82-1.86-.63-3.25l17.44-1.1c1.15,1.21.64,2.31.94,3.2-3.23,3.19-7.47,4.65-10.36,7.88l-.75.48C102.7,292.8,103.08,292.94,103.17,292.21Z"/><path class="cls-6" d="M235.34,454.12c1.2-3.74,2.18-6.8,3.19-9.84.09-.26.39-.45.6-.68a2.06,2.06,0,0,1,2.49,1.21c-1.17,5.44-3.24,10.84-4.88,16.19-1.44.59-2.33-.08-3.32-.66-1.73-3.76-2.16-8-3.77-12.42-2,3.43-2,7.11-3.67,10.13a4.31,4.31,0,0,1-3-1.05c1.67-5.39,3.33-10.79,4.92-16,1.3-.88,2.3-.44,3.43,0C233.18,445,233.27,449.55,235.34,454.12Z"/><path class="cls-6" d="M375,443.22c-.1,4.4-4.57,8.48-9.34,8.54s-9.33-5.37-9.13-10.9c.16-4.53,4.68-8.51,9.4-8.28S375.13,438.21,375,443.22Zm-10.79,4.64a7.06,7.06,0,0,0,4.17,0,5.74,5.74,0,0,0,3-5c-.81-2.64-1.84-5.17-4.38-6.64-2.76-.64-4.93.07-6.47,2.49C359.66,442.69,361.17,445.63,364.24,447.86Z"/><path class="cls-6" d="M477,299.51c2.24,3.39,1.82,6.68,1.23,9.81a7.85,7.85,0,0,1-7.28,6.1c-4.73.42-8.71-1.59-10.4-5.26-1.48-3.22-.71-8,1.77-10.34,1-.94,2.14-1.8,3.7-1.22.65.61.46,1.41.46,2.12-.32,1.59-2.31,1.56-2.67,2.67a6.56,6.56,0,0,0,.17,6.08c2.47,2.53,5.51,2.34,8.51,1.92a7.09,7.09,0,0,0,2.7-2.65c.86-2.46.32-4.17-1.8-5.72a2.06,2.06,0,0,0-1.36,1.69l-.34,1.66c-1.2.52-1.87-.09-2.62-.75-.35-2.3.86-4.41,1-6.89C472.52,298.16,474.57,299.86,477,299.51Z"/><path class="cls-6" d="M291.81,460.38a26.69,26.69,0,0,1,2.69,3.17c.87,1.42,2.12,2.63,2.54,4.36-1.13.91-2.34.47-3.47.46-3-2.14-3.33-7.16-8.16-7.45-1,2.45-.09,4.79-.54,7-.84,1.13-2,.5-3.33.85v-18.2a35.5,35.5,0,0,1,9.55-.3A5,5,0,0,1,296,455,5.32,5.32,0,0,1,291.81,460.38ZM284.69,458c5.76.28,5.76.28,7.62-2.58-2.39-2.87-2.63-2.92-7.51-1.71A6.83,6.83,0,0,0,284.69,458Z"/><path class="cls-6" d="M462.63,357.2c-.24,4.75-4.54,9-9,8.91-5.2-.13-10.62-4.87-10.26-9.4.41-5,3.94-9.35,9.16-9C458,348,462.86,352.52,462.63,357.2Zm-4.25-2.65c-2.89-2.59-5.8-3.95-9.34-2.62-4.1,5.43-2.48,8.44,5.5,10.54C459.18,360.35,459.53,359.65,458.38,354.55Z"/><path class="cls-6" d="M466,334.08c-6.07,0-10.22-3.57-10.19-8.79,0-5.47,3.25-9,8.21-9.13,5.83-.1,10.52,3.7,10.62,8.63C474.77,329.12,471.4,334.66,466,334.08Zm-6.91-7.29c2.08,3,4.81,3.69,7.88,3.53a4.05,4.05,0,0,0,3.86-2.78,4.86,4.86,0,0,0-.76-5.2c-1.61-1.87-5.72-2.95-8.1-2.15S459,322.61,459.13,326.79Z"/><path class="cls-6" d="M116.39,310.62l-2.67.33a29.4,29.4,0,0,1-1.66-8.41c-1.47-1.17-2.7-.28-4.17-.23.43,3.13.82,5.95,1.19,8.68a2.31,2.31,0,0,1-3,.11c-.58-2.46-.4-5.31-1.62-7.92a7.14,7.14,0,0,0-4.09.41c-.71,3.2.93,6.24.85,9.21-.62,1-1.44.78-2.6.84a68.49,68.49,0,0,1-2.21-13.31l17.49-2.84C115.39,301.8,115.53,306.06,116.39,310.62Z"/><path class="cls-6" d="M313,462.39c-.79,3.71-3.12,5.22-6.62,5.49-3.71.28-6.81-.34-8.11-4.44.38-1.36,1.57-1.17,2.69-1.31,1.36.38,1.61,2.2,3.43,2.66,2,.19,4.3.24,4.91-3.18-3.05-2.91-8.61-.29-11.21-5.55a6.42,6.42,0,0,1,.26-3.66c4.75-4.8,9.75-4.47,12.85.81-.64,1.07-1.72,1.12-2.82,1.22-1.09-.53-1.51-2-3.76-2.3a3.31,3.31,0,0,0-3.22,2.25c1.3,2.05,3.35,1.94,5.32,2.1C310.14,456.76,312.49,458.36,313,462.39Z"/><path class="cls-6" d="M142.77,374.55c-.4,1.44-.75,2.95-2.17,3.83-1.36-.18-1.55-1.42-2.2-2.2,0-1.1,1.14-1.89.6-3.83-.47-.93-1.19-2.6-3.16-2.5a1.83,1.83,0,0,0-1,2.25c.26,1.2.67,2.36,1,3.55,1.42,5.15.59,6.6-5,8.47-4.57-.82-6.18-4.36-7.29-8.34.32-1.92.82-3.65,2.36-4.79,1.3-.26,1.63.73,2.38,1.66-1.46,2.48-1.74,5.05,1,7.34a2.85,2.85,0,0,0,2.87-.13c.17-.52.5-1,.42-1.36-.41-1.95-1-3.85-1.4-5.8-.54-2.75.4-4.78,2.55-5.87s4.22-.6,6.21,1.5C141.38,369.8,141.88,370.91,142.77,374.55Z"/><path class="cls-6" d="M190.72,429.7A5.24,5.24,0,0,1,194,425c4.09-.78,6.91,1.31,9.2,4.39a7.64,7.64,0,0,1,0,4.59,4.13,4.13,0,0,1-2.95-1.06c-.74-1,.09-2.3-.91-3.15-1.09-1-2.23-2-3.95-1.71-1.57,1.72-.22,2.83.77,4,1.74,1.94,3.88,3.6,4.19,6.52a6.14,6.14,0,0,1-3.74,5.07c-4.33.84-7.48-1.22-9.83-4.5a14.34,14.34,0,0,1-.12-5.19c1.24-1,1.72.46,2.53.24,1.09,4.76,1.09,4.76,4.93,6.43a1.91,1.91,0,0,0,1.61-.76,5.82,5.82,0,0,0,.6-1.16c-.32-2.11-2.1-3.05-3.27-4.43A9.94,9.94,0,0,1,190.72,429.7Z"/><path class="cls-6" d="M437.12,385.68c-1.73,1.37-2.82,3.24-4.16,5.25,1.6,2,4.31,2.8,5.64,4.82-.08,1.3-.9,1.82-1.82,2.73l-14.07-10.17a2.86,2.86,0,0,1,2.14-2.72l5.34,3.41a29.06,29.06,0,0,0,3.95-5.31c-1.07-2.18-3.79-2.61-5-4.69a3.24,3.24,0,0,1,2.15-2.48l13.59,9.93c.33,1.68-.84,2.08-.88,3.13C441.16,389,439.66,386.41,437.12,385.68Z"/><path class="cls-6" d="M176.1,410.18l2.56,2.39c-4,4.39-7.89,8.69-11.62,12.82a3.24,3.24,0,0,1-2.79-1.79c.82-2.34,3.42-3.58,4.63-6.14l-5-4.65-5.19,5.54c-1.28-.18-1.76-1.19-2.77-2.23l11.33-12.63a2.48,2.48,0,0,1,2.92,1.5c-.51,2.24-2.82,3.16-4,5.46A27.88,27.88,0,0,0,171,415C173.15,413.79,174.18,411.57,176.1,410.18Z"/><path class="cls-6" d="M400.4,412c-.69-1.62.27-2.59,1.34-3.56,2.51-2.26,5-4.55,7.43-6.77a2.29,2.29,0,0,1,2,1.62l-6.28,6.85c.18,1.23,1.28,1.85,2.36,2.74l6.46-5.62a2.27,2.27,0,0,1,1.69,2c-1.33,2.36-4.1,3.74-5.8,6,.52,1.65,1.9,2.39,2.89,3.39,3.15-1.53,4.74-4.67,7.58-6.05a2.55,2.55,0,0,1,1.79,2l-9.77,9.05c-2.74-2.91-5.2-5.63-7.8-8.21-1.26-1.26-2.06-3.09-4-3.58Z"/><path class="cls-6" d="M223.21,437.85c1.27.55,2.14.86,2.77,1.79-.78,3.55-2.58,6.81-4.06,10.15-2.22,5-5,5.82-10,3.38-1.91-.93-1.91-.93-4-4-.45-5.52,3.26-9.86,4.75-14.68,1.4-.77,2.31-.12,3.43.2-.64,5-4.57,8.84-4.46,13.73,1.31,2.17,2.94,3,5.51,2.19C219.87,447,220.78,442.17,223.21,437.85Z"/><path class="cls-6" d="M133.77,387.67c2.9-4.37,7.95-6.41,11.49-9.9,1.59.36,1.92,1.42,2.51,2.55-3.09,3.33-7.53,5.19-10.3,8.57-.69,2.66.59,4.06,2.59,5.53,4.78-1.33,7.78-5.69,12-7.74,1.42.31,1.79,1.32,2.23,2.67-4.38,2.85-8,6.93-13,8.74C135.49,396.08,133.56,393.4,133.77,387.67Z"/><path class="cls-6" d="M148.63,140.7a3.32,3.32,0,0,1,.32-3H138.36c-1.33-1.14-.91-2-.62-3.5l13.09,1.3c1.91-.21,2.6-1.65,3.81-2.28a1.89,1.89,0,0,1,1.64,1.5l-.84,2L168,150.31c-.23,1.42-1.29,2-2.59,2.72-4.66-3.93-8.31-8.94-12.82-13.24-1.46-.49-2.43,2.16-4.09.81Z"/><path class="cls-6" d="M182.75,437.28a3.73,3.73,0,0,1-2.42-1.28c-.84-1.77.5-3.24,0-4.83a18.6,18.6,0,0,0-5-3.73c-1.63-.19-2.49,1.3-3.87,1.48a3.5,3.5,0,0,1-2.67-2.23l15.12-9.35c1.86-.19,2.77.62,3.88,1.79A157.85,157.85,0,0,1,182.75,437.28Zm.22-15.09a9.59,9.59,0,0,0-4.82,3.05c1.11,1.1,2,2.13,3.45,2.47.91-1.77,1.86-3.5,1.31-5.58.61.21.73,0,.5-.57Z"/><path class="cls-6" d="M474.46,256.07l-5.18-3.17-5.64,3.94c-.14-2.56,1.16-4.52,1.56-6.79-1.37-2.21-4.33-2.77-5.9-5.14h7.1c1.82-1.91,1.34-4.81,3.23-6.79l2.43,6.67h7c-1.06,2.67-3.78,3.06-5.24,5-.36,1.95,1.35,3.64,1.18,5.67Z"/><path class="cls-6" d="M98.86,255.47l1.32-5.61-5.08-4.15c2.23-1.46,4.47-.35,6.48-1,1.56-1.73,1.39-4.28,2.8-6.41,1.45,2,1.34,4.54,3,6.6h6c-.49,3-3.52,3.1-4.73,5.18l2.18,7.15-6.36-4.34-5,3.19A4.17,4.17,0,0,0,98.86,255.47Z"/><path class="cls-6" d="M108.82,346.2c-1.59-.87-1.07-2.07-1.48-3,.94-1,1.76-1.87,2.38-2.54.15-.45.27-.62.23-.74-.6-2.05-1.22-4.1-1.76-5.87-1.53-1.45-3.27-.36-4.66-1.14a2.29,2.29,0,0,1-.36-2.66h18a4.22,4.22,0,0,1,1.43,4C118,338,113.74,342.6,108.82,346.2Zm4.33-7.71c1.38-2.47,3.77-2.86,4.6-5.34-2.29.17-4.25-.24-6.09.32C111.26,335.2,112.26,336.3,113.15,338.49Z"/><path class="cls-6" d="M427.81,404.39c.85-2,.23-3.51.08-5a2.37,2.37,0,0,1,2.15-1.56c.27.13.65.17.79.37,2,2.84,1.39,5.57-.58,8.09a7.56,7.56,0,0,1-8.11,3.06c-4.91-1.13-7.49-4.51-8.66-9.07,1.38-7.11,4.7-9.65,10.57-8.19.37,1.21-.43,2-1.13,3l-3.3.21c-1.84,1-2.82,2.37-2.59,4.27.4,3.33,3,5,5.56,6.31C424.91,407.07,426.71,405.93,427.81,404.39Z"/><path class="cls-6" d="M375.85,430.33a4.21,4.21,0,0,0,2.2,3.3l5.83-3.27a3.39,3.39,0,0,1,1.5,2.08c-1.35,1.88-3.86,2.33-5.58,4.19.22,2.4,2.55,4,3.09,6.35-.37.94-1,1.49-2.59,1.72-3.53-4.3-5.93-9.62-9.6-14.56a53.13,53.13,0,0,1,10-6.48c1.15.28,1.45,1,2,1.68C381,427.64,378,428.2,375.85,430.33Z"/><path class="cls-6" d="M120.79,182.35c-1.32.37-1.46,1.84-2.65,2-.61-.15-1.13-.43-1.45-1.57.89-2.55,2.73-5,4.3-7.69l2.12,1.18-.37,2.38,15.59,9.13c.39,1.63-.23,2.44-1.48,3.44C131.3,188.81,126.21,185.08,120.79,182.35Z"/><path class="cls-6" d="M461.89,296.7a4.44,4.44,0,0,1,.33-3.84c2-1.66,4.77-2,6.88-3.95l-6.22-4.52c-.52-1.27-.13-2.27.22-3.6,3.77,1.49,6.21,4.63,10,6.71l6.76,1c1,.91.25,2,.5,3.16-2.6.88-4.95-.63-7.9-.22Z"/><path class="cls-6" d="M116.76,312.5a120.38,120.38,0,0,1,3.34,13.11c-.6,1.48-1.43,1.62-2.34,1.5-1.29-1.2-.4-3.16-2.09-4.5-4.58.2-9.09,2.35-13.83,3-1-.93-.78-2-.71-3.47l13.53-3.44c1.14-1.75-.79-3.21-.32-4.9C114.75,313.08,115.5,312.9,116.76,312.5Z"/><path class="cls-6" d="M400.31,411.91c.08,2.51-2.69,2.71-3.73,4.71,2.88,3.76,5.84,7.64,8.68,11.37a3,3,0,0,1-2.58,2c-3.6-3-5.73-7.64-9.21-10.87-1.77.33-2.51,2.08-4.1,2.28-1-.05-1.28-.74-1.59-2,3.16-3,6.91-5.6,10.5-8.37l2.12,1Z"/><path class="cls-6" d="M470.25,338.39c-1.1,3.82-2.06,7.8-4.26,11.57-5.64-1.95-11.2-3.49-16.33-5.89a3.31,3.31,0,0,1,1.42-2.95l13.27,4.35c1.79-2.42,1.79-5.36,3.31-7.67C468.55,337.24,469.35,337.46,470.25,338.39Z"/><path class="cls-6" d="M128.69,348.46l1.21,2.88c-5.55,1.61-10.16,5.92-16.31,5-4.72-4.25-4.8-6.86-.46-10.41,1.22-.12,1.35,1,2.11,1.92-.59,1.62-3.79,3.39-.28,5.44C119.66,352.39,123.69,349.2,128.69,348.46Z"/><path class="cls-6" d="M244.72,445.71a2.8,2.8,0,0,1,3.43.55c-.72,5.49-2.62,11-3.92,16.48-1.19.71-2.18.5-3.6-.27C242,457,243.34,451.39,244.72,445.71Z"/><path class="cls-6" d="M117.08,364.77c-1.24-1-1.13-1.94-1.66-2.93,5.2-3.09,10.5-5.37,15.49-7.83a4.77,4.77,0,0,1,2,2.73C127.89,359.85,122.43,362.07,117.08,364.77Z"/><path class="cls-6" d="M319.88,465.41c-1.59.63-2.47.78-3.64.1-.94-5.45-2.39-11.06-2.59-16.62.84-.95,1.65-.75,2.9-.84C318.26,453.63,318.73,459.53,319.88,465.41Z"/><path class="cls-6" d="M452.81,213.92c-.57-1.5-1.61-2.51-1.44-4a4.71,4.71,0,0,1,3.23-1.48,7,7,0,0,1,1.55,3.51C455.58,213.31,454.24,213.3,452.81,213.92Z"/><path class="cls-6" d="M467.28,207.12c-.74,1.36-1.9,1.61-3.38,1.53-.49-1-1-2.08-1.5-3.1a4.12,4.12,0,0,1,3.29-1.85A5.36,5.36,0,0,1,467.28,207.12Z"/><path class="cls-6" d="M99.53,256.06c-.19.39-.39.77-.93.52-.32-.46,0-.79.26-1.11A4.17,4.17,0,0,1,99.53,256.06Z"/><path class="cls-6" d="M475,255.5c.34.29.66.58.33,1.1-.53.26-.72-.14-.9-.53Z"/><path class="cls-6" d="M239.74,268.63v32.9c-1.54,1-3,.67-4.73.29V249c1.6-.89,3.29-.2,5.24-.55,3.95,11.43,7.84,22.71,11.74,34l.54-.05V249c1.93-.68,3.57-.36,5.48-.36v53.11a9.28,9.28,0,0,1-5.89-.05l-11.6-33.3Z"/><path class="cls-6" d="M286.05,263.78a15.58,15.58,0,0,1-5.37.45c-.45-2.7-.63-5.41-3.36-7.14-2.45-.72-4.93-.69-6.75,2.06a8.31,8.31,0,0,0-.05,5.42c1.33,2.26,3.64,3.3,5.93,4.14,8,2.92,11,8.78,10.82,16.94-.1,3.89-.33,7.66-2,11.27a10.14,10.14,0,0,1-9.58,6.12c-4.17.09-7.3-1.86-9.36-5.64s-2.75-8-3-12.54l5.57-1.1c.91,3.66.84,7.66,4.64,9.78,4.72.49,6.62-.61,7.68-4.45,1.12-4-.11-6.88-3.89-8.85-1.37-.71-2.82-1.27-4.17-2a30.92,30.92,0,0,1-3.93-2.42c-6.29-4.76-6.21-20.58-.72-25.46a10,10,0,0,1,15.25,2C285.61,255.26,286.33,258.63,286.05,263.78Z"/><path class="cls-6" d="M292.69,248.76h5.15c.9,1.62.49,3.19.5,4.69q.07,13,0,26a74,74,0,0,0,.73,8.29,8,8,0,0,0,1.79,4.21,4.68,4.68,0,0,0,7.82-.35,10,10,0,0,0,1.5-5.71c0-10.37.1-20.74.16-31.11,0-1.85,0-3.7,0-5.68,2-.93,3.89-.52,5.65-.39.79,1.28.5,2.39.48,3.44-.17,12,.44,24.12-.44,36.17a34.29,34.29,0,0,1-1.29,7.26c-1.35,4.46-5,7.45-9.55,7.4-5-.06-7.71-1.07-10.28-6.32a24,24,0,0,1-2.15-10.32C292.58,274,292.69,261.59,292.69,248.76Z"/><path class="cls-6" d="M320.77,257.85v-9.06h23.49c.47,2.79.18,5.63.22,8.79h-8.91v43.87c-2,1.16-3.71.4-5.95.83,0-7.72,0-15.07,0-22.42s0-14.46,0-22Z"/><text class="cls-7" transform="translate(81.63 640.67)">NSS<tspan class="cls-8" x="358.7" y="0"> </tspan><tspan class="cls-3" x="407.41" y="0">NSUT</tspan></text></svg>