<svg id="Layer_1" data-name="Layer 1" xmlns="http://www.w3.org/2000/svg" viewBox="0 0 1080 1080"><defs><style>.cls-1{fill:#fff;}.cls-2{fill:#ec3136;}</style></defs><title>nsut-icon</title><ellipse class="cls-1" cx="542.17" cy="542.99" rx="520.4" ry="520.44"/><path class="cls-2" d="M1066.08,540.1c-.4,290.61-235.52,526-526.22,526S13.29,830.19,13.93,538.78C14.56,248.65,250,13.29,541.19,13.93,831.09,14.56,1065.77,249.59,1066.08,540.1ZM539.67,30.9C259.44,30,31,259.32,30.67,539.45c-.3,280.6,228.36,509.73,509,509.88S1049.26,820.53,1049.25,540,820.39,29.72,539.67,30.9Z"/><path class="cls-2" d="M912.66,539.87c2.81,204.34-168.61,373.67-373.13,373.46C335.59,913.12,166.17,743.94,166.66,539c.49-203.58,169.56-373.13,374.86-372.33C744.57,167.47,915.28,335.85,912.66,539.87ZM475.05,190.4c-7.26-1.62-14.09,1.3-20.72,3C400.7,207.14,352.27,231.34,310,267.33c-2.53,2.15-5.85,3.81-7.62,8.31,37.25-9.08,73.23-4.83,109.15,2.31,1.22-2.29,2.11-3.88,2.93-5.49s1.59-3.28,2.24-4.63c-9.42-21.17-1.79-34,22.11-37.46,6.51-7.7,12.75-16,19.76-23.75,5.22-5.73,12.18-9.65,16.34-16.37l2.12-1.1C475.59,188.83,474.62,188.56,475.05,190.4Zm0,699.2c-.33,1.68.33,1.86,1.67,1.09l-1.83-.94c-.52-2.89-3.19-4-5-5.58-19.76-17.47-34.8-38.57-47.42-61.52-3.72-6.75-7.26-13.6-11-20.65l-27.21,5c-13.12,18.45-26.43,19.1-42.85,2.23-12.72,1-25.46-2.43-39.52-4.48a41.81,41.81,0,0,0,3.09,3.58,352.57,352.57,0,0,0,133.37,73.77C450.22,885.7,462.15,890.38,475.05,889.6Zm129.82,0c7.64,1.37,14.76-1.56,21.8-3.35a357.29,357.29,0,0,0,140.92-71.42c1.73-1.42,3.39-2.92,5-4.45s3.83-2.63,4.83-6c-37.31,9.16-73.32,4.73-109.2-2.3-2.08,4.11-3.71,7.42-5.41,10.69-11.39,21.87-24.49,42.52-41.47,60.61C616.08,879,609.2,883,605,889.75l-1.83,1C604.53,891.46,605.21,891.3,604.87,889.6Zm0-699.2c.33-1.69-.33-1.87-1.66-1.09l1.83.94c.51,2.89,3.19,3.95,5,5.58,19.78,17.5,34.83,38.63,47.46,61.61,3.72,6.76,7.27,13.6,11,20.63,36.41-7.63,72.32-11.16,109.09-3.72-1-2-2.75-2.84-4.14-4.05a352.85,352.85,0,0,0-131.85-72.43C629.74,194.3,617.79,189.61,604.87,190.4ZM540,734A762.12,762.12,0,0,0,698.52,617.83,744.41,744.41,0,0,0,698.44,462c-48-45.42-100.51-84.25-158.54-115.92A760.86,760.86,0,0,0,381.65,461.92c-5.88,59.48-5.87,97.39,0,156.17A761.15,761.15,0,0,0,540,734ZM301.25,525.76a792.55,792.55,0,0,1,64-71.43c6.62-54.51,18-108.1,38.88-159.18-3.52-2.83-7.18-3.11-10.83-3.84-8.07-1.62-16.25-2-24.36-3.09a165.73,165.73,0,0,0-62.09,3.33c-42.07,10.55-65.41,40.4-65.41,82.94,0,21.51,4.63,42,11.79,62.08C264.53,468.32,281.25,497.09,301.25,525.76ZM675.84,295.23c20.82,51,32.26,104.62,38.86,159.23,22.91,22.26,43.64,46,64.1,71.14,19.9-28.54,36.57-57.32,47.92-89.06,8-22.29,12.79-45,11.56-68.8-1.78-34.56-21-60.54-53.56-72.48-29.65-10.86-60-9.64-90.39-5.08C688.32,291.09,681.51,290.21,675.84,295.23ZM714.6,625.65c-6.4,54.81-18.14,108.29-38.94,159.69a31.77,31.77,0,0,0,10.22,3.27c9.61,1.1,19.14,2.92,28.77,3.75,24.74,2.11,49.26.83,72.58-8.48,25.91-10.34,42.83-28.86,48.89-56.65,4.23-19.37,2.59-38.57-1.61-57.6-2.62-11.88-5.92-23.65-11.48-34.49-8.31-1.14-14.41-5-18.32-11.95-4.94-8.79-2.06-17.2,1.73-24.81-8.81-15.18-17-29.77-27.86-43.78C758.51,579.35,737.93,602.87,714.6,625.65Zm-349.38-.1c-23-22.41-43.67-46.14-64.16-71.12-19.87,28.76-36.6,57.49-47.93,89.26-8.34,23.4-13.41,47.2-11.16,72.13,2.35,26,13.87,46.91,36.35,60.85,18.84,11.68,39.95,15.38,62.24,16.42,3.89-9.46,10.21-15.23,20.82-16.09,10.85-.87,16.91,6,22.93,12.93,6.73-1.88,13.85-.1,19.79-5.17C383.21,733.42,371.76,679.86,365.22,625.55ZM539.93,752.72a575.14,575.14,0,0,1-112.11,45.33c4.87,8.81,9,16.75,13.54,24.4,13.28,22.24,28.71,42.67,50.19,57.8,30.94,21.79,65.85,21.92,96.68,0,29.34-20.82,47.45-50.32,63.59-82.41C612.5,786.87,575.94,771.59,539.93,752.72Zm.17-425.47a575,575,0,0,1,112-45.3c-4.85-8.76-9-16.7-13.52-24.35-13.27-22.26-28.71-42.71-50.2-57.83s-45.37-21-70.9-13c-28.29,8.9-47.68,29.23-64.05,52.32,9.11,20.64.47,36.1-22.6,37.67-.3,1.7-2.46,2.77-1.45,5.73a541.59,541.59,0,0,1,55.2,19C503.19,309.08,521.28,317.69,540.1,327.25Zm-316.62,49.5c-26.87,51.37-39.55,105.72-40.21,163.56-.76,65.56,24.23,140.49,41,162.71,3.46-62.32,32.44-113.81,66.41-163C256.36,490.33,227.65,438.73,223.48,376.75ZM855.66,705.48c59.1-109.65,49-245.39-.13-329.3-3.13,63-32.33,114.4-66.49,164.13,12.16,16,22.07,33.43,32.35,50.1,21.8-.54,34.31,19.77,18.36,40.46C848.91,653.67,854.2,677.84,855.66,705.48Zm-471.12-269C428,397.74,472.89,365.05,522.13,337c-32.95-16.88-66-30.25-101-39.29C402.48,342.29,391.45,387.47,384.54,436.49ZM658.47,298.2c-21.7,3.49-82.41,27.53-100.2,39.13,48.77,27.51,93.44,60.48,136.2,98.2C692.18,401.59,674.75,331.05,658.47,298.2Zm.24,484.25c18.79-44.3,29.75-89.75,36.64-138.93A801.85,801.85,0,0,1,557.89,743,499.39,499.39,0,0,0,658.71,782.45ZM522.14,743c-49.49-28.09-94.15-60.84-137.67-99.43,7.15,49.11,18,94.6,36.73,138.9A500.3,500.3,0,0,0,522.14,743ZM363.36,598.28c-3.77-39.47-3.32-77.55-.15-118a579.1,579.1,0,0,0-51.67,59.89c13.84,17.84,27.71,34.83,43,50.61C356.84,593.09,358.62,596,363.36,598.28Zm353.3,1.15c19.93-19.39,36.1-39.09,51.79-59.5-16-20.33-31.79-40.22-51.91-59.28A669.36,669.36,0,0,1,716.66,599.43Z"/><path class="cls-2" d="M749.72,124.8c.67-2.23,1.09-3.61,1.88-6.2,16.37,7.79,30.88,17.76,45.94,25.88.69,7.27-4.47,4.86-8,5.84-3.74,6.45-7.35,13.38-11.64,19.86-4.18,6.33-6.17,14.24-13.32,19.91,1.7,5.69.66,11.91-5.91,15.89s-13,2-19-1.55c-8.42-5-12.64-13.22-16-21.91,2.14-2.15,4.24-3.48,7.77-3,2.22,6.27,4.53,12.94,10.41,17.38s9.21,4,15-2c-1-5.47-6.27-5.42-9.8-7.08a6.08,6.08,0,0,1-.8-5.57c4.26-2.45,7.83.91,12.4,1.38a197.1,197.1,0,0,0,15.06-25.75c-6.71-4.29-12.66-9.24-21.28-10.89-5,8.88-1.37,17.7-1.27,26.48-1.37,2-3.55,1.94-6.33,1.52-4.43-9.92-4.58-20.32-2.06-31.08-3.24-2.53-7.09-3.84-10.64-5.2-4.1.87-3.08,6.15-6.71,7.14-7-6.13-8.59-12.18-5.18-19.63,3.5-.33,6.26,1.75,9.17,3.15,15.58,7.5,33,10.78,46.43,21.27,4.05-.92,4.3-3.88,6.09-6.62Z"/><path class="cls-2" d="M613,75.44c1.28.71,3.93-.45,5.53,1.64.92,3.3.46,4-5.26,7-2.78,14.18-2.67,29.17-6.13,43.05-3.44,1.36-5.84.53-9.25.31,1.81-15.64,3.54-30.61,5.23-45.26-3.62-2.26-7.49-.84-9.87-4.71-5.78,8-2.94,16-4,23.46-1.07,7.71-1.48,15.51-2.18,23.28-3,1.67-5.72,1.19-8.38-.17-1.64-3.63.19-7.44-.87-11.91-6.73,2.46-13.1,2.56-19.16-1.2-4.54-2.82-6.28-7.13-7.24-11.86.66-9.27,5.72-14.59,14.5-15.94,4.17-.64,9.19-1.08,10,5.41-3.38,2.83-7.64-.82-11.2,2.7-3.08,5.19-3.08,5.19-1.69,12.41,8.28,4.9,8.28,4.9,16.56-2.52.33-6.72.69-14.1,1.07-22-10.22-2.63-20.56-2.81-30-3.06-2.89-1.78-1.94-3.74-1.88-6.93a361.91,361.91,0,0,1,57.24,5L588.73,50.77c.71-3.22,2.73-3.91,5.56-4.62C601.37,54.73,605.9,64.91,613,75.44Z"/><path class="cls-2" d="M300.23,138.84c.06-1.07.11-2.15.21-4.3,22-12.58,44.73-25.09,68.75-34.11,5.92,3.91,1.25,6.53-.32,9.94l16.19,40.88c-1.95,1.95-4.29,2.93-7.92,3.49-7.73-12.64-11.06-27.62-17.86-40.89-8.13.63-8.13.63-16.65,6.87-.12,4.7,5,7.39,4.81,12.47-6,5.74-15.54,6.73-20.92,13.59C328,155.2,328,155.2,336.65,157c4.67-3.7,7.37-9.17,11.39-13.47,9.78-.56,9.91-.44,10.6,10.15,1.54,3.62,6.1,3.86,8,7-.75,3.41-4,3-6.55,4.73l-8-5.15-10.56,4-6.69,8.52c-2.45.25-4.18-.23-5.57-1.64-1.57-1.63.16-3.56-.81-6-5.9-2.34-10.83-6.55-12.22-13.89.52-12.15,11.76-13.9,19.08-19,.85-3.48-.85-5.21-3.35-6.74-7.16,3.76-14.42,7.45-21.56,11.37-3.33,1.83-6.57,3.29-10.4,1.83Z"/><path class="cls-2" d="M439.15,104.67c-1.64,4.39-.07,8.67,5.8,11.27,4-.26,6.84-2.5,9.6-5.64.83-8.07-2.83-15.73-2.77-24.48-10.62-.3-20.13,3.39-29.25,3.78-3.43-1.5-2.75-3.74-3.12-6.42,22.78-3.68,44.92-7.89,66.68-10.19,2.5,1.93,2.67,3.62,1.51,6.26L462,83.61c-1.19,3.16-.19,6,.12,9.31,2.69-1.28,5.1-3,7.74-3.52,2.84-.6,5.91-.14,8.53-.14,13.08,8.81,13.57,17.37,2.1,31.52-3.07.77-4.82-1-6.31-3.32,7.6-14.82,7-18.39-3.75-21-3.73,1-4.6,4.54-6.63,7.15q2,12.86,3.93,25c-2.68,2-5.23,1.81-7.9,1.44-3.51-2-1.65-6.26-4.12-9.28-7.19.6-10.92,7.6-16.72,10.92-3.11-.49-4.09-3.19-6.06-5l4-4.66c-2-2.63-5.52-4.44-6.46-8.06a25.89,25.89,0,0,1-.47-11c5.27-7.43,5.27-7.43,14.68-10.57a6,6,0,0,1,3.33,4.38C446.75,100.16,442.26,99.48,439.15,104.67Z"/><path class="cls-2" d="M462.61,999.18a15.56,15.56,0,0,1-9.52-3.12c-1.82-14.07-3.67-28.34-5.47-42.23,3.12-2.47,5.52-1.63,8.65-.36,1.44,10.22,3.44,20.73,3.47,32.71,8.42-8.23,11.33-18.93,18.13-26.88,13.87-1.71,27.3,1.6,40.38,2.27,2,2.28,1.48,4,.38,6.36-7,1.69-14.35-.78-21.6-.39-2.8,2.32-1.83,5.36-2,8.31,6.5,2.6,13.65.47,19.61,3.58,1.59,1.77,1,3.62.7,5.76-6.93,2.43-13.73-2.07-20.94-.79-2,3.28-1.45,6.89-1,10.49,6.86,4,14.95.69,21.54,4,1.52,2.45,1.12,4.44-.95,6.82-9.4-2.1-19.57-.8-29.74-3.88-2.36-12.59,3-24.89,1.6-39.48Z"/><path class="cls-2" d="M123.65,371.91c-1.69-3.87,1-7.46-.15-8.77-3.47-5-6.54-5.33-10-4.19-4.09,4.2-2,9.15-1.8,13.72a7,7,0,0,1-5.4,3.82c-4-3.26-3.53-7.87-3-12.2.91-7.28,6.15-13.81,11.79-14.86,7-1.3,11.14,2.33,13.82,8.74,5.09-2.89,9.66-5.84,9.45-13-3.79-3.59-9-4.65-12.9-7-4-.12-3.78,3.76-6.36,4.92a5.73,5.73,0,0,1-5.29-1.65A81.68,81.68,0,0,1,123,321.82c5.86,0,4.77,3.62,5.36,7.07l39.18,18.48c1.79,4.09-1.09,6-2.17,9.26l-18.57-8.52c-2.47.68-2.08,3.41-4.4,5.19,6.85,3.71,11.23,8.49,11.85,15.76-3.67,15.48-12,21.15-30.27,20.64-2.12-2.25-1.53-4.62-.27-7,21.8-4.34,21.8-4.34,21.58-15.45-2.44-3.16-5.6-4.64-11.34-3.55C130,363.89,131.41,373.81,123.65,371.91Z"/><path class="cls-2" d="M688.55,148.83c.8-2.89,1.56-5.69,2.22-8.09-.49-1.63-1.32-2.19-2.48-2.32-7.7-.91-14.35-3.69-18.73-10.5-3.1-4.82-4.95-9.86-3.14-15.4,3.83-2.73,7.74.32,12.58-2.11,3.44-3.07,6-7.42,1.58-13.24l-11.83-4.72c-.57-2.79.74-4.06,3-6.13,12.6,4.55,26,8.64,38.75,14.22C723,106,735.88,110.62,747.81,117c1.43,2.66.05,4.26-2.14,6.45l-32.44-14.58-16.09,42.91C693.42,152.14,691.14,150.32,688.55,148.83ZM674.8,119.54c3.66,8.53,3.66,8.53,12.23,12,3.37-.22,6.24-1.74,9.25-4.39,2.35-6.69,4.87-13.85,7.66-21.77L691.48,101c-1.45,4.1-.13,7.65-2,10.6C686.28,117.1,681,119.17,674.8,119.54Z"/><path class="cls-2" d="M943.13,309c1.36-1.79,2.52-2.59,5.71-2.13,8.34,14.32,17,29.52,25.08,45.32-2.23,1.12-3.17,1.91-4.19,2-2.05.28-3.25-1.51-5.43-2.84L926,372.51c-3.51-1.43-4.61-3.91-5.2-7.66l25.26-14.53a59.78,59.78,0,0,0-11.53-20.18c-10.89,4.15-11.67,14.57-15.25,23.66l-7.17-2.88c3.3-12.69,6-25.29,21-30.3,12.51,3.67,12.26,17.9,20.58,24.85a7.7,7.7,0,0,0,5.8-3.72C955.79,330.07,946.67,320.66,943.13,309Z"/><path class="cls-2" d="M300.05,138.65c.89,3.24-.83,5.64-2.88,8.42L321,184.2c-2,2.66-3.79,4.55-7.46,4.57-5.48-4.34-7.41-12.16-12.57-16.88-3.48-.2-5.11,2.05-7.11,3.33-1.39,4,4.43,6.58,1.07,11.3a33.93,33.93,0,0,1-19.61-3.27c-.94-4.93,2.79-5.81,4.93-8.4-3.49-4.28-4.86-10-9.8-12.14-9,.81.51,10.4-7.17,11.83-5.89-3.13-3.74-8.5-3.4-13.08,4.37-6.17,10.11-7.85,16.66-6.76,3-1.25.82-4.32,3.12-6.48,3.63-2.38,8.18-5,12.26-8.18,2.78-2.18,5.47-1.54,8.34-1.2ZM296,164c-2.22-4.76-4.63-8.79-8.42-12.18l-8.93,4.74c4.24,4.16,5.53,9.49,10.46,12.42C291.49,167.9,293.78,166.85,296,164Z"/><path class="cls-2" d="M529.49,85.31c1.57-3.42,1.74-5.84-.27-9.1H493.86c-1.76-2.57-1.58-4.24-.3-6.36H544.5c.25,1.85.45,3.26.64,4.72l-5.09,3.51v43.6c-2.87,2.54-5.47,1.19-8.5,1.64-2-10.16.11-20.21-1.31-30.83-7.63-.36-15.19-1.51-23.15,1-1.87,11.54,7.21,17.18,12.57,24.42-.66,2.75-2.62,3.83-5.31,5.31-6.63-5.62-12.39-12.11-15.66-20.58-3.95-10.26.34-16.84,11.39-17.24C516.4,85.12,522.74,85.31,529.49,85.31Z"/><path class="cls-2" d="M656.71,945.55c6,2.83,9.57,8.37,15.84,12.14,1.65-6.47,3.09-12.1,4.62-18.08a10.53,10.53,0,0,1,8.46-2.45c-.31,9.75-4.91,18.46-6.38,27.91.86,5.74,4.61,10.86,4.61,16.59-2.19,2.92-4.59,3-7.46,2-3-4.65-3.47-10.36-5.62-15.73L652.31,952.5c-3.55-.39-3.16,4.07-6.27,4.08-2.53,0-5.06.9-7.95,1.48-1,12.26,5.59,23.23,5.15,34.9-2.17,2.62-4.57,2.73-7.67,1.45-3.29-10.6-3.85-22.22-8-33.28l-10.6.62c-2.57-1.42-3-3.08-2.5-5.83C628.1,951.31,643.06,950.48,656.71,945.55Z"/><path class="cls-2" d="M916.45,264.38l4.3-2.42,25.82,38.25c-.44,2.36-1.23,3.52-2.67,4.21-2.62,1.23-3.56-2.41-6.62-1.9l-36.42,24.32A8.35,8.35,0,0,1,896,319.2l9.81-7.56c-3.16-2.63-6.9-4.72-9.19-7.87a15.06,15.06,0,0,1,4.62-22.24c6.92-4.11,16.9-1.23,21.24,6.24,1.53,2.63,2.57,5.41-1.44,8.34-3.24-4.75-6.8-10-13.77-6.88a8,8,0,0,0-5,8.06c.29,5.72,3.84,8.51,9.76,9.54,7.49-2.64,13.36-8.49,20.78-12.87-3.56-8.17-9.34-14.53-13.68-21.75-1.49-2.48-4.07-4.59-2.49-8Z"/><path class="cls-2" d="M203.63,214.83c-.62,3.15-1.25,6.29-1.93,9.68l33.35,29.21c-.68,3.69-3.3,5.11-5.63,7-7.71-4.53-13.37-11.13-20.4-16.62-4.22,3.13-7.32,7.23-10.23,11-.37,4.47,4.89,4.89,5,8.74-2,4.58-6.29,2.85-9.69,2.88s-7.54,1.46-10.88-2.87c3.38-10.21,13.7-15.82,18.67-25-2-3.14-4.58-5.14-8.17-7.09l-24.35,27.52c-2.21-.52-3.4-1.77-4.64-4.44,9.64-13.5,22.05-25.32,32.48-38.5l6.64-1.25Z"/><path class="cls-2" d="M887.28,219.38c-1.18,3.51,4.78,5.23,2.27,9.08l.19-.18c-3,1.34-5.57,0-9.89-2-9.81,10.4-20,21.2-29.94,31.77-3.58-.65-5-2.67-5.9-5.17,0-2.13,1.38-3.37,2.65-4.7s2.54-2.69,4.7-5c-4.42-1.63-8.21-3.47-10.84-6.81a22,22,0,0,1-4.84-11c3.52-12,10.67-17.29,19.6-14.46a17.4,17.4,0,0,1,9.59,7.3c1.35,2.11,1.08,4.19-1.09,5.84-3.64-.23-4.55-5-8.58-5-9.33,1.66-9.33,1.66-10,11.89,4.75,4.64,4.75,4.64,11.53,6.1,6.65-4.38,11.21-11.35,18.49-17.34L853,197.14c.36-3.1,1.45-4.39,4.52-5,5.61,5.61,11.53,11.74,17.71,17.59,2.28,2.15,3.71,5.83,7.85,5.35l-.22-.24c-.38,2,.46,2.83,2.46,2.47l-.22-.22q-.59,3,2.46,2.47Z"/><path class="cls-2" d="M883,215.07c-1.53-10.41-5.33-20.08-10.11-29.35-2.79-5.43-6.72-9.89-13.34-10.76-5,.9-7.46,4.61-9.44,7.43-2.36,4.62,5.83,7.8-.42,11.87-1.56.73-2.8-1.63-5.45-1.37L816,226.38c-3.82-.09-5.55-2.37-7.66-5.7L836.11,187c.52-3.55-3.21-4.46-3.25-7.28,2.14-6.24,5.59-2.05,8.57-.93a7.38,7.38,0,0,0,1.86-1.32c8.91-12.45,19.88-13.3,30.58-2.35,5.64,5.77,8.48,13.12,11,20.47,2.05,5.95,3.25,12.2,4.66,18.36.49,2.17.71,4.56-2.28,5.41l.23.17c0-1.65-.93-2.35-2.46-2.47l.22.22c-.09-1.54-1.09-2.19-2.46-2.47Z"/><path class="cls-2" d="M916.65,264.19c-2-.47-4.32-.24-6-1.92C901.73,275,893.9,277.44,879.24,271c-2.68,4.48.33,9.44-1.19,14.09-2.14,2.16-4.71,1-7.17.8-2.51-8.89-2.52-18.35,0-31.66,2-1.7,4.13-.73,6.47-.06,2.31,6.65,5.07,13.09,15,11.66-2.27-4.88-7.07-7.78-7.43-13.19-.4-5.9,2-9.93,6.82-12.05.49-3.78-3-4.77-3.29-7-.71-2.33,2.22-3.27,1.31-5.33l-.19.18c2.49.39,5,.76,6.38,3.31a12.8,12.8,0,0,0,1.37,1.76l18,22.46c2.82,4.16.34,6.22,1.13,8.39ZM892.1,251.12c3.16,7.19,3.16,7.19,9.84,8.15,2.37-3.53,1.88-6.88-.35-9.82C898,246.9,895.08,247.48,892.1,251.12Z"/><path class="cls-2" d="M241.9,842.52c-1.93,9.11-6.66,11.94-13.35,11.9-.71,3.18-.15,6.14-1.77,8.85-4.13,6.85-12.06,8.87-18.09,3.67a101.79,101.79,0,0,1-17-18.42c.35-2.69,1.84-3.85,3.23-5.09,9.16-8.18,18.29-16.37,28-25C230.33,826.56,238.55,833.06,241.9,842.52ZM218.24,860c5.55-9.41-3.77-12.29-7.67-19.12-2.92,4.08-7.18,5-8.72,9.45C207.39,853.77,209.18,862.4,218.24,860Zm5-29.67c-3.09,2.17-5.83,3.5-6.38,7.22,2.82,3.58,5.68,7.38,9.57,9.4,5-.07,6.64-2.32,6.1-6.79A44.35,44.35,0,0,0,223.28,830.34Z"/><path class="cls-2" d="M907.23,749.85l35.56,20.66c1,4.06-2.36,5.08-2.49,8.59H908.77l-.48,1.86,21.81,13.29a10.72,10.72,0,0,1-4.43,6.61l-36.93-21.52,4.56-7.75h31.37l.3-1.78-21.59-12.87C902.46,753.48,904.71,752,907.23,749.85Z"/><path class="cls-2" d="M94.19,580.63c7.76,1.09,15.53-.47,23.1-.23,2.68,2.33,1.91,4.79.88,7.73-6.68,1.69-13.75,1.1-20.73,1.4-6.66.28-13.35,0-19.71,1.42-3-2.65-1.93-5.7-1.79-9,7.39-6.74,17.14-10.91,25-18.67-9-1.68-17,1.43-25,.72-2.67-1.9-2-4.49-1.51-7.83l42.06-2.66c2.79,2.91,1.54,5.58,2.27,7.71-7.8,7.7-18,11.23-25,19L92,581.38C93.07,582.05,94,582.38,94.19,580.63Z"/><path class="cls-2" d="M413.07,971.27c2.92-9,5.28-16.4,7.72-23.76.2-.61.92-1.06,1.44-1.63,2.33-.5,4.31,0,6,2.92-2.83,13.12-7.81,26.16-11.77,39.06-3.48,1.42-5.62-.18-8-1.59-4.17-9.07-5.2-19.33-9.09-30-4.79,8.28-4.84,17.16-8.84,24.44a10.3,10.3,0,0,1-7.36-2.54c4-13,8-26,11.87-38.48,3.13-2.12,5.54-1.08,8.27-.07C407.88,949.14,408.09,960.24,413.07,971.27Z"/><path class="cls-2" d="M750.11,945c-.23,10.61-11,20.47-22.53,20.59s-22.52-12.94-22-26.29c.4-10.93,11.29-20.52,22.69-20C739.26,919.84,750.37,932.87,750.11,945Zm-26,11.2a17,17,0,0,0,10,0c4.6-2.64,6.87-6.61,7.21-12-2-6.37-4.43-12.48-10.56-16-6.66-1.53-11.89.18-15.62,6C713,943.69,716.67,950.78,724.09,956.17Z"/><path class="cls-2" d="M996.16,598.23c5.4,8.19,4.41,16.13,3,23.68-1.6,8.38-9,14-17.54,14.71-11.42,1-21-3.84-25.11-12.7-3.57-7.77-1.7-19.33,4.28-24.93,2.42-2.26,5.15-4.35,8.91-3,1.58,1.48,1.12,3.39,1.13,5.12-.78,3.83-5.58,3.76-6.45,6.45-2.18,5.46-2.19,10.11.4,14.66,6,6.09,13.31,5.64,20.55,4.62a17,17,0,0,0,6.5-6.38c2.09-5.94.79-10-4.33-13.81a5,5,0,0,0-3.28,4.08c-.29,1.41-.58,2.82-.83,4-2.88,1.26-4.5-.2-6.31-1.81-.86-5.55,2.07-10.63,2.48-16.62C985.33,595,990.27,599.08,996.16,598.23Z"/><path class="cls-2" d="M549.33,986.37c2.72,3.14,5,5.17,6.5,7.66,2.08,3.41,5.11,6.33,6.13,10.51-2.74,2.18-5.67,1.12-8.39,1.1-7.15-5.15-8-17.28-19.68-18-2.37,5.91-.23,11.57-1.31,16.84-2,2.74-4.81,1.21-8,2v-43.9a85.1,85.1,0,0,1,23.05-.72c6.62.56,10.93,4.27,11.84,11.51C559.21,979.78,556.16,984.42,549.33,986.37Zm-17.17-5.71c13.9.67,13.9.67,18.38-6.24-5.77-6.92-6.34-7-18.12-4.12C531,973.43,531.41,976.67,532.16,980.66Z"/><path class="cls-2" d="M961.47,737.43c-.58,11.45-10.94,21.76-21.63,21.5-12.56-.31-25.64-11.76-24.76-22.68,1-12.17,9.49-22.56,22.09-21.77C950.23,715.3,962,726.13,961.47,737.43ZM951.21,731c-7-6.23-14-9.53-22.53-6.31-9.89,13.1-6,20.38,13.28,25.43C953.14,745,954,743.33,951.21,731Z"/><path class="cls-2" d="M969.69,681.63c-14.65,0-24.66-8.6-24.58-21.18.1-13.21,7.84-21.83,19.8-22,14.07-.25,25.39,8.92,25.64,20.82C990.77,669.68,982.63,683,969.69,681.63ZM953,664.06c5,7.22,11.59,8.89,19,8.51a9.83,9.83,0,0,0,9.32-6.71c1.66-4.43,1.42-8.76-1.83-12.54-3.89-4.51-13.81-7.12-19.55-5.18C954.46,650,952.69,654,953,664.06Z"/><path class="cls-2" d="M126.09,625l-6.44.79c-2.72-6.56-3.31-13.54-4-20.28-3.54-2.82-6.52-.68-10.07-.55,1,7.53,2,14.35,2.87,20.93-2.45,1.73-4.48,2.06-7.22.26-1.39-5.92-1-12.8-3.89-19.11-3.25-.91-6.38-.05-9.88,1-1.7,7.71,2.25,15,2.05,22.22-1.5,2.41-3.48,1.88-6.26,2-3-10-4.29-20.5-5.34-32.12l42.21-6.85C123.67,603.76,124,614,126.09,625Z"/><path class="cls-2" d="M600.33,991.22c-1.9,9-7.53,12.6-16,13.23-9,.68-16.44-.8-19.58-10.69.91-3.29,3.8-2.84,6.48-3.16,3.31.92,3.89,5.3,8.28,6.41,4.87.46,10.37.58,11.86-7.68-7.35-7-20.78-.69-27-13.39-.6-1.71-.57-5.33.62-8.83,11.46-11.58,23.52-10.78,31,2-1.55,2.57-4.16,2.69-6.8,2.94-2.63-1.28-3.64-4.73-9.08-5.54-2.05,0-5.8.64-7.76,5.42,3.13,5,8.07,4.67,12.83,5.05C593.56,977.64,599.23,981.49,600.33,991.22Z"/><path class="cls-2" d="M189.74,779.3c-1,3.46-1.82,7.1-5.25,9.24-3.26-.44-3.72-3.43-5.29-5.32.08-2.65,2.73-4.56,1.44-9.25-1.13-2.24-2.87-6.27-7.63-6-2.84,1.67-2.8,3.62-2.41,5.42.63,2.89,1.62,5.71,2.41,8.57,3.42,12.42,1.42,15.93-12,20.42-11-2-14.9-10.49-17.59-20.11.78-4.62,2-8.79,5.69-11.56,3.13-.62,3.94,1.78,5.76,4-3.53,6-4.21,12.2,2.41,17.71,2.08,1.33,4.47.91,6.92-.3.42-1.25,1.21-2.38,1-3.29-1-4.69-2.45-9.29-3.38-14-1.32-6.62,1-11.53,6.15-14.14s10.16-1.46,15,3.6C186.39,767.83,187.59,770.51,189.74,779.3Z"/><path class="cls-2" d="M305.44,912.36c.41-5.09,2.64-9.08,7.9-11.43,9.86-1.89,16.68,3.17,22.2,10.59a18.53,18.53,0,0,1-.07,11.09c-3.17.35-5.19-1.25-7.12-2.57-1.78-2.39.21-5.54-2.2-7.6-2.62-2.42-5.37-4.93-9.53-4.12-3.8,4.14-.54,6.83,1.87,9.53,4.18,4.68,9.35,8.69,10.09,15.73-.92,5.27-3.17,9.75-9,12.24-10.45,2-18.05-3-23.73-10.86a35.22,35.22,0,0,1-.28-12.54c3-2.4,4.16,1.13,6.1.58,2.62,11.5,2.62,11.5,11.9,15.53a4.64,4.64,0,0,0,3.88-1.84,13.32,13.32,0,0,0,1.45-2.8c-.77-5.08-5.06-7.36-7.89-10.68A23.81,23.81,0,0,1,305.44,912.36Z"/><path class="cls-2" d="M899.93,806.14c-4.18,3.31-6.8,7.81-10,12.66,3.85,4.77,10.38,6.77,13.6,11.64-.18,3.13-2.16,4.38-4.4,6.58l-33.94-24.54c.42-3.32,1.68-5.37,5.16-6.56l12.9,8.24c4-3.82,6.51-8.34,9.52-12.83-2.58-5.25-9.14-6.3-12-11.3a7.83,7.83,0,0,1,5.18-6l32.79,24c.81,4.06-2,5-2.13,7.55C909.67,814,906.06,807.91,899.93,806.14Z"/><path class="cls-2" d="M270.15,865.26l6.18,5.75-28,30.93c-3.35-.5-5.23-1.51-6.71-4.31,2-5.64,8.24-8.63,11.16-14.81l-12.15-11.23L228,885c-3.07-.44-4.24-2.88-6.66-5.38l27.33-30.47c4-.74,5.6,1.21,7,3.62-1.22,5.4-6.82,7.63-9.59,13.17,3,4.08,7.28,7.36,11.6,11C263,874,265.53,868.6,270.15,865.26Z"/><path class="cls-2" d="M811.31,869.66c-1.66-3.9.67-6.25,3.24-8.57,6.05-5.46,12.05-11,17.94-16.35a5.53,5.53,0,0,1,4.92,3.91l-15.15,16.53c.44,3,3.09,4.45,5.68,6.61l15.59-13.56a5.51,5.51,0,0,1,4.09,4.76c-3.21,5.7-9.89,9-14,14.56,1.26,4,4.57,5.77,7,8.18,7.62-3.68,11.45-11.27,18.3-14.6,2.26.8,3.52,2,4.31,4.91l-23.56,21.82c-6.62-7-12.55-13.58-18.81-19.81-3.06-3-5-7.44-9.71-8.63Z"/><path class="cls-2" d="M383.83,932c3.05,1.32,5.15,2.08,6.67,4.32-1.89,8.56-6.22,16.42-9.8,24.49-5.35,12.06-12.11,14-24.19,8.14-4.61-2.24-4.61-2.24-9.62-9.6-1.1-13.32,7.85-23.79,11.46-35.42,3.37-1.86,5.55-.29,8.25.47-1.54,12.09-11,21.34-10.76,33.15,3.16,5.22,7.1,7.13,13.31,5.29C375.76,954.06,378,942.44,383.83,932Z"/><path class="cls-2" d="M168,811c7-10.56,19.17-15.47,27.72-23.9,3.84.88,4.62,3.43,6,6.16-7.44,8-18.15,12.53-24.83,20.66-1.68,6.44,1.4,9.81,6.23,13.35,11.54-3.19,18.77-13.72,29-18.66,3.44.75,4.32,3.17,5.38,6.43-10.57,6.88-19.36,16.73-31.31,21.09C172.16,831.23,167.52,824.77,168,811Z"/><path class="cls-2" d="M203.87,215.07c-.5-2.08-1.14-4.14.78-7.24H179.1c-3.21-2.75-2.2-4.93-1.49-8.44l31.58,3.13c4.61-.51,6.27-4,9.19-5.48,2.12.23,3.28,1.52,4,3.6l-2,4.9,30.37,32.72c-.54,3.43-3.1,4.85-6.24,6.57-11.25-9.5-20.05-21.59-30.93-32-3.54-1.18-5.87,5.22-9.88,2Z"/><path class="cls-2" d="M286.19,930.63c-3.22-.27-4.62-2-5.83-3.09-2-4.26,1.21-7.8,0-11.64a45,45,0,0,0-12.09-9c-3.93-.46-6,3.14-9.33,3.58a8.49,8.49,0,0,1-6.45-5.38L289,882.52c4.5-.45,6.67,1.5,9.36,4.33C295,901.42,291.33,916.3,286.19,930.63Zm.54-36.4c-4.79,1-8.27,4-11.62,7.36,2.68,2.65,4.85,5.14,8.31,5.95,2.2-4.26,4.48-8.43,3.17-13.47,1.47.52,1.77,0,1.2-1.35Z"/><path class="cls-2" d="M990,493.42l-12.49-7.63-13.6,9.5c-.36-6.18,2.79-10.92,3.76-16.38-3.31-5.34-10.45-6.68-14.23-12.42h17.12c4.4-4.6,3.22-11.59,7.8-16.37,2,5.37,3.81,10.45,5.86,16.08h17c-2.57,6.45-9.13,7.4-12.65,12.16-.87,4.72,3.25,8.79,2.84,13.7C990.91,492.51,990.46,493,990,493.42Z"/><path class="cls-2" d="M83.78,492c1-4.32,2-8.64,3.2-13.53l-12.25-10c5.37-3.54,10.78-.84,15.62-2.47,3.77-4.18,3.37-10.34,6.76-15.46,3.5,4.72,3.24,10.94,7.32,15.91h14.45c-1.2,7.15-8.49,7.49-11.41,12.51,1.48,4.86,3.06,10.06,5.25,17.24L97.38,485.71l-12,7.69A9.66,9.66,0,0,0,83.78,492Z"/><path class="cls-2" d="M107.83,710.89c-3.84-2.09-2.58-5-3.56-7.31l5.73-6.12c.35-1.1.64-1.51.55-1.81-1.45-4.94-3-9.87-4.23-14.14-3.69-3.5-7.91-.87-11.26-2.75-1.64-1.71-1.92-3.72-.86-6.44h43.34c2.54,2.22,4,5,3.47,9.78C130.06,691.19,119.7,702.2,107.83,710.89Zm10.44-18.61c3.34-6,9.1-6.9,11.11-12.87-5.52.39-10.25-.6-14.7.77C113.7,684.35,116.12,687,118.27,692.28Z"/><path class="cls-2" d="M877.46,851.28c2.06-4.86.56-8.47.19-12,1.08-2.31,2.7-3.66,5.18-3.76.67.3,1.57.41,1.91.9,4.75,6.85,3.37,13.43-1.38,19.5-5,6.34-11.5,9.27-19.59,7.4-11.85-2.74-18.07-10.89-20.89-21.9,3.34-17.15,11.34-23.27,25.51-19.75.9,2.92-1,4.78-2.74,7.15l-7.94.5c-4.44,2.5-6.81,5.71-6.26,10.3,1,8,7.11,12,13.41,15.22C870.46,857.75,874.79,855,877.46,851.28Z"/><path class="cls-2" d="M752.1,913.87c.72,3.72,2,6.19,5.31,8L771.46,914a8.12,8.12,0,0,1,3.64,5c-3.28,4.53-9.32,5.63-13.48,10.11.54,5.8,6.15,9.6,7.46,15.33-.88,2.26-2.51,3.58-6.26,4.14-8.5-10.37-14.3-23.22-23.14-35.13,7.81-6.92,16.24-11.28,24-15.63,2.77.67,3.5,2.51,4.82,4.05C764.43,907.38,757.2,908.72,752.1,913.87Z"/><path class="cls-2" d="M136.71,315.57c-3.2.87-3.52,4.43-6.4,4.87-1.47-.37-2.73-1-3.49-3.8,2.15-6.14,6.59-12,10.36-18.55l5.13,2.85c-.29,1.87-.56,3.59-.9,5.74l37.62,22c.94,3.94-.55,5.91-3.58,8.3C162.06,331.15,149.78,322.16,136.71,315.57Z"/><path class="cls-2" d="M959.69,591.46a10.72,10.72,0,0,1,.79-9.28c4.74-4,11.52-4.76,16.6-9.51l-15-10.91c-1.27-3.07-.31-5.49.54-8.69,9.08,3.6,15,11.18,24,16.18l16.29,2.37c2.47,2.19.62,4.84,1.22,7.62-6.28,2.13-11.95-1.51-19.06-.51Z"/><path class="cls-2" d="M127,629.57A290,290,0,0,1,135,661.21c-1.44,3.57-3.45,3.9-5.65,3.62-3.1-2.9-1-7.64-5-10.86-11,.47-21.94,5.66-33.36,7.16-2.46-2.25-1.89-4.89-1.72-8.38l32.64-8.28c2.76-4.22-1.9-7.76-.76-11.83C122.14,631,124,630.54,127,629.57Z"/><path class="cls-2" d="M811.11,869.42c.19,6.05-6.49,6.55-9,11.37l20.95,27.42a7.23,7.23,0,0,1-6.23,4.76c-8.68-7.34-13.82-18.44-22.23-26.22-4.26.79-6.06,5-9.88,5.5-2.45-.11-3.1-1.79-3.84-4.82,7.62-7.22,16.66-13.52,25.34-20.19l5.09,2.42Z"/><path class="cls-2" d="M979.85,692c-2.64,9.21-5,18.81-10.26,27.92-13.62-4.7-27-8.43-39.4-14.21-.22-3.23,1-4.94,3.42-7.13l32,10.51c4.31-5.84,4.32-12.93,8-18.52C975.76,689.28,977.69,689.79,979.85,692Z"/><path class="cls-2" d="M155.77,716.35c1,2.31,1.8,4.3,2.91,6.93-13.38,3.9-24.5,14.28-39.35,12C108,725,107.75,718.75,118.24,710.18c2.93-.28,3.24,2.46,5.07,4.64-1.43,3.9-9.14,8.18-.67,13.11C134,725.82,143.69,718.13,155.77,716.35Z"/><path class="cls-2" d="M435.72,951c3.4-1.4,5.47-1.14,8.28,1.32-1.76,13.24-6.33,26.46-9.47,39.76-2.87,1.71-5.26,1.19-8.69-.65Q430.7,971.56,435.72,951Z"/><path class="cls-2" d="M127.75,755.69c-3-2.37-2.73-4.67-4-7.07,12.57-7.45,25.33-13,37.39-18.89,2.77,1.67,3.53,3.76,4.73,6.58C153.84,743.82,140.67,749.17,127.75,755.69Z"/><path class="cls-2" d="M617.05,998.49c-3.84,1.53-5.95,1.9-8.78.25C606,985.6,602.5,972.07,602,958.66c2-2.31,4-1.82,7-2C613.15,970.09,614.27,984.32,617.05,998.49Z"/><path class="cls-2" d="M937.79,391.74c-1.4-3.64-3.9-6.08-3.49-9.71a11.32,11.32,0,0,1,7.8-3.56c1.85,2.52,3.44,5.21,3.73,8.46C944.45,390.25,941.23,390.23,937.79,391.74Z"/><path class="cls-2" d="M972.7,375.33c-1.8,3.27-4.59,3.89-8.17,3.69l-3.63-7.5c2-3,4.63-4,8-4.45C970.92,369.48,972.66,372.09,972.7,375.33Z"/><path class="cls-2" d="M85.41,493.4c-.45,1-.93,1.85-2.25,1.26-.78-1.12-.09-1.91.62-2.69A9.66,9.66,0,0,1,85.41,493.4Z"/><path class="cls-2" d="M991.38,492.06c.83.69,1.61,1.39.8,2.63-1.28.63-1.73-.31-2.17-1.27C990.46,493,990.91,492.51,991.38,492.06Z"/><path class="cls-2" d="M423.7,523.74V603.1c-3.71,2.29-7.25,1.62-11.42.71V476.4c3.87-2.15,8-.5,12.66-1.34,9.52,27.59,18.92,54.8,28.31,82l1.31-.14V476.33c4.66-1.63,8.61-.86,13.22-.85V603.61c-4.36,1.63-8.95,1.35-14.21-.11q-14-40.12-28-80.36Z"/><path class="cls-2" d="M535.44,512a38.16,38.16,0,0,1-13,1.09c-1.07-6.52-1.52-13.06-8.11-17.24-5.91-1.73-11.88-1.66-16.28,5a20.12,20.12,0,0,0-.11,13.08c3.2,5.44,8.77,8,14.3,10,19.23,7,26.62,21.17,26.1,40.86-.24,9.39-.79,18.49-4.88,27.19-4.66,9.9-12.72,14.54-23.1,14.76-10.06.22-17.63-4.47-22.59-13.61-5.1-9.37-6.64-19.41-7.31-30.23l13.44-2.67c2.2,8.84,2,18.5,11.2,23.6,11.38,1.17,16-1.47,18.54-10.74,2.69-9.73-.29-16.59-9.41-21.35-3.29-1.72-6.79-3-10.06-4.82a72.64,72.64,0,0,1-9.46-5.84c-15.18-11.49-15-49.65-1.75-61.43,11.22-10,28.46-8.15,36.79,4.75C534.36,491.48,536.1,499.6,535.44,512Z"/><path class="cls-2" d="M551.44,475.78h12.43c2.19,3.91,1.19,7.7,1.21,11.32.11,20.91.16,41.82,0,62.73-.05,6.76,1.06,13.36,1.76,20A19.32,19.32,0,0,0,571.16,580c5.25,6.57,14.22,6.16,18.86-.84,2.76-4.15,3.63-8.8,3.64-13.8,0-25,.24-50,.38-75,0-4.47,0-8.94,0-13.72,4.78-2.22,9.38-1.25,13.62-.92,1.91,3.08,1.21,5.76,1.18,8.28-.42,29.09,1,58.19-1.09,87.27a80.88,80.88,0,0,1-3.11,17.52c-3.24,10.76-12.09,18-23,17.85-12.1-.14-18.62-2.58-24.81-15.24-3.87-7.89-5.07-16.47-5.2-24.9C551.18,536.61,551.44,506.75,551.44,475.78Z"/><path class="cls-2" d="M619.19,497.72V475.87h56.68c1.14,6.73.45,13.59.54,21.2H654.9V602.91c-4.9,2.8-8.93,1-14.34,2-.08-18.64,0-36.37,0-54.1,0-17.44,0-34.88,0-53.11Z"/></svg>